<?xml version="1.0" standalone="no"?>
<!DOCTYPE svg PUBLIC "-//W3C//DTD SVG 1.1//EN" "http://www.w3.org/Graphics/SVG/1.1/DTD/svg11.dtd" >
<svg>
<metadata>
Created by FontForge 20090622 at Thu Jan 16 12:27:42 2020
 By deploy user
&#194;&#169; 2013 Microsoft Corporation. All Rights Reserved.
</metadata>
<defs>
<font id="SegoeUIBlack" horiz-adv-x="0" >
  <font-face 
    font-family="Segoe UI Black"
    font-weight="900"
    font-stretch="normal"
    units-per-em="2048"
    panose-1="2 11 10 2 4 2 4 2 2 3"
    ascent="1638"
    descent="-410"
    x-height="1024"
    cap-height="1434"
    bbox="-936 -514 3027 2210"
    underline-thickness="119"
    underline-position="-119"
    unicode-range="U+000D-U+FFFD"
  />
<missing-glyph horiz-adv-x="1322" 
d="M166 0v1398h990v-1398h-990zM314 148h694v1102h-694v-1102z" />
    <glyph glyph-name=".notdef" horiz-adv-x="1322" 
d="M166 0v1398h990v-1398h-990zM314 148h694v1102h-694v-1102z" />
    <glyph glyph-name="uni000D" unicode="&#xd;" 
 />
    <glyph glyph-name="glyph2" horiz-adv-x="100" 
 />
    <glyph glyph-name="space" unicode=" " horiz-adv-x="569" 
 />
    <glyph glyph-name="exclam" unicode="!" horiz-adv-x="750" 
d="M543 483h-342l-54 951h449zM612 178q0 -89 -64.5 -146t-172.5 -57q-105 0 -171.5 58t-66.5 145q0 88 64.5 142.5t173.5 54.5q106 0 171.5 -54.5t65.5 -142.5z" />
    <glyph glyph-name="quotedbl" unicode="&#x22;" horiz-adv-x="1188" 
d="M965 1024h-258l-52 444h359zM481 1024h-262l-45 444h356z" />
    <glyph glyph-name="numbersign" unicode="#" horiz-adv-x="1227" 
d="M1126 864h-122l-52 -221h142l-58 -235h-135l-67 -302h-248l63 302h-219l-65 -302h-252l63 302h-127l49 235h129l52 221h-144l47 236h146l67 317h256l-67 -317h215l67 317h256l-67 -317h123zM530 864l-51 -221h219l52 221h-220z" />
    <glyph glyph-name="dollar" unicode="$" horiz-adv-x="1227" 
d="M1100 442q0 -94 -41 -175.5t-120.5 -142t-193.5 -89.5v-230h-237v203q-112 2 -226.5 27.5t-148.5 54.5v375q207 -152 402 -152q53 0 83.5 26t30.5 71q0 38 -19 60.5t-62.5 46.5t-129.5 58q-323 128 -323 412q0 165 104.5 277t288.5 145v199h237v-189q177 -10 285 -45
v-364q-77 48 -172.5 77t-187.5 29q-55 0 -89 -25.5t-34 -64.5q0 -48 40.5 -81.5t131.5 -70.5q198 -81 289.5 -185.5t91.5 -246.5z" />
    <glyph glyph-name="percent" unicode="%" horiz-adv-x="1839" 
d="M1737 367q0 -175 -103 -281t-278 -106q-162 0 -259.5 99t-97.5 261q0 178 104 282.5t277 104.5q166 0 261.5 -95t95.5 -265zM1475 354q0 71 -27 111.5t-74 40.5q-52 0 -80 -42.5t-28 -115.5q0 -69 25.5 -108t76.5 -39q52 0 79.5 40t27.5 113zM618 0h-315l922 1434h315z
M838 1092q0 -178 -103.5 -282.5t-275.5 -104.5q-162 0 -259.5 99t-97.5 261q0 176 101.5 282.5t277.5 106.5q166 0 261.5 -97t95.5 -265zM575 1081q0 69 -25.5 109.5t-72.5 40.5q-52 0 -80 -42.5t-28 -115.5q0 -69 25.5 -108t76.5 -39q50 0 77 40t27 115z" />
    <glyph glyph-name="ampersand" unicode="&#x26;" horiz-adv-x="1513" 
d="M1081 -2l-84 98q-67 -52 -187.5 -86.5t-231.5 -34.5q-245 0 -381 106.5t-136 297.5q0 113 82 216t250 187q-143 158 -143 316q0 160 125.5 260t326.5 100q191 0 307.5 -89.5t116.5 -238.5q0 -119 -69 -205t-219 -155l204 -231q45 90 45 243h326q0 -145 -41 -260.5
t-133 -210.5l287 -313h-445zM797 1108q0 43 -31.5 73.5t-73.5 30.5q-50 0 -80 -27t-30 -75q0 -31 18.5 -63.5t85.5 -108.5q62 38 86.5 78.5t24.5 91.5zM543 608q-42 -20 -70.5 -69.5t-28.5 -110.5q0 -85 56.5 -136.5t138.5 -51.5q51 0 98.5 16.5t79.5 42.5z" />
    <glyph glyph-name="quotesingle" unicode="'" horiz-adv-x="705" 
d="M481 1026h-262l-45 442h356z" />
    <glyph glyph-name="parenleft" unicode="(" horiz-adv-x="862" 
d="M512 -326q-172 186 -254 400t-82 475q0 487 334 885h336q-150 -210 -222.5 -428.5t-72.5 -456.5q0 -247 73 -458.5t224 -416.5h-336z" />
    <glyph glyph-name="parenright" unicode=")" horiz-adv-x="862" 
d="M686 549q0 -263 -82.5 -477t-253.5 -398h-336q299 401 299 875q0 233 -71.5 451.5t-225.5 433.5h336q334 -396 334 -885z" />
    <glyph glyph-name="asterisk" unicode="*" horiz-adv-x="991" 
d="M649 989l207 -194l-231 -158l-129 250l-129 -248l-232 156l207 194l-281 27l91 256l251 -119l-59 281h303l-59 -281l252 119l90 -256z" />
    <glyph glyph-name="plus" unicode="+" horiz-adv-x="1464" 
d="M856 455v-373h-248v373h-370v247h370v371h248v-371h373v-247h-373z" />
    <glyph glyph-name="comma" unicode="," horiz-adv-x="655" 
d="M387 -238h-344l102 510h385z" />
    <glyph glyph-name="hyphen" unicode="-" horiz-adv-x="834" 
d="M143 393v287h547v-287h-547z" />
    <glyph glyph-name="period" unicode="." horiz-adv-x="655" 
d="M565 178q0 -91 -64 -147t-177 -56q-103 0 -168.5 58.5t-65.5 144.5q0 88 64.5 142.5t173.5 54.5q106 0 171.5 -54.5t65.5 -142.5z" />
    <glyph glyph-name="slash" unicode="/" horiz-adv-x="987" 
d="M307 -238h-375l709 1672h375z" />
    <glyph glyph-name="zero" unicode="0" horiz-adv-x="1227" 
d="M1163 729q0 -369 -140.5 -561.5t-410.5 -192.5q-276 0 -412.5 177t-136.5 548q0 372 147.5 565t426.5 193q526 0 526 -729zM743 729q0 214 -30 316t-97 102q-131 0 -131 -438q0 -215 30.5 -318.5t96.5 -103.5q131 0 131 442z" />
    <glyph glyph-name="one" unicode="1" horiz-adv-x="990" 
d="M395 0v1032q-70 -41 -145 -62.5t-170 -31.5v320q135 23 251.5 72.5t238.5 135.5h251v-1466h-426z" />
    <glyph glyph-name="two" unicode="2" horiz-adv-x="1227" 
d="M90 0v115q0 122 30 212t94.5 169t224.5 203q114 90 151.5 129.5t56 76.5t18.5 80q0 143 -172 143q-175 0 -331 -127v349q119 60 222.5 83t212.5 23q234 0 362 -111t128 -313q0 -155 -67 -263t-249 -225q-139 -90 -184.5 -131.5t-46.5 -70.5h560v-342h-1010z" />
    <glyph glyph-name="three" unicode="3" horiz-adv-x="1227" 
d="M1080 410q0 -207 -150 -321t-429 -114q-104 0 -206 17.5t-175 46.5v334q67 -40 153 -63t174 -23q102 0 156.5 36.5t54.5 104.5q0 69 -67 108t-187 39h-138v314h122q121 0 178.5 37.5t57.5 97.5q0 57 -43.5 90t-133.5 33q-139 0 -278 -80v319q174 72 366 72q238 0 373 -97
t135 -269q0 -134 -72.5 -225t-203.5 -119v-5q145 -20 229 -110.5t84 -222.5z" />
    <glyph glyph-name="four" unicode="4" horiz-adv-x="1271" 
d="M1028 1434v-904h203v-284h-204v-246h-375v246h-607v295q160 184 318.5 427t257.5 466h407zM651 530v420q-92 -203 -253 -420h253z" />
    <glyph glyph-name="five" unicode="5" horiz-adv-x="1227" 
d="M1090 485q0 -147 -69.5 -263.5t-200.5 -181.5t-309 -65q-99 0 -206.5 17t-176.5 43v332q150 -80 317 -80q110 0 166.5 40t56.5 113q0 158 -262 158q-131 0 -243 -25l54 861h810v-332h-480l-14 -201q58 6 109 6q210 0 329 -113.5t119 -308.5z" />
    <glyph glyph-name="six" unicode="6" horiz-adv-x="1227" 
d="M1167 496q0 -144 -66.5 -263.5t-188 -187.5t-269.5 -68q-263 0 -405 175t-142 495q0 242 86 429.5t241.5 284.5t369.5 97q164 0 264 -37v-334q-99 60 -234 60q-137 0 -222.5 -89.5t-94.5 -236.5h6q101 123 289 123q169 0 267.5 -124t98.5 -324zM762 477q0 79 -30.5 124.5
t-92.5 45.5q-59 0 -91 -47.5t-32 -128.5q0 -76 34.5 -125t88.5 -49q57 0 90 48.5t33 131.5z" />
    <glyph glyph-name="seven" unicode="7" horiz-adv-x="1227" 
d="M273 0q30 197 85 367t131.5 328t232.5 407h-624v332h1049v-252q-143 -255 -216.5 -426t-127 -355.5t-87.5 -400.5h-443z" />
    <glyph glyph-name="eight" unicode="8" horiz-adv-x="1227" 
d="M67 390q0 132 67 222t197 147q-109 55 -164 141t-55 189q0 102 65.5 187.5t182 133.5t257.5 48q147 0 264 -47.5t181 -132.5t64 -190q0 -101 -59 -189t-172 -142q140 -61 202 -151.5t62 -212.5q0 -120 -69.5 -216t-195 -148t-281.5 -52q-242 0 -394 116t-152 297z
M454 425q0 -77 44 -121t116 -44q73 0 117 47t44 118q0 72 -46 119.5t-115 47.5q-68 0 -114 -46.5t-46 -120.5zM490 1040q0 -59 37.5 -104t92.5 -45q56 0 93.5 45t37.5 104q0 64 -38 107t-93 43q-56 0 -93 -43t-37 -107z" />
    <glyph glyph-name="nine" unicode="9" horiz-adv-x="1227" 
d="M1141 776q0 -376 -175 -588.5t-483 -212.5q-189 0 -329 56v329q42 -30 123.5 -51.5t146.5 -21.5q150 0 229.5 83t81.5 244h-6q-94 -120 -274 -120q-107 0 -196.5 55.5t-140 155t-50.5 227.5q0 158 66.5 278t188 184t279.5 64q164 0 289 -85t187.5 -236t62.5 -361z
M719 963q0 73 -33 124.5t-88 51.5q-54 0 -89.5 -43.5t-35.5 -134.5q0 -85 35 -129t88 -44q60 0 91.5 48.5t31.5 126.5z" />
    <glyph glyph-name="colon" unicode=":" horiz-adv-x="655" 
d="M565 827q0 -91 -64.5 -146.5t-176.5 -55.5q-102 0 -168 58t-66 144q0 88 64.5 142.5t173.5 54.5q106 0 171.5 -54.5t65.5 -142.5zM565 178q0 -91 -64 -147t-177 -56q-103 0 -168.5 58.5t-65.5 144.5q0 88 64.5 142.5t173.5 54.5q106 0 171.5 -54.5t65.5 -142.5z" />
    <glyph glyph-name="semicolon" unicode=";" horiz-adv-x="655" 
d="M575 827q0 -91 -64.5 -146.5t-176.5 -55.5q-102 0 -168 58t-66 144q0 88 64.5 142.5t173.5 54.5q106 0 171.5 -54.5t65.5 -142.5zM387 -238h-344l102 510h385z" />
    <glyph glyph-name="less" unicode="&#x3c;" horiz-adv-x="1464" 
d="M238 436v240l991 407v-292l-703 -236v-4l703 -236v-292z" />
    <glyph glyph-name="equal" unicode="=" horiz-adv-x="1464" 
d="M238 666v247h991v-247h-991zM238 236v247h991v-247h-991z" />
    <glyph glyph-name="greater" unicode="&#x3e;" horiz-adv-x="1464" 
d="M238 43v295l700 233v4l-700 234v295l991 -408v-239z" />
    <glyph glyph-name="question" unicode="?" horiz-adv-x="866" 
d="M907 1100q0 -222 -215 -391q-73 -58 -103 -102t-30 -109v-35h-336v88q0 183 121 287q79 67 101.5 92t32 48t9.5 54q0 38 -33.5 64t-86.5 26q-161 0 -338 -129v393q65 37 175.5 64t198.5 27q245 0 374.5 -96.5t129.5 -280.5zM641 178q0 -89 -64.5 -146t-173.5 -57
q-105 0 -171 58.5t-66 144.5q0 88 64.5 142.5t172.5 54.5q107 0 172.5 -54.5t65.5 -142.5z" />
    <glyph glyph-name="at" unicode="@" horiz-adv-x="1944" 
d="M1843 766q0 -173 -66.5 -306t-187 -206.5t-268.5 -73.5q-88 0 -156 43t-84 107h-6q-35 -67 -95 -108.5t-132 -41.5q-141 0 -225 102.5t-84 278.5q0 145 47 259t140 183.5t192 69.5q136 0 180 -108h4l8 86h301q-10 -92 -27.5 -306.5t-17.5 -259.5v-20q0 -25 13 -42t38 -17
q60 0 98.5 90.5t38.5 265.5q0 137 -58 243.5t-169 166t-266 59.5q-183 0 -334.5 -87t-240.5 -242.5t-89 -332.5q0 -259 155 -398.5t441 -139.5q98 0 207.5 25.5t194.5 66.5v-236q-177 -75 -447 -75q-254 0 -450.5 97.5t-297 269.5t-100.5 405q0 234 121 438.5t331.5 317
t475.5 112.5q248 0 432 -82.5t283.5 -238.5t99.5 -365zM1092 715q0 65 -29.5 102t-77.5 37q-63 0 -106 -85t-43 -200q0 -79 25.5 -124.5t72.5 -45.5q71 0 114.5 88.5t43.5 227.5z" />
    <glyph glyph-name="A" unicode="A" horiz-adv-x="1536" 
d="M1040 0l-63 264h-428l-68 -264h-467l494 1434h536l465 -1434h-469zM768 1122h-10q-2 -24 -14 -79t-121 -472h274l-100 390q-21 86 -29 161z" />
    <glyph glyph-name="B" unicode="B" horiz-adv-x="1415" 
d="M1366 440q0 -211 -148 -325.5t-423 -114.5h-654v1434h609q571 0 571 -347q0 -75 -36 -137.5t-109.5 -109.5t-161.5 -64v-4q102 -12 183 -60.5t125 -121t44 -150.5zM862 1012q0 133 -209 133h-80v-271h125q72 0 118 38.5t46 99.5zM907 442q0 62 -45 102t-119 40h-170v-293
h144q88 0 139 40.5t51 110.5z" />
    <glyph glyph-name="C" unicode="C" horiz-adv-x="1290" 
d="M1208 39q-178 -64 -411 -64q-229 0 -395 87.5t-253.5 249t-87.5 372.5q0 227 98 404t277 273.5t412 96.5q186 0 360 -45v-399q-60 36 -143 56t-168 20q-176 0 -277.5 -101t-101.5 -274q0 -172 101.5 -271.5t271.5 -99.5q157 0 317 80v-385z" />
    <glyph glyph-name="D" unicode="D" horiz-adv-x="1554" 
d="M1493 735q0 -218 -91.5 -385.5t-261.5 -258.5t-392 -91h-607v1434h594q758 0 758 -699zM1034 731q0 105 -42.5 189t-121.5 130t-186 46h-111v-758h121q155 0 247.5 106.5t92.5 286.5z" />
    <glyph glyph-name="E" unicode="E" horiz-adv-x="1130" 
d="M141 0v1434h893v-338h-461v-209h433v-338h-433v-211h494v-338h-926z" />
    <glyph glyph-name="F" unicode="F" horiz-adv-x="1108" 
d="M573 1096v-258h426v-338h-426v-500h-432v1434h899v-338h-467z" />
    <glyph glyph-name="G" unicode="G" horiz-adv-x="1489" 
d="M1397 94q-81 -46 -242 -82.5t-307 -36.5q-377 0 -582 188.5t-205 528.5q0 228 103.5 405t291.5 269t443 92q187 0 399 -53v-377q-99 45 -190 62.5t-199 17.5q-178 0 -283.5 -107t-105.5 -294q0 -179 88.5 -280t247.5 -101q74 0 109 8v205h-275v327h707v-772z" />
    <glyph glyph-name="H" unicode="H" horiz-adv-x="1643" 
d="M1069 0v535h-496v-535h-432v1434h432v-531h496v531h432v-1434h-432z" />
    <glyph glyph-name="I" unicode="I" horiz-adv-x="714" 
d="M141 0v1434h432v-1434h-432z" />
    <glyph glyph-name="J" unicode="J" horiz-adv-x="1047" 
d="M922 612q0 -637 -619 -637q-50 0 -120 12t-142 36v399q51 -35 113.5 -56.5t103.5 -21.5q116 0 173.5 71.5t57.5 221.5v797h433v-822z" />
    <glyph glyph-name="K" unicode="K" horiz-adv-x="1413" 
d="M934 0l-318 606q-32 72 -38 99h-5v-705h-432v1434h432v-682h5q19 54 43 100l286 582h512l-407 -684l446 -750h-524z" />
    <glyph glyph-name="L" unicode="L" horiz-adv-x="1108" 
d="M141 0v1434h432v-1096h494v-338h-926z" />
    <glyph glyph-name="M" unicode="M" horiz-adv-x="2021" 
d="M1454 0v786q0 111 7 244l3 66h-12q-32 -169 -49 -234l-211 -862h-406l-221 852q-9 32 -47 244h-12q14 -336 14 -420v-676h-379v1434h647l197 -779q7 -24 18.5 -97.5t14.5 -113.5h6q11 91 35 215l184 775h637v-1434h-426z" />
    <glyph glyph-name="N" unicode="N" horiz-adv-x="1663" 
d="M1143 0l-506 692q-60 82 -98 148h-4q6 -106 6 -238v-602h-400v1434h408l485 -658l22 -31l26 -37l24.5 -37t17.5 -32h4q-6 44 -6 152v643h400v-1434h-379z" />
    <glyph glyph-name="O" unicode="O" horiz-adv-x="1567" 
d="M1505 721q0 -216 -93 -386.5t-260 -265t-374 -94.5q-202 0 -367.5 91.5t-257.5 257t-92 374.5q0 219 93 394t261 270.5t382 95.5q206 0 368.5 -91.5t251 -261t88.5 -384.5zM1047 709q0 177 -68 279t-186 102q-129 0 -201 -98t-72 -277q0 -175 71.5 -273t194.5 -98
q75 0 135 44t93 126t33 195z" />
    <glyph glyph-name="P" unicode="P" horiz-adv-x="1343" 
d="M1313 961q0 -147 -74.5 -261t-212.5 -176.5t-321 -62.5h-132v-461h-432v1434h588q303 0 443.5 -115t140.5 -358zM856 946q0 88 -51 133t-150 45h-82v-354h97q186 0 186 176z" />
    <glyph glyph-name="Q" unicode="Q" horiz-adv-x="1567" 
d="M1505 721q0 -333 -215 -548l379 -366h-542l-182 185q-80 -17 -167 -17q-202 0 -367.5 91.5t-257.5 257t-92 374.5q0 219 93 394t261 270.5t382 95.5q206 0 368.5 -91.5t251 -261t88.5 -384.5zM1047 709q0 177 -68 279t-186 102q-129 0 -201 -98t-72 -277
q0 -175 71.5 -273t194.5 -98q117 0 189 99t72 266z" />
    <glyph glyph-name="R" unicode="R" horiz-adv-x="1397" 
d="M885 0l-107 309q-31 91 -80.5 143t-107.5 52h-17v-504h-432v1434h574q301 0 444.5 -98.5t143.5 -295.5q0 -148 -83.5 -248t-248.5 -145v-4q91 -28 151.5 -91t108.5 -187l141 -365h-487zM844 979q0 72 -44 114t-138 42h-89v-328h78q87 0 140 49t53 123z" />
    <glyph glyph-name="S" unicode="S" horiz-adv-x="1171" 
d="M1137 434q0 -143 -76.5 -249t-214.5 -158t-332 -52q-225 0 -412 76v393q90 -66 199 -106.5t203 -40.5q71 0 110 25.5t39 74.5q0 35 -19.5 61.5t-59 49.5t-146.5 63q-346 133 -346 430q0 208 158 332.5t424 124.5q75 0 138 -6t114.5 -15t144.5 -34v-365q-181 99 -356 99
q-72 0 -116 -27t-44 -74q0 -45 35.5 -74.5t148.5 -76.5q223 -90 315.5 -197t92.5 -254z" />
    <glyph glyph-name="T" unicode="T" horiz-adv-x="1303" 
d="M866 1096v-1096h-434v1096h-401v338h1241v-338h-406z" />
    <glyph glyph-name="U" unicode="U" horiz-adv-x="1516" 
d="M1391 655q0 -345 -157.5 -512.5t-485.5 -167.5q-306 0 -464.5 167.5t-158.5 504.5v787h434v-803q0 -138 51.5 -212.5t147.5 -74.5q97 0 147.5 70t50.5 207v813h435v-779z" />
    <glyph glyph-name="V" unicode="V" horiz-adv-x="1438" 
d="M958 0h-485l-463 1434h465l219 -883q26 -107 29 -160h10q6 67 31 166l213 877h450z" />
    <glyph glyph-name="W" unicode="W" horiz-adv-x="2157" 
d="M1774 0h-459l-199 817q-9 35 -20 174h-4q-15 -123 -29 -174l-215 -817h-486l-342 1434h474l120 -844q3 -16 9 -93l6 -83h6q2 26 12 88.5t19 93.5l221 838h471l184 -850l13 -85l10 -83h4l3 35l13 139l125 844h426z" />
    <glyph glyph-name="X" unicode="X" horiz-adv-x="1438" 
d="M930 0l-178 393q-17 37 -22.5 72.5t-8.5 58.5h-4q-6 -24 -14 -63t-23 -76l-166 -385h-514l430 715l-391 719h522l139 -379q19 -53 35 -140h4q16 98 37 142l162 377h481l-403 -711l422 -723h-508z" />
    <glyph glyph-name="Y" unicode="Y" horiz-adv-x="1331" 
d="M874 498v-498h-432v492l-442 942h496l155 -451q16 -46 22.5 -80t14.5 -69h4q13 91 29 141l153 459h457z" />
    <glyph glyph-name="Z" unicode="Z" horiz-adv-x="1313" 
d="M616 338h648v-338h-1203v303l662 793h-621v338h1141v-301z" />
    <glyph glyph-name="bracketleft" unicode="[" horiz-adv-x="862" 
d="M233 -326v1760h543v-258h-201v-1244h201v-258h-543z" />
    <glyph glyph-name="backslash" unicode="\" horiz-adv-x="987" 
d="M719 -238l-699 1672h373l697 -1672h-371z" />
    <glyph glyph-name="bracketright" unicode="]" horiz-adv-x="862" 
d="M86 -326v258h201v1244h-201v258h543v-1760h-543z" />
    <glyph glyph-name="asciicircum" unicode="^" horiz-adv-x="1464" 
d="M971 629l-236 553h-6l-235 -553h-306l424 829h240l424 -829h-305z" />
    <glyph glyph-name="underscore" unicode="_" horiz-adv-x="850" 
d="M0 -297v119h850v-119h-850z" />
    <glyph glyph-name="grave" unicode="`" horiz-adv-x="711" 
d="M385 1186l-356 321h358l299 -321h-301z" />
    <glyph glyph-name="a" unicode="a" horiz-adv-x="1149" 
d="M670 0v156h-4q-102 -181 -312 -181q-145 0 -227 86t-82 230q0 302 371 350l254 33q0 50 -45 82t-121 32q-172 0 -363 -98v277q83 36 208 59t214 23q261 0 378.5 -111.5t117.5 -372.5v-565h-389zM418 348q0 -42 26.5 -69t75.5 -27q67 0 108.5 50t41.5 128v39l-144 -20
q-108 -18 -108 -101z" />
    <glyph glyph-name="b" unicode="b" horiz-adv-x="1315" 
d="M1257 543q0 -168 -55.5 -297.5t-157.5 -200t-231 -70.5q-99 0 -169.5 36.5t-111.5 94.5h-4v-106h-426v1516h426v-631h4q50 76 135.5 120t188.5 44q194 0 297.5 -129t103.5 -377zM825 530q0 103 -39.5 155t-113.5 52q-65 0 -108.5 -54.5t-43.5 -141.5v-62q0 -88 39 -140
t105 -52q77 0 119 63.5t42 179.5z" />
    <glyph glyph-name="c" unicode="c" horiz-adv-x="1014" 
d="M946 29q-41 -24 -129 -39t-203 -15q-162 0 -289.5 65.5t-197.5 183.5t-70 265q0 176 74.5 301.5t212.5 192t320 66.5q100 0 179.5 -13t102.5 -30v-332q-32 25 -92 44t-111 19q-125 0 -189.5 -59.5t-64.5 -167.5q0 -106 63.5 -164.5t174.5 -58.5q119 0 219 57v-315z" />
    <glyph glyph-name="d" unicode="d" horiz-adv-x="1315" 
d="M786 0v119h-4q-51 -67 -133 -105.5t-162 -38.5q-131 0 -231 64.5t-149.5 180.5t-49.5 274q0 163 59 289t166 196t240 70q63 0 116.5 -18t93 -48.5t50.5 -60.5h4v594h426v-1516h-426zM795 543q0 92 -40.5 143t-109.5 51t-112.5 -63.5t-43.5 -169.5q0 -217 150 -217
q71 0 113.5 58.5t42.5 170.5v27z" />
    <glyph glyph-name="e" unicode="e" horiz-adv-x="1147" 
d="M469 391q11 -66 76 -103.5t172 -37.5q149 0 282 57v-270q-155 -62 -376 -62q-268 0 -417 137t-149 377q0 165 65.5 291t194 197.5t283.5 71.5q159 0 272 -62t171.5 -174t58.5 -262v-160h-633zM725 614q0 177 -127 177q-53 0 -89 -48.5t-42 -128.5h258z" />
    <glyph glyph-name="f" unicode="f" horiz-adv-x="883" 
d="M891 1206q-66 23 -123 23q-71 0 -105 -36.5t-34 -98.5v-70h237v-295h-237v-729h-426v729h-172v295h172v94q0 125 58 220.5t168.5 148.5t268.5 53q114 0 193 -22v-312z" />
    <glyph glyph-name="g" unicode="g" horiz-adv-x="1315" 
d="M1212 143q0 -295 -185.5 -459.5t-541.5 -164.5q-96 0 -186 15t-129 34v334q64 -40 150 -64t153 -24q143 0 229 69t86 183v63h-4q-46 -70 -126.5 -112t-172.5 -42q-198 0 -313 137.5t-115 379.5q0 166 60 293t167 195.5t236 68.5q177 0 264 -131h4v106h424v-881zM795 541
q0 90 -40.5 143t-107.5 53q-72 0 -115 -64t-43 -171q0 -99 36 -157t114 -58q73 0 114.5 59.5t41.5 159.5v35z" />
    <glyph glyph-name="h" unicode="h" horiz-adv-x="1264" 
d="M762 0v584q0 153 -117 153q-57 0 -87 -43.5t-30 -111.5v-582h-426v1516h426v-631h4q55 79 133.5 121.5t168.5 42.5q166 0 253 -106.5t87 -313.5v-629h-412z" />
    <glyph glyph-name="i" unicode="i" horiz-adv-x="631" 
d="M553 1300q0 -90 -65.5 -146t-172.5 -56q-104 0 -170.5 58t-66.5 144q0 88 64.5 142.5t172.5 54.5q107 0 172.5 -54.5t65.5 -142.5zM102 0v1024h426v-1024h-426z" />
    <glyph glyph-name="j" unicode="j" horiz-adv-x="631" 
d="M553 1300q0 -90 -65.5 -146t-172.5 -56q-104 0 -170.5 58t-66.5 144q0 88 64.5 142.5t172.5 54.5q107 0 172.5 -54.5t65.5 -142.5zM528 -10q0 -135 -53 -246.5t-156 -168t-245 -56.5q-78 0 -170 30v312q56 -31 102 -31q53 0 74.5 35.5t21.5 107.5v1051h426v-1034z" />
    <glyph glyph-name="k" unicode="k" horiz-adv-x="1214" 
d="M760 0l-228 526h-4v-526h-426v1516h426v-973h4l207 481h480l-277 -469l293 -555h-475z" />
    <glyph glyph-name="l" unicode="l" horiz-adv-x="631" 
d="M102 0v1516h426v-1516h-426z" />
    <glyph glyph-name="m" unicode="m" horiz-adv-x="1946" 
d="M1430 0v590q0 74 -26.5 110.5t-86.5 36.5q-59 0 -92 -44.5t-33 -123.5v-569h-426v580q0 157 -107 157q-65 0 -98 -45.5t-33 -130.5v-561h-426v1024h426v-162h4q24 43 76.5 87.5t118.5 72t143 27.5q109 0 183.5 -43t124.5 -136q54 86 144 132.5t200 46.5q161 0 247 -105
t86 -303v-641h-425z" />
    <glyph glyph-name="n" unicode="n" horiz-adv-x="1282" 
d="M766 0v559q0 95 -28.5 136.5t-92.5 41.5q-55 0 -86 -43t-31 -110v-584h-426v1024h426v-160h4q51 88 137 136.5t187 48.5q336 0 336 -424v-625h-426z" />
    <glyph glyph-name="o" unicode="o" horiz-adv-x="1298" 
d="M1241 530q0 -259 -156.5 -407t-437.5 -148q-279 0 -434.5 144.5t-155.5 398.5q0 163 73 283t208 184t311 64q182 0 315.5 -67t205 -186t71.5 -266zM809 528q0 209 -160 209t-160 -219q0 -231 162 -231q158 0 158 241z" />
    <glyph glyph-name="p" unicode="p" horiz-adv-x="1315" 
d="M1257 543q0 -168 -57 -297t-161 -200t-234 -71q-180 0 -273 131h-4v-577h-426v1495h426v-139h4q51 77 132 120.5t184 43.5q198 0 303.5 -132t105.5 -374zM825 530q0 97 -37.5 152t-115.5 55q-68 0 -110 -58t-42 -159v-20q0 -97 36 -155t108 -58q77 0 119 63.5t42 179.5z
" />
    <glyph glyph-name="q" unicode="q" horiz-adv-x="1315" 
d="M786 -471v588h-4q-48 -64 -129.5 -103t-167.5 -39q-127 0 -223.5 60t-150.5 174.5t-54 282.5q0 166 60 293t167 195.5t236 68.5q175 0 262 -131h4v106h426v-1495h-426zM795 539q0 93 -40.5 145.5t-107.5 52.5q-70 0 -114 -64t-44 -171q0 -99 37 -157t111 -58t116 58
t42 161v33z" />
    <glyph glyph-name="r" unicode="r" horiz-adv-x="893" 
d="M872 659q-24 11 -65 20t-68 9q-211 0 -211 -244v-444h-426v1024h426v-180h4q39 97 111 147.5t168 50.5q35 0 61 -12v-371z" />
    <glyph glyph-name="s" unicode="s" horiz-adv-x="989" 
d="M934 340q0 -174 -132.5 -269.5t-369.5 -95.5q-69 0 -170.5 14t-165.5 34v299q189 -84 316 -84q125 0 125 65q0 27 -29 44.5t-152 58.5q-136 43 -198 114t-62 185q0 159 126.5 251.5t355.5 92.5q134 0 284 -39v-287q-63 27 -138 45t-126 18q-42 0 -67 -14t-25 -39
q0 -29 27 -47t108 -43q157 -46 225 -118t68 -185z" />
    <glyph glyph-name="t" unicode="t" horiz-adv-x="854" 
d="M823 14q-29 -14 -95 -26.5t-159 -12.5q-178 0 -278.5 98t-100.5 279v377h-161v295h161v201l420 116v-317h213v-295h-213v-307q0 -135 107 -135q50 0 106 22v-295z" />
    <glyph glyph-name="u" unicode="u" horiz-adv-x="1282" 
d="M754 0v158h-4q-53 -73 -95.5 -107t-96 -55t-124.5 -21q-168 0 -256 109t-88 322v618h426v-586q0 -151 113 -151q62 0 93.5 41t31.5 116v580h426v-1024h-426z" />
    <glyph glyph-name="v" unicode="v" horiz-adv-x="1204" 
d="M848 0h-506l-342 1024h444l125 -559q30 -135 33 -203h6q2 20 5.5 41t148.5 721h442z" />
    <glyph glyph-name="w" unicode="w" horiz-adv-x="1731" 
d="M1430 0h-443l-102 498q-19 90 -19 159h-6q-11 -106 -22 -153l-111 -504h-442l-271 1024h428l88 -596l15 -133h6q13 117 18 137l131 592h406l113 -592l9 -71l5 -64h6l3 29l91 698h383z" />
    <glyph glyph-name="x" unicode="x" horiz-adv-x="1272" 
d="M944 545l330 -545h-490l-110 233q-19 39 -43 107h-4q-21 -68 -27 -83.5t-117 -256.5h-487l340 516l-320 508h492l110 -238q22 -41 44 -112h4q29 87 41 114l104 236h465z" />
    <glyph glyph-name="y" unicode="y" horiz-adv-x="1176" 
d="M301 -481q-60 0 -129 10.5t-123 30.5v321q25 -19 74.5 -35t93.5 -16q119 0 158 94l33 80l-428 1020h471l124 -494q36 -138 39 -186h4q3 22 8.5 49t155.5 631h414l-377 -1053q-85 -242 -210.5 -347t-307.5 -105z" />
    <glyph glyph-name="z" unicode="z" horiz-adv-x="1042" 
d="M584 295h422v-295h-981v197l460 532h-417v295h929v-242z" />
    <glyph glyph-name="braceleft" unicode="{" horiz-adv-x="862" 
d="M762 -326q-185 0 -292 38.5t-154.5 120t-47.5 249.5v180q0 180 -149 180v224q149 0 149 182v168q0 176 46.5 258.5t153 121t294.5 38.5v-224q-82 0 -121 -37t-39 -126v-142q0 -136 -37 -222t-121 -126v-4q83 -40 120.5 -129t37.5 -234v-127q0 -90 37 -127.5t123 -37.5
v-224z" />
    <glyph glyph-name="bar" unicode="|" horiz-adv-x="815" 
d="M244 -481v2048h327v-2048h-327z" />
    <glyph glyph-name="braceright" unicode="}" horiz-adv-x="862" 
d="M743 442q-149 0 -149 -182v-168q0 -176 -46.5 -258.5t-153 -121t-294.5 -38.5v224q83 0 121.5 37t38.5 126v142q0 135 36.5 221t121.5 127v4q-83 41 -120.5 131t-37.5 232v126q0 89 -36 127.5t-124 38.5v224q186 0 292.5 -38.5t154 -120t47.5 -249.5v-180
q0 -180 149 -180v-224z" />
    <glyph glyph-name="asciitilde" unicode="~" horiz-adv-x="1464" 
d="M1270 776q-6 -175 -93 -281t-231 -106q-80 0 -139 20.5t-134 64.5q-76 44 -116 44q-48 0 -78.5 -36t-36.5 -105h-247q5 181 93 285t238 104q69 0 121.5 -17t102.5 -44l86 -47t77 -21q48 0 77 39.5t32 99.5h248z" />
    <glyph glyph-name="Adieresis" unicode="&#xc4;" horiz-adv-x="1536" 
d="M1040 0l-63 264h-428l-68 -264h-467l494 1434h536l465 -1434h-469zM768 1122h-10q-2 -24 -14 -79t-121 -472h274l-100 390q-21 86 -29 161zM1210 1720q0 -73 -52 -118.5t-140 -45.5q-84 0 -138.5 46.5t-54.5 117.5t53 115t140 44t139.5 -44.5t52.5 -114.5zM709 1720
q0 -71 -51.5 -117.5t-141.5 -46.5q-85 0 -138.5 47.5t-53.5 116.5q0 71 53 115t139 44q87 0 140 -43.5t53 -115.5z" />
    <glyph glyph-name="Aring" unicode="&#xc5;" horiz-adv-x="1536" 
d="M1040 0l-63 264h-428l-68 -264h-467l494 1434q-27 54 -27 114q0 116 81.5 186t209.5 70q136 0 216.5 -71t80.5 -185q0 -67 -25 -114l465 -1434h-469zM879 1548q0 35 -26.5 61.5t-80.5 26.5q-49 0 -73.5 -25.5t-24.5 -62.5t27 -62.5t71 -25.5q48 0 77.5 25t29.5 63z
M768 1106h-10q-9 -57 -13 -74t-114 -430h258l-94 359q-14 55 -19 90z" />
    <glyph glyph-name="Ccedilla" unicode="&#xc7;" horiz-adv-x="1290" 
d="M1208 39q-132 -50 -346 -62v-43q195 -14 195 -178q0 -111 -90.5 -170t-257.5 -59q-53 0 -115 6v172q37 -8 82 -8q57 0 86 16.5t29 42.5q0 31 -23.5 45.5t-79.5 14.5h-18l-21 -2v172q-184 25 -316 118t-202 241.5t-70 338.5q0 227 98 404t277 273.5t412 96.5
q186 0 360 -45v-399q-60 36 -143 56t-168 20q-176 0 -277.5 -101t-101.5 -274q0 -172 101.5 -271.5t271.5 -99.5q157 0 317 80v-385z" />
    <glyph glyph-name="Eacute" unicode="&#xc9;" horiz-adv-x="1130" 
d="M141 0v1434h893v-338h-461v-209h433v-338h-433v-211h494v-338h-926zM665 1567h-301l299 321h358z" />
    <glyph glyph-name="Ntilde" unicode="&#xd1;" horiz-adv-x="1663" 
d="M1143 0l-506 692q-60 82 -98 148h-4q6 -106 6 -238v-602h-400v1434h408l485 -658l22 -31l26 -37l24.5 -37t17.5 -32h4q-6 44 -6 152v643h400v-1434h-379zM1223 1921q0 -165 -60 -252.5t-173 -87.5q-88 0 -170 49l-62.5 38t-60.5 18q-38 0 -60 -31t-22 -88h-174
q0 170 61.5 255t167.5 85q102 0 189 -58q29 -18 55 -32.5t57 -14.5q34 0 55 29.5t21 89.5h176z" />
    <glyph glyph-name="Odieresis" unicode="&#xd6;" horiz-adv-x="1567" 
d="M1505 721q0 -216 -93 -386.5t-260 -265t-374 -94.5q-202 0 -367.5 91.5t-257.5 257t-92 374.5q0 219 93 394t261 270.5t382 95.5q206 0 368.5 -91.5t251 -261t88.5 -384.5zM1047 709q0 177 -68 279t-186 102q-129 0 -201 -98t-72 -277q0 -175 71.5 -273t194.5 -98
q75 0 135 44t93 126t33 195zM1225 1720q0 -73 -52 -118.5t-140 -45.5q-84 0 -138.5 46.5t-54.5 117.5t53 115t140 44t139.5 -44.5t52.5 -114.5zM724 1720q0 -71 -51.5 -117.5t-141.5 -46.5q-85 0 -138.5 47.5t-53.5 116.5q0 71 53 115t139 44q87 0 140 -43.5t53 -115.5z" />
    <glyph glyph-name="Udieresis" unicode="&#xdc;" horiz-adv-x="1516" 
d="M1391 655q0 -345 -157.5 -512.5t-485.5 -167.5q-306 0 -464.5 167.5t-158.5 504.5v787h434v-803q0 -138 51.5 -212.5t147.5 -74.5q97 0 147.5 70t50.5 207v813h435v-779zM1200 1720q0 -73 -52 -118.5t-140 -45.5q-84 0 -138.5 46.5t-54.5 117.5t53 115t140 44
t139.5 -44.5t52.5 -114.5zM699 1720q0 -71 -51.5 -117.5t-141.5 -46.5q-85 0 -138.5 47.5t-53.5 116.5q0 71 53 115t139 44q87 0 140 -43.5t53 -115.5z" />
    <glyph glyph-name="aacute" unicode="&#xe1;" horiz-adv-x="1149" 
d="M670 0v156h-4q-102 -181 -312 -181q-145 0 -227 86t-82 230q0 302 371 350l254 33q0 50 -45 82t-121 32q-172 0 -363 -98v277q83 36 208 59t214 23q261 0 378.5 -111.5t117.5 -372.5v-565h-389zM418 348q0 -42 26.5 -69t75.5 -27q67 0 108.5 50t41.5 128v39l-144 -20
q-108 -18 -108 -101zM607 1186h-301l299 321h358z" />
    <glyph glyph-name="agrave" unicode="&#xe0;" horiz-adv-x="1149" 
d="M670 0v156h-4q-102 -181 -312 -181q-145 0 -227 86t-82 230q0 302 371 350l254 33q0 50 -45 82t-121 32q-172 0 -363 -98v277q83 36 208 59t214 23q261 0 378.5 -111.5t117.5 -372.5v-565h-389zM418 348q0 -42 26.5 -69t75.5 -27q67 0 108.5 50t41.5 128v39l-144 -20
q-108 -18 -108 -101zM500 1186l-356 321h358l299 -321h-301z" />
    <glyph glyph-name="acircumflex" unicode="&#xe2;" horiz-adv-x="1149" 
d="M670 0v156h-4q-102 -181 -312 -181q-145 0 -227 86t-82 230q0 302 371 350l254 33q0 50 -45 82t-121 32q-172 0 -363 -98v277q83 36 208 59t214 23q261 0 378.5 -111.5t117.5 -372.5v-565h-389zM418 348q0 -42 26.5 -69t75.5 -27q67 0 108.5 50t41.5 128v39l-144 -20
q-108 -18 -108 -101zM725 1186l-148 153l-147 -153h-262l256 321h317l256 -321h-272z" />
    <glyph glyph-name="adieresis" unicode="&#xe4;" horiz-adv-x="1149" 
d="M670 0v156h-4q-102 -181 -312 -181q-145 0 -227 86t-82 230q0 302 371 350l254 33q0 50 -45 82t-121 32q-172 0 -363 -98v277q83 36 208 59t214 23q261 0 378.5 -111.5t117.5 -372.5v-565h-389zM418 348q0 -42 26.5 -69t75.5 -27q67 0 108.5 50t41.5 128v39l-144 -20
q-108 -18 -108 -101zM1017 1339q0 -73 -52 -118.5t-140 -45.5q-84 0 -138.5 46.5t-54.5 117.5t53 115t140 44t139.5 -44.5t52.5 -114.5zM516 1339q0 -71 -51.5 -117.5t-141.5 -46.5q-85 0 -138.5 47.5t-53.5 116.5q0 71 53 115t139 44q87 0 140 -43.5t53 -115.5z" />
    <glyph glyph-name="atilde" unicode="&#xe3;" horiz-adv-x="1149" 
d="M670 0v156h-4q-102 -181 -312 -181q-145 0 -227 86t-82 230q0 302 371 350l254 33q0 50 -45 82t-121 32q-172 0 -363 -98v277q83 36 208 59t214 23q261 0 378.5 -111.5t117.5 -372.5v-565h-389zM418 348q0 -42 26.5 -69t75.5 -27q67 0 108.5 50t41.5 128v39l-144 -20
q-108 -18 -108 -101zM970 1540q0 -165 -60 -252.5t-173 -87.5q-88 0 -170 49l-62.5 38t-60.5 18q-38 0 -60 -31t-22 -88h-174q0 170 61.5 255t167.5 85q102 0 189 -58q29 -18 55 -32.5t57 -14.5q34 0 55 29.5t21 89.5h176z" />
    <glyph glyph-name="aring" unicode="&#xe5;" horiz-adv-x="1149" 
d="M670 0v156h-4q-102 -181 -312 -181q-145 0 -227 86t-82 230q0 302 371 350l254 33q0 50 -45 82t-121 32q-172 0 -363 -98v277q83 36 208 59t214 23q261 0 378.5 -111.5t117.5 -372.5v-565h-389zM418 348q0 -42 26.5 -69t75.5 -27q67 0 108.5 50t41.5 128v39l-144 -20
q-108 -18 -108 -101zM846 1421q0 -106 -75.5 -170.5t-195.5 -64.5q-115 0 -189.5 65.5t-74.5 169.5q0 72 34.5 124.5t95.5 81t134 28.5q124 0 197.5 -64.5t73.5 -169.5zM672 1421q0 32 -23.5 56t-73.5 24q-45 0 -67.5 -23t-22.5 -57t25.5 -57t64.5 -23q42 0 69.5 22.5
t27.5 57.5z" />
    <glyph glyph-name="ccedilla" unicode="&#xe7;" horiz-adv-x="1014" 
d="M946 29q-84 -50 -316 -54v-41q195 -14 195 -178q0 -111 -90.5 -170t-257.5 -59q-54 0 -115 6v172q37 -8 82 -8q57 0 86 16.5t29 42.5q0 31 -23 45.5t-80 14.5h-18l-21 -2v189q-169 52 -264.5 182t-95.5 304q0 176 74.5 301.5t212.5 192t320 66.5q100 0 179.5 -13
t102.5 -30v-332q-32 25 -92 44t-111 19q-126 0 -190 -59t-64 -168q0 -106 63 -164.5t175 -58.5q119 0 219 57v-315z" />
    <glyph glyph-name="eacute" unicode="&#xe9;" horiz-adv-x="1147" 
d="M469 391q11 -66 76 -103.5t172 -37.5q149 0 282 57v-270q-155 -62 -376 -62q-268 0 -417 137t-149 377q0 165 65.5 291t194 197.5t283.5 71.5q159 0 272 -62t171.5 -174t58.5 -262v-160h-633zM725 614q0 177 -127 177q-53 0 -89 -48.5t-42 -128.5h258zM646 1186h-301
l299 321h358z" />
    <glyph glyph-name="egrave" unicode="&#xe8;" horiz-adv-x="1147" 
d="M469 391q11 -66 76 -103.5t172 -37.5q149 0 282 57v-270q-155 -62 -376 -62q-268 0 -417 137t-149 377q0 165 65.5 291t194 197.5t283.5 71.5q159 0 272 -62t171.5 -174t58.5 -262v-160h-633zM725 614q0 177 -127 177q-53 0 -89 -48.5t-42 -128.5h258zM511 1186l-356 321
h358l299 -321h-301z" />
    <glyph glyph-name="ecircumflex" unicode="&#xea;" horiz-adv-x="1147" 
d="M469 391q11 -66 76 -103.5t172 -37.5q149 0 282 57v-270q-155 -62 -376 -62q-268 0 -417 137t-149 377q0 165 65.5 291t194 197.5t283.5 71.5q159 0 272 -62t171.5 -174t58.5 -262v-160h-633zM725 614q0 177 -127 177q-53 0 -89 -48.5t-42 -128.5h258zM733 1186l-148 153
l-147 -153h-262l256 321h317l256 -321h-272z" />
    <glyph glyph-name="edieresis" unicode="&#xeb;" horiz-adv-x="1147" 
d="M469 391q11 -66 76 -103.5t172 -37.5q149 0 282 57v-270q-155 -62 -376 -62q-268 0 -417 137t-149 377q0 165 65.5 291t194 197.5t283.5 71.5q159 0 272 -62t171.5 -174t58.5 -262v-160h-633zM725 614q0 177 -127 177q-53 0 -89 -48.5t-42 -128.5h258zM1035 1339
q0 -73 -52 -118.5t-140 -45.5q-84 0 -138.5 46.5t-54.5 117.5t53 115t140 44t139.5 -44.5t52.5 -114.5zM534 1339q0 -71 -51.5 -117.5t-141.5 -46.5q-85 0 -138.5 47.5t-53.5 116.5q0 71 53 115t139 44q87 0 140 -43.5t53 -115.5z" />
    <glyph glyph-name="iacute" unicode="&#xed;" horiz-adv-x="631" 
d="M102 0v1024h426v-1024h-426zM368 1186h-301l299 321h358z" />
    <glyph glyph-name="igrave" unicode="&#xec;" horiz-adv-x="631" 
d="M102 0v1024h426v-1024h-426zM264 1186l-356 321h358l299 -321h-301z" />
    <glyph glyph-name="icircumflex" unicode="&#xee;" horiz-adv-x="631" 
d="M102 0v1024h426v-1024h-426zM463 1186l-148 153l-147 -153h-262l256 321h317l256 -321h-272z" />
    <glyph glyph-name="idieresis" unicode="&#xef;" horiz-adv-x="631" 
d="M102 0v1024h426v-1024h-426zM758 1339q0 -73 -52 -118.5t-140 -45.5q-84 0 -138.5 46.5t-54.5 117.5t53 115t140 44t139.5 -44.5t52.5 -114.5zM257 1339q0 -71 -51.5 -117.5t-141.5 -46.5q-85 0 -138.5 47.5t-53.5 116.5q0 71 53 115t139 44q87 0 140 -43.5t53 -115.5z
" />
    <glyph glyph-name="ntilde" unicode="&#xf1;" horiz-adv-x="1282" 
d="M766 0v559q0 95 -28.5 136.5t-92.5 41.5q-55 0 -86 -43t-31 -110v-584h-426v1024h426v-160h4q51 88 137 136.5t187 48.5q336 0 336 -424v-625h-426zM1032 1540q0 -165 -60 -252.5t-173 -87.5q-88 0 -170 49l-62.5 38t-60.5 18q-38 0 -60 -31t-22 -88h-174q0 170 61.5 255
t167.5 85q102 0 189 -58q29 -18 55 -32.5t57 -14.5q34 0 55 29.5t21 89.5h176z" />
    <glyph glyph-name="oacute" unicode="&#xf3;" horiz-adv-x="1298" 
d="M1241 530q0 -259 -156.5 -407t-437.5 -148q-279 0 -434.5 144.5t-155.5 398.5q0 163 73 283t208 184t311 64q182 0 315.5 -67t205 -186t71.5 -266zM809 528q0 209 -160 209t-160 -219q0 -231 162 -231q158 0 158 241zM702 1186h-301l299 321h358z" />
    <glyph glyph-name="ograve" unicode="&#xf2;" horiz-adv-x="1298" 
d="M1241 530q0 -259 -156.5 -407t-437.5 -148q-279 0 -434.5 144.5t-155.5 398.5q0 163 73 283t208 184t311 64q182 0 315.5 -67t205 -186t71.5 -266zM809 528q0 209 -160 209t-160 -219q0 -231 162 -231q158 0 158 241zM597 1186l-356 321h358l299 -321h-301z" />
    <glyph glyph-name="ocircumflex" unicode="&#xf4;" horiz-adv-x="1298" 
d="M1241 530q0 -259 -156.5 -407t-437.5 -148q-279 0 -434.5 144.5t-155.5 398.5q0 163 73 283t208 184t311 64q182 0 315.5 -67t205 -186t71.5 -266zM809 528q0 209 -160 209t-160 -219q0 -231 162 -231q158 0 158 241zM795 1186l-148 153l-147 -153h-262l256 321h317
l256 -321h-272z" />
    <glyph glyph-name="odieresis" unicode="&#xf6;" horiz-adv-x="1298" 
d="M1241 530q0 -259 -156.5 -407t-437.5 -148q-279 0 -434.5 144.5t-155.5 398.5q0 163 73 283t208 184t311 64q182 0 315.5 -67t205 -186t71.5 -266zM809 528q0 209 -160 209t-160 -219q0 -231 162 -231q158 0 158 241zM1091 1339q0 -73 -52 -118.5t-140 -45.5
q-84 0 -138.5 46.5t-54.5 117.5t53 115t140 44t139.5 -44.5t52.5 -114.5zM590 1339q0 -71 -51.5 -117.5t-141.5 -46.5q-85 0 -138.5 47.5t-53.5 116.5q0 71 53 115t139 44q87 0 140 -43.5t53 -115.5z" />
    <glyph glyph-name="otilde" unicode="&#xf5;" horiz-adv-x="1298" 
d="M1241 530q0 -259 -156.5 -407t-437.5 -148q-279 0 -434.5 144.5t-155.5 398.5q0 163 73 283t208 184t311 64q182 0 315.5 -67t205 -186t71.5 -266zM809 528q0 209 -160 209t-160 -219q0 -231 162 -231q158 0 158 241zM1040 1540q0 -165 -60 -252.5t-173 -87.5
q-88 0 -170 49l-62.5 38t-60.5 18q-38 0 -60 -31t-22 -88h-174q0 170 61.5 255t167.5 85q102 0 189 -58q29 -18 55 -32.5t57 -14.5q34 0 55 29.5t21 89.5h176z" />
    <glyph glyph-name="uacute" unicode="&#xfa;" horiz-adv-x="1282" 
d="M754 0v158h-4q-53 -73 -95.5 -107t-96 -55t-124.5 -21q-168 0 -256 109t-88 322v618h426v-586q0 -151 113 -151q62 0 93.5 41t31.5 116v580h426v-1024h-426zM686 1186h-301l299 321h358z" />
    <glyph glyph-name="ugrave" unicode="&#xf9;" horiz-adv-x="1282" 
d="M754 0v158h-4q-53 -73 -95.5 -107t-96 -55t-124.5 -21q-168 0 -256 109t-88 322v618h426v-586q0 -151 113 -151q62 0 93.5 41t31.5 116v580h426v-1024h-426zM583 1186l-356 321h358l299 -321h-301z" />
    <glyph glyph-name="ucircumflex" unicode="&#xfb;" horiz-adv-x="1282" 
d="M754 0v158h-4q-53 -73 -95.5 -107t-96 -55t-124.5 -21q-168 0 -256 109t-88 322v618h426v-586q0 -151 113 -151q62 0 93.5 41t31.5 116v580h426v-1024h-426zM787 1186l-148 153l-147 -153h-262l256 321h317l256 -321h-272z" />
    <glyph glyph-name="udieresis" unicode="&#xfc;" horiz-adv-x="1282" 
d="M754 0v158h-4q-53 -73 -95.5 -107t-96 -55t-124.5 -21q-168 0 -256 109t-88 322v618h426v-586q0 -151 113 -151q62 0 93.5 41t31.5 116v580h426v-1024h-426zM1083 1339q0 -73 -52 -118.5t-140 -45.5q-84 0 -138.5 46.5t-54.5 117.5t53 115t140 44t139.5 -44.5
t52.5 -114.5zM582 1339q0 -71 -51.5 -117.5t-141.5 -46.5q-85 0 -138.5 47.5t-53.5 116.5q0 71 53 115t139 44q87 0 140 -43.5t53 -115.5z" />
    <glyph glyph-name="dagger" unicode="&#x2020;" horiz-adv-x="885" 
d="M575 907v-665h-266v665h-248v228h248v299h266v-299h248v-228h-248z" />
    <glyph glyph-name="degree" unicode="&#xb0;" horiz-adv-x="791" 
d="M700 1184q0 -74 -37.5 -138t-104 -101.5t-140.5 -37.5q-118 0 -200.5 80.5t-82.5 196.5q0 113 81.5 193.5t201.5 80.5q117 0 199.5 -80t82.5 -194zM522 1184q0 46 -30 77t-74 31q-47 0 -78 -31t-31 -77t32 -78.5t77 -32.5q43 0 73.5 32.5t30.5 78.5z" />
    <glyph glyph-name="cent" unicode="&#xa2;" horiz-adv-x="1227" 
d="M1032 205q-48 -27 -147 -41v-195h-238v185q-139 8 -258 79.5t-178 182.5t-59 252q0 151 57 267.5t172.5 192t265.5 91.5v206h238v-206q103 -10 147 -37v-334q-25 23 -98.5 44t-126.5 21q-131 0 -201.5 -58t-70.5 -167q0 -105 67 -165t186 -60q58 0 126 15t118 44v-317z
" />
    <glyph glyph-name="sterling" unicode="&#xa3;" horiz-adv-x="1227" 
d="M166 0v291q95 24 139.5 83.5t44.5 164.5v65h-164v262h164v144q0 209 130.5 328.5t363.5 119.5q117 0 241 -55v-324q-31 26 -92.5 47t-105.5 21q-82 0 -120 -48t-38 -126v-107h246v-262h-246v-33q0 -77 -33 -144.5t-90 -115.5h584v-311h-1024z" />
    <glyph glyph-name="section" unicode="&#xa7;" horiz-adv-x="1063" 
d="M971 713q0 -72 -42 -146t-108 -121q34 -34 55 -79t21 -88q0 -160 -112.5 -252.5t-303.5 -92.5q-80 0 -171 22t-154 56v303q212 -127 352 -127q47 0 73.5 20t26.5 58q0 28 -19.5 47t-66.5 39l-96 41q-115 52 -168.5 96.5t-84 103.5t-30.5 138q0 77 33 132t80 98
q-34 38 -56 90.5t-22 111.5q0 151 106.5 239.5t293.5 88.5q70 0 149 -18t135 -43v-312q-93 66 -157.5 95.5t-126.5 29.5q-99 0 -99 -72q0 -32 33 -58t105 -52l81 -31q150 -58 211.5 -133.5t61.5 -183.5zM694 682q0 38 -18 58t-63 43t-146 63q-51 -34 -51 -86
q0 -55 51.5 -94.5t165.5 -83.5q23 11 42 36.5t19 63.5z" />
    <glyph glyph-name="bullet" unicode="&#x2022;" horiz-adv-x="885" 
d="M739 487q0 -77 -40 -145t-108.5 -107.5t-144.5 -39.5q-118 0 -203 85t-85 207q0 119 83.5 204t204.5 85q124 0 208.5 -86.5t84.5 -202.5z" />
    <glyph glyph-name="paragraph" unicode="&#xb6;" horiz-adv-x="1147" 
d="M948 1225v-1225h-227v1225h-98v-1225h-228v774q-125 14 -204.5 108t-79.5 226q0 141 93.5 233.5t237.5 92.5h615v-209h-109z" />
    <glyph glyph-name="germandbls" unicode="&#xdf;" horiz-adv-x="1417" 
d="M1360 416q0 -126 -69 -230.5t-185 -157.5t-266 -53q-50 0 -99 5.5t-133 27.5v330q88 -51 172 -51q75 0 111.5 40t36.5 109q0 87 -84 134.5t-236 47.5v283q98 0 156.5 41.5t58.5 132.5q0 65 -38.5 109.5t-102.5 44.5q-74 0 -114 -55.5t-40 -149.5v-1024h-426v989
q0 167 70.5 291t206 192t328.5 68q168 0 291.5 -55.5t190 -153.5t66.5 -217q0 -114 -63 -198.5t-172 -118.5v-4q159 -34 249.5 -131t90.5 -246z" />
    <glyph glyph-name="uni00AD" unicode="&#xad;" horiz-adv-x="834" 
d="M143 393v287h547v-287h-547z" />
    <glyph glyph-name="registered" unicode="&#xae;" horiz-adv-x="1755" 
d="M1653 717q0 -206 -103.5 -377t-283 -268t-392.5 -97q-219 0 -396.5 94.5t-276.5 264.5t-99 379q0 207 102 378t281 269t398 98q215 0 392.5 -94.5t277.5 -265t100 -381.5zM1485 713q0 171 -78 309.5t-217 215.5t-311 77t-312.5 -79t-218.5 -217t-78 -304
q0 -169 79 -306.5t220 -213.5t310 -76q165 0 305 77t220.5 214t80.5 303zM979 276l-53 242q-8 38 -27.5 61t-44.5 23h-70v-326h-266v898h365q186 0 284.5 -65.5t98.5 -199.5q0 -170 -197 -229v-4q39 -7 76 -42t49 -75l96 -283h-311zM977 879q0 34 -25.5 58t-85.5 24h-82
v-170h101q42 0 67 23.5t25 64.5z" />
    <glyph glyph-name="copyright" unicode="&#xa9;" horiz-adv-x="1755" 
d="M1653 719q0 -206 -102 -376.5t-282 -269t-395 -98.5q-219 0 -396.5 94.5t-276.5 264.5t-99 379q0 207 102 378t281 269t398 98q217 0 394 -94.5t276.5 -265t99.5 -379.5zM1485 715q0 170 -77 307.5t-216 215t-313 77.5q-172 0 -312.5 -79t-218.5 -217t-78 -304
q0 -169 79 -306.5t220 -213.5t310 -76q164 0 304 77.5t221 215t81 303.5zM1186 324q-128 -66 -273 -66q-135 0 -244.5 57t-171 158.5t-61.5 224.5q0 216 141 348t369 132q120 0 240 -58v-284q-42 31 -103.5 52t-130.5 21q-89 0 -148 -56t-59 -144q0 -82 62.5 -135.5
t150.5 -53.5q133 0 228 72v-268z" />
    <glyph glyph-name="trademark" unicode="&#x2122;" horiz-adv-x="1577" 
d="M1210 772v434h-6l-106 -434h-207l-90 438h-6v-438h-181v662h291l94 -435h5l118 435h264v-662h-176zM403 1296v-524h-182v524h-149v138h489v-138h-158z" />
    <glyph glyph-name="acute" unicode="&#xb4;" horiz-adv-x="633" 
d="M285 1186h-301l299 321h358z" />
    <glyph glyph-name="dieresis" unicode="&#xa8;" horiz-adv-x="1024" 
d="M954 1339q0 -73 -52 -118.5t-140 -45.5q-84 0 -138.5 46.5t-54.5 117.5t53 115t140 44t139.5 -44.5t52.5 -114.5zM453 1339q0 -71 -51.5 -117.5t-141.5 -46.5q-85 0 -138.5 47.5t-53.5 116.5q0 71 53 115t139 44q87 0 140 -43.5t53 -115.5z" />
    <glyph glyph-name="notequal" unicode="&#x2260;" horiz-adv-x="1464" 
d="M709 236l-125 -236h-316l125 236h-155v247h286l97 183h-383v247h514l143 275h315l-143 -275h162v-247h-293l-96 -183h389v-247h-520z" />
    <glyph glyph-name="AE" unicode="&#xc6;" horiz-adv-x="2030" 
d="M1040 0v264h-432l-119 -264h-501l747 1434h1198v-338h-460v-209h432v-338h-432v-211h493v-338h-926zM1040 1096h-55l-240 -525h295v525z" />
    <glyph glyph-name="Oslash" unicode="&#xd8;" horiz-adv-x="1567" 
d="M1505 721q0 -216 -93 -386.5t-260 -265t-374 -94.5q-228 0 -409 117l-146 -164l-160 133l150 172q-152 193 -152 465q0 219 93 394t261 270.5t382 95.5q230 0 401 -112l127 143l162 -133l-133 -152q151 -195 151 -483zM1094 707q0 86 -11 194l-481 -547q82 -61 186 -61
q84 0 155 51.5t111 144t40 218.5zM969 1083q-79 58 -174 58q-150 0 -236 -119.5t-86 -319.5q0 -97 10 -165z" />
    <glyph glyph-name="infinity" unicode="&#x221e;" horiz-adv-x="1655" 
d="M1599 569q0 -107 -51.5 -200t-141 -146t-196.5 -53q-127 0 -218.5 61.5t-160.5 180.5q-66 -101 -168 -162.5t-212 -61.5q-171 0 -279.5 113.5t-108.5 300.5q0 107 51.5 199.5t141.5 146t197 53.5q127 0 217.5 -61t158.5 -180q66 101 170 162t213 61q172 0 279.5 -114
t107.5 -300zM1303 573q0 65 -41.5 104.5t-108.5 39.5q-105 0 -186 -142q57 -85 98 -113t92 -28q58 0 102 40.5t44 98.5zM696 596q-43 64 -68 89t-54.5 38.5t-67.5 13.5q-61 0 -103.5 -41.5t-42.5 -97.5q0 -64 42.5 -103.5t107.5 -39.5q104 0 186 141z" />
    <glyph glyph-name="plusminus" unicode="&#xb1;" horiz-adv-x="1464" 
d="M856 725v-373h-248v373h-364v248h364v383h248v-383h375v-248h-375zM238 0v248h985v-248h-985z" />
    <glyph glyph-name="lessequal" unicode="&#x2264;" horiz-adv-x="1464" 
d="M238 643v258l991 356v-292l-703 -195v-4l703 -195v-292zM238 0v248h991v-248h-991z" />
    <glyph glyph-name="greaterequal" unicode="&#x2265;" horiz-adv-x="1464" 
d="M238 279v292l700 195v4l-700 195v292l991 -356v-258zM238 0v248h991v-248h-991z" />
    <glyph glyph-name="yen" unicode="&#xa5;" horiz-adv-x="1227" 
d="M877 793h243v-209h-293v-123h293v-213h-293v-248h-409v248h-301v213h301v123h-301v209h245l-344 641h406l192 -478l25 -59h4l25 59l182 478h385z" />
    <glyph glyph-name="uni00B5" unicode="&#xb5;" horiz-adv-x="1294" 
d="M772 0l2 137h-4q-18 -59 -68 -103t-102 -44q-48 0 -76 14h-4l4 -305h-422v1325h426v-539q0 -186 107 -186q45 0 79.5 23t51.5 65v637h426v-1024h-420z" />
    <glyph glyph-name="partialdiff" unicode="&#x2202;" horiz-adv-x="1247" 
d="M1227 907q0 -289 -88.5 -504t-249.5 -321.5t-383 -106.5q-220 0 -338.5 112.5t-118.5 322.5q0 156 69 297t183.5 213.5t257.5 72.5q175 0 264 -131h4l2 22v21q0 156 -58 228.5t-179 72.5q-66 0 -141.5 -17t-143.5 -48l80 311q159 57 307 57q265 0 399 -148t134 -454z
M762 608q-11 54 -38.5 83.5t-68.5 29.5q-49 0 -91 -44.5t-68.5 -117t-26.5 -137.5q0 -71 27 -103t69 -32q65 0 118 87.5t79 233.5z" />
    <glyph glyph-name="summation" unicode="&#x2211;" horiz-adv-x="1358" 
d="M49 -471v240l559 723l-536 690v252h1220v-338h-618l428 -594l-455 -635h680v-338h-1278z" />
    <glyph glyph-name="product" unicode="&#x220f;" horiz-adv-x="1681" 
d="M1130 -471v1536h-557v-1536h-432v1905h1422v-1905h-433z" />
    <glyph glyph-name="integral" unicode="&#x222b;" horiz-adv-x="1227" 
d="M1090 1206q-66 23 -123 23q-72 0 -106 -36.5t-34 -98.5v-1168q0 -125 -58 -220.5t-168.5 -148.5t-268.5 -53q-40 0 -98 6.5t-95 16.5v311q63 -22 123 -22q71 0 105 36.5t34 98.5v1167q0 125 58 220.5t168.5 148.5t269.5 53q114 0 193 -22v-312z" />
    <glyph glyph-name="ordfeminine" unicode="&#xaa;" horiz-adv-x="852" 
d="M498 717v88h-4q-58 -66 -104.5 -87.5t-113.5 -21.5q-92 0 -154.5 62.5t-62.5 156.5q0 115 69 174.5t210 77.5l160 21q0 45 -34 63.5t-102 18.5q-39 0 -108.5 -22t-128.5 -50v203q64 24 144.5 38.5t158.5 14.5q132 0 203.5 -32t106 -103t34.5 -191v-411h-274zM336 961
q0 -32 22.5 -51t53.5 -19q35 0 60.5 28.5t25.5 63.5v59l-76 -8q-34 -3 -60 -21t-26 -52z" />
    <glyph glyph-name="ordmasculine" unicode="&#xba;" horiz-adv-x="950" 
d="M893 1087q0 -183 -110.5 -287t-309.5 -104q-196 0 -306 102t-110 281q0 174 112 274.5t306 100.5q131 0 225 -48t143.5 -131.5t49.5 -187.5zM586 1083q0 73 -30 113.5t-81 40.5q-113 0 -113 -158q0 -164 113 -164q54 0 82.5 43.5t28.5 124.5z" />
    <glyph glyph-name="uni2126" unicode="&#x2126;" horiz-adv-x="1587" 
d="M858 0v338q113 113 157 217t44 233q0 132 -72 217t-182 85q-77 0 -139 -38t-98 -110.5t-36 -173.5q0 -79 21.5 -148.5t58.5 -132.5t115 -149v-338h-657v338h336q-166 89 -249 223.5t-83 304.5t93.5 306t260.5 211t367 75q210 0 371.5 -73.5t256.5 -211.5t95 -299
q0 -184 -89 -315.5t-262 -220.5h349v-338h-658z" />
    <glyph glyph-name="ae" unicode="&#xe6;" horiz-adv-x="1716" 
d="M1038 391q31 -141 250 -141q149 0 285 59v-270q-163 -64 -395 -64q-133 0 -242.5 41t-171.5 111h-4q-143 -152 -344 -152q-181 0 -276 84.5t-95 237.5q0 146 96 235.5t271 106.5l258 25q0 59 -45 91.5t-123 32.5q-81 0 -177 -25.5t-184 -72.5v277q95 36 207 59t187 23
q206 0 342 -93h4q149 93 307 93q220 0 351.5 -136.5t131.5 -367.5v-154h-633zM1294 614q0 177 -127 177q-53 0 -91 -52t-38 -125h256zM668 459l-138 -10q-55 -5 -84.5 -33.5t-29.5 -69.5q0 -40 30 -67t76 -27q65 0 105.5 49t40.5 123v35z" />
    <glyph glyph-name="oslash" unicode="&#xf8;" horiz-adv-x="1298" 
d="M1116 862q125 -148 125 -338q0 -256 -153.5 -401.5t-440.5 -145.5q-198 0 -338 78l-133 -135l-143 125l133 135q-109 144 -109 340q0 163 73 283t208 184t311 64q182 0 318 -70l125 125l143 -125zM750 762q-48 20 -99 20q-105 0 -152.5 -66.5t-47.5 -193.5v-29l2 -26z
M850 528v33l-2 33l-318 -320q49 -28 121 -28q97 0 148 71.5t51 210.5z" />
    <glyph glyph-name="questiondown" unicode="&#xbf;" horiz-adv-x="866" 
d="M721 846q0 -88 -64.5 -142.5t-173.5 -54.5q-106 0 -171.5 54.5t-65.5 142.5q0 89 64.5 146t172.5 57q106 0 172 -58.5t66 -144.5zM858 -362q-65 -37 -176.5 -64t-198.5 -27q-245 0 -374 96.5t-129 280.5q0 222 215 391q73 58 103 102t30 109v35h336v-88q0 -90 -28 -160.5
t-93 -126.5q-91 -77 -109.5 -98.5t-26.5 -43t-8 -50.5q0 -40 33.5 -66t87.5 -26q156 0 338 129v-393z" />
    <glyph glyph-name="uni00A0" unicode="&#xa0;" horiz-adv-x="561" 
 />
    <glyph glyph-name="exclamdown" unicode="&#xa1;" horiz-adv-x="750" 
d="M612 846q0 -88 -64.5 -142.5t-172.5 -54.5t-173 55.5t-65 141.5q0 89 64.5 146t173.5 57q105 0 171 -58.5t66 -144.5zM154 -410l53 951h342l53 -951h-448z" />
    <glyph glyph-name="logicalnot" unicode="&#xac;" horiz-adv-x="1464" 
d="M981 236v342h-743v247h991v-589h-248z" />
    <glyph glyph-name="radical" unicode="&#x221a;" horiz-adv-x="1331" 
d="M838 -2h-263l-319 711h-188v206h409l221 -505l306 1106h249z" />
    <glyph glyph-name="florin" unicode="&#x192;" horiz-adv-x="1178" 
d="M1044 1174q-64 30 -133 30q-124 0 -147 -137l-23 -137h158v-215h-192l-91 -594q-30 -196 -140 -311t-277 -115q-50 0 -121 20v242q39 -20 92 -20q123 0 154 202l88 576h-105v215h142l22 149q25 167 135 267t279 100q82 0 159 -23v-249z" />
    <glyph glyph-name="approxequal" unicode="&#x2248;" horiz-adv-x="1464" 
d="M1270 1012q-6 -178 -94 -283.5t-230 -105.5q-78 0 -137 20t-136 65q-76 44 -116 44q-47 0 -78 -35.5t-37 -104.5h-247q5 179 92.5 283t238.5 104q115 0 224 -61l86 -47t77 -21q48 0 77.5 41t31.5 101h248zM1270 539q-6 -175 -93 -281t-231 -106q-78 0 -137 20t-136 65
q-76 44 -116 44q-48 0 -78.5 -36t-36.5 -106h-247q5 181 93 285t238 104q115 0 224 -61l86 -47t77 -21q47 0 77 40t32 100h248z" />
    <glyph glyph-name="Delta" unicode="&#x394;" horiz-adv-x="1614" 
d="M74 0v164l477 1270h536l453 -1270v-164h-1466zM811 1106h-10q-2 -12 -7.5 -50t-21.5 -87l-207 -631h473l-200 623q-21 60 -25 124z" />
    <glyph glyph-name="guillemotleft" unicode="&#xab;" horiz-adv-x="1294" 
d="M926 201l-346 336l346 344h334l-351 -344l353 -336h-336zM379 201l-346 336l346 344h334l-351 -344l353 -336h-336z" />
    <glyph glyph-name="guillemotright" unicode="&#xbb;" horiz-adv-x="1294" 
d="M915 201h-335l352 336l-350 344h333l347 -344zM369 201h-336l352 336l-350 344h334l346 -344z" />
    <glyph glyph-name="ellipsis" unicode="&#x2026;" horiz-adv-x="2142" 
d="M2021 178q0 -91 -64 -147t-177 -56q-103 0 -168.5 58.5t-65.5 144.5q0 88 64.5 142.5t173.5 54.5q106 0 171.5 -54.5t65.5 -142.5zM1309 178q0 -91 -64 -147t-178 -56q-103 0 -168 59t-65 144q0 88 64.5 142.5t172.5 54.5q105 0 171.5 -54t66.5 -143zM596 178
q0 -91 -64 -147t-178 -56q-103 0 -168 59t-65 144q0 88 64.5 142.5t172.5 54.5q107 0 172.5 -54.5t65.5 -142.5z" />
    <glyph glyph-name="Agrave" unicode="&#xc0;" horiz-adv-x="1536" 
d="M1040 0l-63 264h-428l-68 -264h-467l494 1434h536l465 -1434h-469zM768 1122h-10q-2 -24 -14 -79t-121 -472h274l-100 390q-21 86 -29 161zM716 1567l-356 321h358l299 -321h-301z" />
    <glyph glyph-name="Atilde" unicode="&#xc3;" horiz-adv-x="1536" 
d="M1040 0l-63 264h-428l-68 -264h-467l494 1434h536l465 -1434h-469zM768 1122h-10q-2 -24 -14 -79t-121 -472h274l-100 390q-21 86 -29 161zM1159 1921q0 -165 -60 -252.5t-173 -87.5q-88 0 -170 49l-62.5 38t-60.5 18q-38 0 -60 -31t-22 -88h-174q0 170 61.5 255
t167.5 85q102 0 189 -58q29 -18 55 -32.5t57 -14.5q34 0 55 29.5t21 89.5h176z" />
    <glyph glyph-name="Otilde" unicode="&#xd5;" horiz-adv-x="1567" 
d="M1505 721q0 -216 -93 -386.5t-260 -265t-374 -94.5q-202 0 -367.5 91.5t-257.5 257t-92 374.5q0 219 93 394t261 270.5t382 95.5q206 0 368.5 -91.5t251 -261t88.5 -384.5zM1047 709q0 177 -68 279t-186 102q-129 0 -201 -98t-72 -277q0 -175 71.5 -273t194.5 -98
q75 0 135 44t93 126t33 195zM1179 1921q0 -165 -60 -252.5t-173 -87.5q-88 0 -170 49l-62.5 38t-60.5 18q-38 0 -60 -31t-22 -88h-174q0 170 61.5 255t167.5 85q102 0 189 -58q29 -18 55 -32.5t57 -14.5q34 0 55 29.5t21 89.5h176z" />
    <glyph glyph-name="OE" unicode="&#x152;" horiz-adv-x="1954" 
d="M979 0q-84 -25 -221 -25q-202 0 -361 93t-247.5 261t-88.5 369q0 222 89.5 396t253 269t372.5 95q62 0 126 -7t97 -17h859v-338h-461v-209h432v-338h-432v-211h493v-338h-911zM946 1022q-65 68 -153 68q-130 0 -201.5 -99.5t-71.5 -285.5q0 -170 70.5 -265.5t195.5 -95.5
q94 0 160 66v612z" />
    <glyph glyph-name="oe" unicode="&#x153;" horiz-adv-x="1898" 
d="M1221 391q11 -67 75.5 -104t171.5 -37q73 0 150 16t133 41v-270q-70 -28 -163 -45t-173 -17q-235 0 -401 166h-4q-63 -74 -167.5 -119t-240.5 -45q-156 0 -280.5 65t-194.5 188t-70 290q0 160 68.5 280.5t192 185.5t278.5 65q117 0 220 -37t173 -107h4q64 70 161.5 106
t215.5 36q151 0 260 -63t166 -177t57 -258v-160h-632zM1477 614q0 177 -127 177q-54 0 -89.5 -49.5t-41.5 -127.5h258zM809 526q0 98 -41 155.5t-117 57.5q-162 0 -162 -219q0 -231 162 -231q158 0 158 237z" />
    <glyph glyph-name="endash" unicode="&#x2013;" horiz-adv-x="1024" 
d="M0 393v287h1024v-287h-1024z" />
    <glyph glyph-name="emdash" unicode="&#x2014;" horiz-adv-x="2048" 
d="M0 393v287h2048v-287h-2048z" />
    <glyph glyph-name="quotedblleft" unicode="&#x201c;" horiz-adv-x="1188" 
d="M950 1024h-368l239 444h250zM457 1024h-369l240 444h250z" />
    <glyph glyph-name="quotedblright" unicode="&#x201d;" horiz-adv-x="1188" 
d="M858 1024h-248l123 444h367zM365 1024h-248l123 444h366z" />
    <glyph glyph-name="quoteleft" unicode="&#x2018;" horiz-adv-x="694" 
d="M457 1024h-369l240 444h250z" />
    <glyph glyph-name="quoteright" unicode="&#x2019;" horiz-adv-x="694" 
d="M365 1024h-248l123 444h366z" />
    <glyph glyph-name="divide" unicode="&#xf7;" horiz-adv-x="1464" 
d="M893 983q0 -69 -45 -114.5t-113 -45.5q-67 0 -115.5 47.5t-48.5 110.5q0 68 46.5 117t117.5 49q70 0 114 -46.5t44 -117.5zM238 455v247h991v-247h-991zM893 170q0 -69 -45 -114.5t-113 -45.5q-67 0 -115.5 47.5t-48.5 110.5q0 69 46 116.5t118 47.5q68 0 113 -44.5
t45 -117.5z" />
    <glyph glyph-name="lozenge" unicode="&#x25ca;" horiz-adv-x="1203" 
d="M1128 717l-473 -717h-114l-469 715l469 719h114zM899 717l-299 471l-299 -471l299 -471z" />
    <glyph glyph-name="ydieresis" unicode="&#xff;" horiz-adv-x="1176" 
d="M301 -481q-60 0 -129 10.5t-123 30.5v321q25 -19 74.5 -35t93.5 -16q119 0 158 94l33 80l-428 1020h471l124 -494q36 -138 39 -186h4q3 22 8.5 49t155.5 631h414l-377 -1053q-85 -242 -210.5 -347t-307.5 -105zM1040 1339q0 -73 -52 -118.5t-140 -45.5q-84 0 -138.5 46.5
t-54.5 117.5t53 115t140 44t139.5 -44.5t52.5 -114.5zM539 1339q0 -71 -51.5 -117.5t-141.5 -46.5q-85 0 -138.5 47.5t-53.5 116.5q0 71 53 115t139 44q87 0 140 -43.5t53 -115.5z" />
    <glyph glyph-name="Ydieresis" unicode="&#x178;" horiz-adv-x="1331" 
d="M874 498v-498h-432v492l-442 942h496l155 -451q16 -46 22.5 -80t14.5 -69h4q13 91 29 141l153 459h457zM1107 1720q0 -73 -52 -118.5t-140 -45.5q-84 0 -138.5 46.5t-54.5 117.5t53 115t140 44t139.5 -44.5t52.5 -114.5zM606 1720q0 -71 -51.5 -117.5t-141.5 -46.5
q-85 0 -138.5 47.5t-53.5 116.5q0 71 53 115t139 44q87 0 140 -43.5t53 -115.5z" />
    <glyph glyph-name="fraction" unicode="&#x2044;" horiz-adv-x="999" 
d="M197 0h-316l922 1434h315z" />
    <glyph glyph-name="fraction" unicode="&#x2215;" horiz-adv-x="999" 
d="M197 0h-316l922 1434h315z" />
    <glyph glyph-name="Euro" unicode="&#x20ac;" horiz-adv-x="1227" 
d="M1145 41q-46 -31 -138.5 -49.5t-187.5 -18.5q-226 0 -377 119t-202 340h-136v213h101l-2 55v34l2 34h-101v209h132q53 231 214 356t408 125q78 0 160 -15.5t127 -39.5v-322q-114 95 -248 95q-108 0 -180 -51.5t-103 -147.5h381v-209h-417l-3 -66l3 -57h417v-213h-374
q34 -85 100 -131.5t162 -46.5q142 0 262 94v-307z" />
    <glyph glyph-name="guilsinglleft" unicode="&#x2039;" horiz-adv-x="750" 
d="M381 201l-348 336l348 344h334l-350 -344l352 -336h-336z" />
    <glyph glyph-name="guilsinglright" unicode="&#x203a;" horiz-adv-x="750" 
d="M369 201h-336l352 336l-350 344h334l348 -344z" />
    <glyph glyph-name="uniFB01" unicode="&#xfb01;" horiz-adv-x="1513" 
d="M1436 1300q0 -90 -65.5 -146t-172.5 -56q-104 0 -170.5 58t-66.5 144q0 88 64.5 142.5t172.5 54.5q105 0 171.5 -54t66.5 -143zM985 0v1024h426v-1024h-426zM891 1206q-66 23 -123 23q-71 0 -105 -36.5t-34 -98.5v-70h237v-295h-237v-729h-426v729h-172v295h172v94
q0 125 58 220.5t168.5 148.5t268.5 53q114 0 193 -22v-312z" />
    <glyph glyph-name="uniFB02" unicode="&#xfb02;" horiz-adv-x="1513" 
d="M985 0v1516h426v-1516h-426zM891 1206q-66 23 -123 23q-71 0 -105 -36.5t-34 -98.5v-70h237v-295h-237v-729h-426v729h-172v295h172v94q0 125 58 220.5t168.5 148.5t268.5 53q114 0 193 -22v-312z" />
    <glyph glyph-name="daggerdbl" unicode="&#x2021;" horiz-adv-x="885" 
d="M575 543v-301h-266v301h-248v221h248v160h-248v227h248v283h266v-283h248v-227h-248v-160h248v-221h-248z" />
    <glyph glyph-name="periodcentered" unicode="&#xb7;" horiz-adv-x="655" 
d="M565 713q0 -91 -64 -147t-177 -56q-102 0 -168 58t-66 145q0 89 65.5 142.5t172.5 53.5q105 0 171 -53.5t66 -142.5z" />
    <glyph glyph-name="quotesinglbase" unicode="&#x201a;" horiz-adv-x="694" 
d="M336 -225h-248l123 444h367z" />
    <glyph glyph-name="quotedblbase" unicode="&#x201e;" horiz-adv-x="1188" 
d="M829 -225h-247l123 444h366zM336 -225h-248l123 444h367z" />
    <glyph glyph-name="perthousand" unicode="&#x2030;" horiz-adv-x="2642" 
d="M2540 367q0 -175 -103 -281t-278 -106q-162 0 -259.5 99t-97.5 261q0 178 104 282.5t277 104.5q166 0 261.5 -95t95.5 -265zM1737 367q0 -175 -103 -281t-278 -106q-162 0 -259.5 99t-97.5 261q0 178 104 282.5t277 104.5q166 0 261.5 -95t95.5 -265zM618 0h-315
l922 1434h315zM838 1092q0 -178 -103.5 -282.5t-275.5 -104.5q-162 0 -259.5 99t-97.5 261q0 176 101.5 282.5t277.5 106.5q166 0 261.5 -97t95.5 -265zM2277 354q0 71 -27 111.5t-73 40.5q-53 0 -81 -43.5t-28 -114.5q0 -70 26 -108.5t77 -38.5q52 0 79 40.5t27 112.5z
M1475 354q0 71 -27 111.5t-74 40.5q-52 0 -80 -42.5t-28 -115.5q0 -69 25.5 -108t76.5 -39q52 0 79.5 40t27.5 113zM575 1081q0 69 -25.5 109.5t-72.5 40.5q-52 0 -80 -42.5t-28 -115.5q0 -69 25.5 -108t76.5 -39q50 0 77 40t27 115z" />
    <glyph glyph-name="Acircumflex" unicode="&#xc2;" horiz-adv-x="1536" 
d="M1040 0l-63 264h-428l-68 -264h-467l494 1434h536l465 -1434h-469zM768 1122h-10q-2 -24 -14 -79t-121 -472h274l-100 390q-21 86 -29 161zM914 1567l-148 153l-147 -153h-262l256 321h317l256 -321h-272z" />
    <glyph glyph-name="Ecircumflex" unicode="&#xca;" horiz-adv-x="1130" 
d="M141 0v1434h893v-338h-461v-209h433v-338h-433v-211h494v-338h-926zM726 1567l-148 153l-147 -153h-262l256 321h317l256 -321h-272z" />
    <glyph glyph-name="Aacute" unicode="&#xc1;" horiz-adv-x="1536" 
d="M1040 0l-63 264h-428l-68 -264h-467l494 1434h536l465 -1434h-469zM768 1122h-10q-2 -24 -14 -79t-121 -472h274l-100 390q-21 86 -29 161zM821 1567h-301l299 321h358z" />
    <glyph glyph-name="Edieresis" unicode="&#xcb;" horiz-adv-x="1130" 
d="M141 0v1434h893v-338h-461v-209h433v-338h-433v-211h494v-338h-926zM1028 1720q0 -73 -52 -118.5t-140 -45.5q-84 0 -138.5 46.5t-54.5 117.5t53 115t140 44t139.5 -44.5t52.5 -114.5zM527 1720q0 -71 -51.5 -117.5t-141.5 -46.5q-85 0 -138.5 47.5t-53.5 116.5
q0 71 53 115t139 44q87 0 140 -43.5t53 -115.5z" />
    <glyph glyph-name="Egrave" unicode="&#xc8;" horiz-adv-x="1130" 
d="M141 0v1434h893v-338h-461v-209h433v-338h-433v-211h494v-338h-926zM537 1567l-356 321h358l299 -321h-301z" />
    <glyph glyph-name="Iacute" unicode="&#xcd;" horiz-adv-x="714" 
d="M141 0v1434h432v-1434h-432zM441 1567h-301l299 321h358z" />
    <glyph glyph-name="Icircumflex" unicode="&#xce;" horiz-adv-x="772" 
d="M141 0v1434h432v-1434h-432zM532 1567l-148 153l-147 -153h-262l256 321h317l256 -321h-272z" />
    <glyph glyph-name="Idieresis" unicode="&#xcf;" horiz-adv-x="772" 
d="M141 0v1434h432v-1434h-432zM832 1720q0 -73 -52 -118.5t-140 -45.5q-84 0 -138.5 46.5t-54.5 117.5t53 115t140 44t139.5 -44.5t52.5 -114.5zM331 1720q0 -71 -51.5 -117.5t-141.5 -46.5q-85 0 -138.5 47.5t-53.5 116.5q0 71 53 115t139 44q87 0 140 -43.5t53 -115.5z
" />
    <glyph glyph-name="Igrave" unicode="&#xcc;" horiz-adv-x="714" 
d="M141 0v1434h432v-1434h-432zM337 1567l-356 321h358l299 -321h-301z" />
    <glyph glyph-name="Oacute" unicode="&#xd3;" horiz-adv-x="1567" 
d="M1505 721q0 -216 -93 -386.5t-260 -265t-374 -94.5q-202 0 -367.5 91.5t-257.5 257t-92 374.5q0 219 93 394t261 270.5t382 95.5q206 0 368.5 -91.5t251 -261t88.5 -384.5zM1047 709q0 177 -68 279t-186 102q-129 0 -201 -98t-72 -277q0 -175 71.5 -273t194.5 -98
q75 0 135 44t93 126t33 195zM830 1567h-301l299 321h358z" />
    <glyph glyph-name="Ocircumflex" unicode="&#xd4;" horiz-adv-x="1567" 
d="M1505 721q0 -216 -93 -386.5t-260 -265t-374 -94.5q-202 0 -367.5 91.5t-257.5 257t-92 374.5q0 219 93 394t261 270.5t382 95.5q206 0 368.5 -91.5t251 -261t88.5 -384.5zM1047 709q0 177 -68 279t-186 102q-129 0 -201 -98t-72 -277q0 -175 71.5 -273t194.5 -98
q75 0 135 44t93 126t33 195zM930 1567l-148 153l-147 -153h-262l256 321h317l256 -321h-272z" />
    <glyph glyph-name="Ograve" unicode="&#xd2;" horiz-adv-x="1567" 
d="M1505 721q0 -216 -93 -386.5t-260 -265t-374 -94.5q-202 0 -367.5 91.5t-257.5 257t-92 374.5q0 219 93 394t261 270.5t382 95.5q206 0 368.5 -91.5t251 -261t88.5 -384.5zM1047 709q0 177 -68 279t-186 102q-129 0 -201 -98t-72 -277q0 -175 71.5 -273t194.5 -98
q75 0 135 44t93 126t33 195zM727 1567l-356 321h358l299 -321h-301z" />
    <glyph glyph-name="Uacute" unicode="&#xda;" horiz-adv-x="1516" 
d="M1391 655q0 -345 -157.5 -512.5t-485.5 -167.5q-306 0 -464.5 167.5t-158.5 504.5v787h434v-803q0 -138 51.5 -212.5t147.5 -74.5q97 0 147.5 70t50.5 207v813h435v-779zM811 1567h-301l299 321h358z" />
    <glyph glyph-name="Ucircumflex" unicode="&#xdb;" horiz-adv-x="1516" 
d="M1391 655q0 -345 -157.5 -512.5t-485.5 -167.5q-306 0 -464.5 167.5t-158.5 504.5v787h434v-803q0 -138 51.5 -212.5t147.5 -74.5q97 0 147.5 70t50.5 207v813h435v-779zM901 1567l-148 153l-147 -153h-262l256 321h317l256 -321h-272z" />
    <glyph glyph-name="Ugrave" unicode="&#xd9;" horiz-adv-x="1516" 
d="M1391 655q0 -345 -157.5 -512.5t-485.5 -167.5q-306 0 -464.5 167.5t-158.5 504.5v787h434v-803q0 -138 51.5 -212.5t147.5 -74.5q97 0 147.5 70t50.5 207v813h435v-779zM706 1567l-356 321h358l299 -321h-301z" />
    <glyph glyph-name="dotlessi" unicode="&#x131;" horiz-adv-x="631" 
d="M102 0v1024h426v-1024h-426z" />
    <glyph glyph-name="circumflex" unicode="&#x2c6;" horiz-adv-x="785" 
d="M539 1186l-148 153l-147 -153h-262l256 321h317l256 -321h-272z" />
    <glyph glyph-name="tilde" unicode="&#x2dc;" horiz-adv-x="785" 
d="M784 1540q0 -165 -60 -252.5t-173 -87.5q-88 0 -170 49l-62.5 38t-60.5 18q-38 0 -60 -31t-22 -88h-174q0 170 61.5 255t167.5 85q102 0 189 -58q29 -18 55 -32.5t57 -14.5q34 0 55 29.5t21 89.5h176z" />
    <glyph glyph-name="uni02C9" unicode="&#x2c9;" horiz-adv-x="690" 
d="M16 1187v223h655v-223h-655z" />
    <glyph glyph-name="breve" unicode="&#x2d8;" horiz-adv-x="709" 
d="M743 1532q-16 -167 -117 -256.5t-276 -89.5q-112 0 -199 44t-136 124t-50 178h240q10 -55 49 -87t102 -32q62 0 100 32t48 87h239z" />
    <glyph glyph-name="dotaccent" unicode="&#x2d9;" horiz-adv-x="518" 
d="M489 1350q0 -73 -53 -118.5t-139 -45.5q-84 0 -138.5 47t-54.5 117q0 72 53.5 115.5t139.5 43.5q87 0 139.5 -43.5t52.5 -115.5z" />
    <glyph glyph-name="ring" unicode="&#x2da;" horiz-adv-x="555" 
d="M541 1421q0 -106 -75.5 -170.5t-195.5 -64.5q-115 0 -189.5 65.5t-74.5 169.5q0 72 34.5 124.5t95.5 81t134 28.5q124 0 197.5 -64.5t73.5 -169.5zM367 1421q0 32 -23.5 56t-73.5 24q-45 0 -67.5 -23t-22.5 -57t25.5 -57t64.5 -23q42 0 69.5 22.5t27.5 57.5z" />
    <glyph glyph-name="cedilla" unicode="&#xb8;" horiz-adv-x="457" 
d="M514 -244q0 -111 -90.5 -170t-257.5 -59q-53 0 -115 6v172q37 -8 82 -8q57 0 86 16.5t29 42.5q0 31 -23.5 45.5t-79.5 14.5h-18l-21 -2v186h213v-66q195 -14 195 -178z" />
    <glyph glyph-name="hungarumlaut" unicode="&#x2dd;" horiz-adv-x="832" 
d="M777 1186h-303l217 323h346zM291 1186h-303l217 323h346z" />
    <glyph glyph-name="ogonek" unicode="&#x2db;" horiz-adv-x="545" 
d="M375 0q-24 -38 -42 -85.5t-18 -85.5q0 -37 20 -56t53 -19q56 0 118 28v-154q-34 -19 -86.5 -31.5t-93.5 -12.5q-116 0 -174 54.5t-58 148.5q0 58 27.5 113.5t76.5 99.5h177z" />
    <glyph glyph-name="caron" unicode="&#x2c7;" horiz-adv-x="785" 
d="M811 1507l-256 -321h-317l-256 321h262l147 -153l148 153h272z" />
    <glyph glyph-name="Lslash" unicode="&#x141;" horiz-adv-x="1108" 
d="M141 0v406l-153 -66v338l153 65v691h432v-506l261 110v-338l-261 -110v-252h494v-338h-926z" />
    <glyph glyph-name="lslash" unicode="&#x142;" horiz-adv-x="692" 
d="M559 651v-651h-426v399l-98 -57v322l98 57v795h426v-543l103 59v-321z" />
    <glyph glyph-name="Scaron" unicode="&#x160;" horiz-adv-x="1171" 
d="M1137 434q0 -143 -76.5 -249t-214.5 -158t-332 -52q-225 0 -412 76v393q90 -66 199 -106.5t203 -40.5q71 0 110 25.5t39 74.5q0 35 -19.5 61.5t-59 49.5t-146.5 63q-346 133 -346 430q0 208 158 332.5t424 124.5q75 0 138 -6t114.5 -15t144.5 -34v-365q-181 99 -356 99
q-72 0 -116 -27t-44 -74q0 -45 35.5 -74.5t148.5 -76.5q223 -90 315.5 -197t92.5 -254zM1011 1857l-256 -321h-317l-256 321h262l147 -153l148 153h272z" />
    <glyph glyph-name="scaron" unicode="&#x161;" horiz-adv-x="989" 
d="M934 340q0 -174 -132.5 -269.5t-369.5 -95.5q-69 0 -170.5 14t-165.5 34v299q189 -84 316 -84q125 0 125 65q0 27 -29 44.5t-152 58.5q-136 43 -198 114t-62 185q0 159 126.5 251.5t355.5 92.5q134 0 284 -39v-287q-63 27 -138 45t-126 18q-42 0 -67 -14t-25 -39
q0 -29 27 -47t108 -43q157 -46 225 -118t68 -185zM915 1507l-256 -321h-317l-256 321h262l147 -153l148 153h272z" />
    <glyph glyph-name="Zcaron" unicode="&#x17d;" horiz-adv-x="1313" 
d="M616 338h648v-338h-1203v303l662 793h-621v338h1141v-301zM1082 1854l-256 -321h-317l-256 321h262l147 -153l148 153h272z" />
    <glyph glyph-name="zcaron" unicode="&#x17e;" horiz-adv-x="1042" 
d="M584 295h422v-295h-981v197l460 532h-417v295h929v-242zM947 1507l-256 -321h-317l-256 321h262l147 -153l148 153h272z" />
    <glyph glyph-name="brokenbar" unicode="&#xa6;" horiz-adv-x="815" 
d="M244 657v910h327v-910h-327zM244 -481v934h327v-934h-327z" />
    <glyph glyph-name="Eth" unicode="&#xd0;" horiz-adv-x="1554" 
d="M1493 735q0 -218 -91.5 -385.5t-261.5 -258.5t-392 -91h-607v549h-166v338h166v547h594q758 0 758 -699zM1034 731q0 105 -42.5 189t-121.5 130t-186 46h-111v-209h240v-338h-240v-211h121q155 0 247.5 106.5t92.5 286.5z" />
    <glyph glyph-name="eth" unicode="&#xf0;" horiz-adv-x="1278" 
d="M1221 590q0 -180 -74.5 -321t-209 -217.5t-306.5 -76.5q-270 0 -422 146.5t-152 406.5q0 146 61 261.5t171.5 180t245.5 64.5q53 0 109 -20t101 -58l5 2q-81 135 -201 226l-285 -137l-102 167l221 103l-272 199h438l102 -70l262 127l91 -168l-177 -86
q190 -137 292 -325.5t102 -403.5zM788 528q0 213 -147 213q-71 0 -111.5 -59t-40.5 -160q0 -118 41 -174.5t107 -56.5q72 0 111.5 60t39.5 177z" />
    <glyph glyph-name="Yacute" unicode="&#xdd;" horiz-adv-x="1331" 
d="M874 498v-498h-432v492l-442 942h496l155 -451q16 -46 22.5 -80t14.5 -69h4q13 91 29 141l153 459h457zM738 1534h-301l299 321h358z" />
    <glyph glyph-name="yacute" unicode="&#xfd;" horiz-adv-x="1176" 
d="M301 -481q-60 0 -129 10.5t-123 30.5v321q25 -19 74.5 -35t93.5 -16q119 0 158 94l33 80l-428 1020h471l124 -494q36 -138 39 -186h4q3 22 8.5 49t155.5 631h414l-377 -1053q-85 -242 -210.5 -347t-307.5 -105zM661 1186h-301l299 321h358z" />
    <glyph glyph-name="Thorn" unicode="&#xde;" horiz-adv-x="1343" 
d="M1313 758q0 -147 -74.5 -261t-212.5 -176.5t-321 -62.5h-132v-258h-432v1434h432v-203h156q303 0 443.5 -115t140.5 -358zM856 743q0 88 -50.5 133.5t-150.5 45.5h-82v-355h97q186 0 186 176z" />
    <glyph glyph-name="thorn" unicode="&#xfe;" horiz-adv-x="1315" 
d="M1257 543q0 -168 -57 -297t-161 -200t-234 -71q-180 0 -273 131h-4v-577h-426v1987h426v-631h4q51 77 132 120.5t184 43.5q198 0 303.5 -132t105.5 -374zM825 530q0 97 -37.5 152t-115.5 55q-68 0 -110 -58t-42 -159v-20q0 -97 36 -155t108 -58q77 0 119 63.5t42 179.5z
" />
    <glyph glyph-name="minus" unicode="&#x2212;" horiz-adv-x="1464" 
d="M238 455v247h991v-247h-991z" />
    <glyph glyph-name="multiply" unicode="&#xd7;" horiz-adv-x="1464" 
d="M1071 66l-336 340l-336 -340l-178 176l336 333l-338 340l170 179l346 -340l344 340l164 -189l-334 -330l338 -335z" />
    <glyph glyph-name="glyph240" horiz-adv-x="758" 
d="M106 584v215h179v405l-199 -33v215l459 68v-655h164v-215h-603z" />
    <glyph glyph-name="glyph241" horiz-adv-x="758" 
d="M49 584v190l258 232q53 47 68.5 72.5t15.5 68.5q0 28 -19.5 50t-66.5 22q-79 0 -205 -101v258q60 32 123 55t135 23q153 0 239.5 -70.5t86.5 -197.5q0 -59 -24 -111t-72 -104.5t-199 -167.5v-4h299v-215h-639z" />
    <glyph glyph-name="glyph242" horiz-adv-x="758" 
d="M690 836q0 -125 -106.5 -199t-276.5 -74q-80 0 -136 16.5t-99 34.5v197q106 -53 217 -53q135 0 135 80q0 37 -34.5 58.5t-100.5 21.5h-139v194h131q56 0 87 20t31 56q0 32 -27 52t-75 20q-113 0 -203 -56v193q124 57 256 57q147 0 230.5 -59t83.5 -164q0 -74 -38 -123.5
t-104 -67.5v-4q77 -16 122.5 -70t45.5 -130z" />
    <glyph glyph-name="onehalf" unicode="&#xbd;" horiz-adv-x="1976" 
d="M111 584v215h178v405l-199 -33v215l459 68v-655h164v-215h-602zM707 0h-316l922 1434h315zM1221 0v190l258 232q49 44 66.5 70.5t17.5 70.5q0 28 -19.5 50t-66.5 22q-31 0 -83.5 -21.5t-121.5 -78.5v258q60 32 123 54.5t135 22.5q154 0 239.5 -70.5t85.5 -197.5
q0 -41 -11 -77.5t-35 -75t-62 -77t-186 -153.5v-4h299v-215h-639z" />
    <glyph glyph-name="onequarter" unicode="&#xbc;" horiz-adv-x="1950" 
d="M84 584v215h178v405l-199 -33v215l459 68v-655h164v-215h-602zM700 0h-315l922 1434h315zM1886 156h-110v-156h-242v156h-404v178l343 516h303v-498h110v-196zM1538 623h-8q-14 -41 -39 -76l-123 -195h166v187q0 46 4 84z" />
    <glyph glyph-name="threequarters" unicode="&#xbe;" horiz-adv-x="2005" 
d="M711 836q0 -125 -106.5 -199t-276.5 -74q-59 0 -112.5 11t-123.5 40v197q106 -53 217 -53q135 0 135 80q0 37 -34.5 58.5t-100.5 21.5h-139v194h131q56 0 87.5 20t31.5 56q0 32 -27 52t-76 20q-112 0 -202 -56v193q124 57 256 57q147 0 230 -59.5t83 -163.5
q0 -74 -37.5 -123.5t-103.5 -67.5v-4q77 -16 122.5 -70.5t45.5 -129.5zM727 0h-315l921 1434h316zM1911 156h-111v-156h-241v156h-404v178l342 516h303v-498h111v-196zM1563 623h-9q-15 -44 -38 -76l-123 -195h166v187q0 46 4 84z" />
    <glyph glyph-name="franc" unicode="&#x20a3;" horiz-adv-x="1108" 
d="M573 182v-182h-432v182h-121v213h121v1039h899v-338h-467v-228h426v-338h-426v-135h278v-213h-278z" />
    <glyph glyph-name="Gbreve" unicode="&#x11e;" horiz-adv-x="1489" 
d="M1397 94q-81 -46 -242 -82.5t-307 -36.5q-377 0 -582 188.5t-205 528.5q0 228 103.5 405t291.5 269t443 92q187 0 399 -53v-377q-99 45 -190 62.5t-199 17.5q-178 0 -283.5 -107t-105.5 -294q0 -179 88.5 -280t247.5 -101q74 0 109 8v205h-275v327h707v-772zM1169 1913
q-16 -167 -117 -256.5t-276 -89.5q-112 0 -199 44t-136 124t-50 178h240q10 -55 49 -87t102 -32q62 0 100 32t48 87h239z" />
    <glyph glyph-name="gbreve" unicode="&#x11f;" horiz-adv-x="1315" 
d="M1212 143q0 -295 -185.5 -459.5t-541.5 -164.5q-96 0 -186 15t-129 34v334q64 -40 150 -64t153 -24q143 0 229 69t86 183v63h-4q-46 -70 -126.5 -112t-172.5 -42q-198 0 -313 137.5t-115 379.5q0 166 60 293t167 195.5t236 68.5q177 0 264 -131h4v106h424v-881zM795 541
q0 90 -40.5 143t-107.5 53q-72 0 -115 -64t-43 -171q0 -99 36 -157t114 -58q73 0 114.5 59.5t41.5 159.5v35zM1043 1532q-16 -167 -117 -256.5t-276 -89.5q-112 0 -199 44t-136 124t-50 178h240q10 -55 49 -87t102 -32q62 0 100 32t48 87h239z" />
    <glyph glyph-name="Idotaccent" unicode="&#x130;" horiz-adv-x="714" 
d="M141 0v1434h432v-1434h-432zM559 1731q0 -73 -53 -118.5t-139 -45.5q-84 0 -138.5 47t-54.5 117q0 72 53.5 115.5t139.5 43.5q87 0 139.5 -43.5t52.5 -115.5z" />
    <glyph glyph-name="Scedilla" unicode="&#x15e;" horiz-adv-x="1171" 
d="M1137 434q0 -181 -120.5 -300t-349.5 -149v-51q195 -14 195 -178q0 -111 -90.5 -170t-257.5 -59q-53 0 -115 6v172q37 -8 82 -8q57 0 86 16.5t29 42.5q0 31 -23.5 45.5t-79.5 14.5h-18l-21 -2l1 163q-193 8 -353 74v393q90 -66 199 -106.5t203 -40.5q71 0 110 25.5
t39 74.5q0 35 -19.5 61.5t-59 49.5t-146.5 63q-346 133 -346 430q0 208 158 332.5t424 124.5q75 0 138 -6t114.5 -15t144.5 -34v-365q-181 99 -356 99q-72 0 -116 -27t-44 -74q0 -45 35.5 -74.5t148.5 -76.5q223 -90 315.5 -197t92.5 -254z" />
    <glyph glyph-name="scedilla" unicode="&#x15f;" horiz-adv-x="989" 
d="M934 340q0 -147 -94.5 -238.5t-268.5 -116.5v-51q195 -14 195 -178q0 -111 -90.5 -170t-257.5 -59q-53 0 -115 6v172q37 -8 82 -8q57 0 86 16.5t29 42.5q0 31 -23.5 45.5t-79.5 14.5h-18l-21 -2l1 164q-152 13 -263 45v299q189 -84 316 -84q125 0 125 65q0 27 -29 44.5
t-152 58.5q-136 43 -198 114t-62 185q0 159 126.5 251.5t355.5 92.5q134 0 284 -39v-287q-63 27 -138 45t-126 18q-42 0 -67 -14t-25 -39q0 -29 27 -47t108 -43q157 -46 225 -118t68 -185z" />
    <glyph glyph-name="Cacute" unicode="&#x106;" horiz-adv-x="1290" 
d="M1208 39q-178 -64 -411 -64q-229 0 -395 87.5t-253.5 249t-87.5 372.5q0 227 98 404t277 273.5t412 96.5q186 0 360 -45v-399q-60 36 -143 56t-168 20q-176 0 -277.5 -101t-101.5 -274q0 -172 101.5 -271.5t271.5 -99.5q157 0 317 80v-385zM848 1567h-301l299 321h358z
" />
    <glyph glyph-name="cacute" unicode="&#x107;" horiz-adv-x="1014" 
d="M946 29q-41 -24 -129 -39t-203 -15q-162 0 -289.5 65.5t-197.5 183.5t-70 265q0 176 74.5 301.5t212.5 192t320 66.5q100 0 179.5 -13t102.5 -30v-332q-32 25 -92 44t-111 19q-125 0 -189.5 -59.5t-64.5 -167.5q0 -106 63.5 -164.5t174.5 -58.5q119 0 219 57v-315z
M665 1186h-301l299 321h358z" />
    <glyph glyph-name="Ccaron" unicode="&#x10c;" horiz-adv-x="1290" 
d="M1208 39q-178 -64 -411 -64q-229 0 -395 87.5t-253.5 249t-87.5 372.5q0 227 98 404t277 273.5t412 96.5q186 0 360 -45v-399q-60 36 -143 56t-168 20q-176 0 -277.5 -101t-101.5 -274q0 -172 101.5 -271.5t271.5 -99.5q157 0 317 80v-385zM1140 1888l-256 -321h-317
l-256 321h262l147 -153l148 153h272z" />
    <glyph glyph-name="ccaron" unicode="&#x10d;" horiz-adv-x="1014" 
d="M946 29q-41 -24 -129 -39t-203 -15q-162 0 -289.5 65.5t-197.5 183.5t-70 265q0 176 74.5 301.5t212.5 192t320 66.5q100 0 179.5 -13t102.5 -30v-332q-32 25 -92 44t-111 19q-125 0 -189.5 -59.5t-64.5 -167.5q0 -106 63.5 -164.5t174.5 -58.5q119 0 219 57v-315z
M964 1507l-256 -321h-317l-256 321h262l147 -153l148 153h272z" />
    <glyph glyph-name="dcroat" unicode="&#x111;" horiz-adv-x="1315" 
d="M786 0v119h-4q-51 -67 -133 -105.5t-162 -38.5q-131 0 -231 64.5t-149.5 180.5t-49.5 274q0 163 59 289t166 196t240 70q63 0 116.5 -18t93 -48.5t50.5 -60.5h4v233h-275v195h275v166h426v-166h103v-195h-103v-1155h-426zM795 543q0 92 -40.5 143t-109.5 51t-112.5 -63.5
t-43.5 -169.5q0 -217 150 -217q71 0 113.5 58.5t42.5 170.5v27z" />
    <glyph glyph-name="macron" unicode="&#xaf;" horiz-adv-x="741" 
d="M43 1145v223h655v-223h-655z" />
    <glyph glyph-name="uni2219" unicode="&#x2219;" horiz-adv-x="655" 
d="M520 713q0 -74 -51.5 -119.5t-144.5 -45.5q-80 0 -134.5 46t-54.5 119t54 115.5t139 42.5q86 0 139 -43.5t53 -114.5z" />
    <glyph glyph-name="Abreve" unicode="&#x102;" horiz-adv-x="1536" 
d="M1040 0l-63 264h-428l-68 -264h-467l494 1434h536l465 -1434h-469zM768 1122h-10q-2 -24 -14 -79t-121 -472h274l-100 390q-21 86 -29 161zM1156 1913q-16 -167 -117 -256.5t-276 -89.5q-112 0 -199 44t-136 124t-50 178h240q10 -55 49 -87t102 -32q62 0 100 32t48 87
h239z" />
    <glyph glyph-name="abreve" unicode="&#x103;" horiz-adv-x="1149" 
d="M670 0v156h-4q-102 -181 -312 -181q-145 0 -227 86t-82 230q0 302 371 350l254 33q0 50 -45 82t-121 32q-172 0 -363 -98v277q83 36 208 59t214 23q261 0 378.5 -111.5t117.5 -372.5v-565h-389zM418 348q0 -42 26.5 -69t75.5 -27q67 0 108.5 50t41.5 128v39l-144 -20
q-108 -18 -108 -101zM979 1532q-16 -167 -117 -256.5t-276 -89.5q-112 0 -199 44t-136 124t-50 178h240q10 -55 49 -87t102 -32q62 0 100 32t48 87h239z" />
    <glyph glyph-name="Aogonek" unicode="&#x104;" horiz-adv-x="1536" 
d="M1333 0q-24 -38 -42 -85.5t-18 -85.5q0 -37 20 -56t53 -19q56 0 118 28v-154q-34 -19 -86.5 -31.5t-93.5 -12.5q-116 0 -174 54.5t-58 148.5q0 58 27.5 113.5t76.5 99.5h-116l-63 264h-428l-68 -264h-467l494 1434h536l465 -1434h-176zM768 1122h-10q-2 -24 -14 -79
t-121 -472h274l-100 390q-21 86 -29 161z" />
    <glyph glyph-name="aogonek" unicode="&#x105;" horiz-adv-x="1149" 
d="M932 0q-24 -38 -42 -85.5t-18 -85.5q0 -37 20 -56t53 -19q56 0 118 28v-154q-34 -19 -86.5 -31.5t-93.5 -12.5q-116 0 -174 54.5t-58 148.5q0 58 27.5 113.5t76.5 99.5h-85v156h-4q-102 -181 -312 -181q-145 0 -227 86t-82 230q0 302 371 350l254 33q0 50 -45 82t-121 32
q-172 0 -363 -98v277q83 36 208 59t214 23q261 0 378.5 -111.5t117.5 -372.5v-565h-127zM418 348q0 -42 26.5 -69t75.5 -27q67 0 108.5 50t41.5 128v39l-144 -20q-108 -18 -108 -101z" />
    <glyph glyph-name="Dcaron" unicode="&#x10e;" horiz-adv-x="1554" 
d="M1493 735q0 -218 -91.5 -385.5t-261.5 -258.5t-392 -91h-607v1434h594q758 0 758 -699zM1034 731q0 105 -42.5 189t-121.5 130t-186 46h-111v-758h121q155 0 247.5 106.5t92.5 286.5zM1152 1888l-256 -321h-317l-256 321h262l147 -153l148 153h272z" />
    <glyph glyph-name="dcaron" unicode="&#x10f;" horiz-adv-x="1662" 
d="M786 0v119h-4q-51 -67 -133 -105.5t-162 -38.5q-131 0 -231 64.5t-149.5 180.5t-49.5 274q0 163 59 289t166 196t240 70q63 0 116.5 -18t93 -48.5t50.5 -60.5h4v594h426v-1516h-426zM795 543q0 92 -40.5 143t-109.5 51t-112.5 -63.5t-43.5 -169.5q0 -217 150 -217
q71 0 113.5 58.5t42.5 170.5v27zM1702 1516l-201 -364h-220l63 364h358z" />
    <glyph glyph-name="Dcroat" unicode="&#x110;" horiz-adv-x="1554" 
d="M1493 735q0 -218 -91.5 -385.5t-261.5 -258.5t-392 -91h-607v549h-166v338h166v547h594q758 0 758 -699zM1034 731q0 105 -42.5 189t-121.5 130t-186 46h-111v-209h240v-338h-240v-211h121q155 0 247.5 106.5t92.5 286.5z" />
    <glyph glyph-name="Eogonek" unicode="&#x118;" horiz-adv-x="1130" 
d="M909 0q-24 -38 -42 -85.5t-18 -85.5q0 -37 20 -56t53 -19q56 0 118 28v-154q-34 -19 -86.5 -31.5t-93.5 -12.5q-116 0 -174 54.5t-58 148.5q0 58 27.5 113.5t76.5 99.5h-591v1434h893v-338h-461v-209h433v-338h-433v-211h494v-338h-158z" />
    <glyph glyph-name="eogonek" unicode="&#x119;" horiz-adv-x="1147" 
d="M469 391q11 -66 76 -103.5t172 -37.5q149 0 282 57v-270q-127 -52 -306 -60q-46 -80 -46 -148q0 -37 20 -56t53 -19q56 0 118 28v-154q-34 -19 -86.5 -31.5t-93.5 -12.5q-116 0 -174 54.5t-58 148.5q0 105 85 195q-220 29 -337 163t-117 344q0 165 65.5 291t194 197.5
t283.5 71.5q159 0 272 -62t171.5 -174t58.5 -262v-160h-633zM725 614q0 177 -127 177q-53 0 -89 -48.5t-42 -128.5h258z" />
    <glyph glyph-name="Ecaron" unicode="&#x11a;" horiz-adv-x="1130" 
d="M141 0v1434h893v-338h-461v-209h433v-338h-433v-211h494v-338h-926zM994 1888l-256 -321h-317l-256 321h262l147 -153l148 153h272z" />
    <glyph glyph-name="ecaron" unicode="&#x11b;" horiz-adv-x="1147" 
d="M469 391q11 -66 76 -103.5t172 -37.5q149 0 282 57v-270q-155 -62 -376 -62q-268 0 -417 137t-149 377q0 165 65.5 291t194 197.5t283.5 71.5q159 0 272 -62t171.5 -174t58.5 -262v-160h-633zM725 614q0 177 -127 177q-53 0 -89 -48.5t-42 -128.5h258zM1000 1507
l-256 -321h-317l-256 321h262l147 -153l148 153h272z" />
    <glyph glyph-name="Lacute" unicode="&#x139;" horiz-adv-x="1108" 
d="M141 0v1434h432v-1096h494v-338h-926zM590 1567h-301l299 321h358z" />
    <glyph glyph-name="lacute" unicode="&#x13a;" horiz-adv-x="631" 
d="M102 0v1516h426v-1516h-426zM388 1649h-301l299 321h358z" />
    <glyph glyph-name="Lcaron" unicode="&#x13d;" horiz-adv-x="1108" 
d="M141 0v1434h432v-1096h494v-338h-926zM1118 1433l-201 -364h-220l63 364h358z" />
    <glyph glyph-name="lcaron" unicode="&#x13e;" horiz-adv-x="978" 
d="M102 0v1516h426v-1516h-426zM1018 1516l-201 -364h-220l63 364h358z" />
    <glyph glyph-name="Ldot" unicode="&#x13f;" horiz-adv-x="1108" 
d="M141 0v1434h432v-1096h494v-338h-926zM1063 765q0 -73 -53 -118.5t-139 -45.5q-84 0 -138.5 47t-54.5 117q0 72 53.5 115.5t139.5 43.5q87 0 139.5 -43.5t52.5 -115.5z" />
    <glyph glyph-name="ldot" unicode="&#x140;" horiz-adv-x="1024" 
d="M102 0v1516h426v-1516h-426zM1016 704q0 -73 -53 -118.5t-139 -45.5q-84 0 -138.5 47t-54.5 117q0 72 53.5 115.5t139.5 43.5q87 0 139.5 -43.5t52.5 -115.5z" />
    <glyph glyph-name="Nacute" unicode="&#x143;" horiz-adv-x="1663" 
d="M1143 0l-506 692q-60 82 -98 148h-4q6 -106 6 -238v-602h-400v1434h408l485 -658l22 -31l26 -37l24.5 -37t17.5 -32h4q-6 44 -6 152v643h400v-1434h-379zM884 1567h-301l299 321h358z" />
    <glyph glyph-name="nacute" unicode="&#x144;" horiz-adv-x="1282" 
d="M766 0v559q0 95 -28.5 136.5t-92.5 41.5q-55 0 -86 -43t-31 -110v-584h-426v1024h426v-160h4q51 88 137 136.5t187 48.5q336 0 336 -424v-625h-426zM714 1186h-301l299 321h358z" />
    <glyph glyph-name="Ncaron" unicode="&#x147;" horiz-adv-x="1663" 
d="M1143 0l-506 692q-60 82 -98 148h-4q6 -106 6 -238v-602h-400v1434h408l485 -658l22 -31l26 -37l24.5 -37t17.5 -32h4q-6 44 -6 152v643h400v-1434h-379zM1246 1888l-256 -321h-317l-256 321h262l147 -153l148 153h272z" />
    <glyph glyph-name="ncaron" unicode="&#x148;" horiz-adv-x="1282" 
d="M766 0v559q0 95 -28.5 136.5t-92.5 41.5q-55 0 -86 -43t-31 -110v-584h-426v1024h426v-160h4q51 88 137 136.5t187 48.5q336 0 336 -424v-625h-426zM1059 1507l-256 -321h-317l-256 321h262l147 -153l148 153h272z" />
    <glyph glyph-name="Ohungarumlaut" unicode="&#x150;" horiz-adv-x="1567" 
d="M1505 721q0 -216 -93 -386.5t-260 -265t-374 -94.5q-202 0 -367.5 91.5t-257.5 257t-92 374.5q0 219 93 394t261 270.5t382 95.5q206 0 368.5 -91.5t251 -261t88.5 -384.5zM1047 709q0 177 -68 279t-186 102q-129 0 -201 -98t-72 -277q0 -175 71.5 -273t194.5 -98
q75 0 135 44t93 126t33 195zM1168 1567h-303l217 323h346zM682 1567h-303l217 323h346z" />
    <glyph glyph-name="ohungarumlaut" unicode="&#x151;" horiz-adv-x="1298" 
d="M1241 530q0 -259 -156.5 -407t-437.5 -148q-279 0 -434.5 144.5t-155.5 398.5q0 163 73 283t208 184t311 64q182 0 315.5 -67t205 -186t71.5 -266zM809 528q0 209 -160 209t-160 -219q0 -231 162 -231q158 0 158 241zM1034 1186h-303l217 323h346zM548 1186h-303l217 323
h346z" />
    <glyph glyph-name="Racute" unicode="&#x154;" horiz-adv-x="1397" 
d="M885 0l-107 309q-31 91 -80.5 143t-107.5 52h-17v-504h-432v1434h574q301 0 444.5 -98.5t143.5 -295.5q0 -148 -83.5 -248t-248.5 -145v-4q91 -28 151.5 -91t108.5 -187l141 -365h-487zM844 979q0 72 -44 114t-138 42h-89v-328h78q87 0 140 49t53 123zM751 1567h-301
l299 321h358z" />
    <glyph glyph-name="racute" unicode="&#x155;" horiz-adv-x="893" 
d="M872 659q-24 11 -65 20t-68 9q-211 0 -211 -244v-444h-426v1024h426v-180h4q39 97 111 147.5t168 50.5q35 0 61 -12v-371zM519 1186h-301l299 321h358z" />
    <glyph glyph-name="Rcaron" unicode="&#x158;" horiz-adv-x="1397" 
d="M885 0l-107 309q-31 91 -80.5 143t-107.5 52h-17v-504h-432v1434h574q301 0 444.5 -98.5t143.5 -295.5q0 -148 -83.5 -248t-248.5 -145v-4q91 -28 151.5 -91t108.5 -187l141 -365h-487zM844 979q0 72 -44 114t-138 42h-89v-328h78q87 0 140 49t53 123zM1085 1888
l-256 -321h-317l-256 321h262l147 -153l148 153h272z" />
    <glyph glyph-name="rcaron" unicode="&#x159;" horiz-adv-x="893" 
d="M872 659q-24 11 -65 20t-68 9q-211 0 -211 -244v-444h-426v1024h426v-180h4q39 97 111 147.5t168 50.5q35 0 61 -12v-371zM884 1507l-256 -321h-317l-256 321h262l147 -153l148 153h272z" />
    <glyph glyph-name="Sacute" unicode="&#x15a;" horiz-adv-x="1171" 
d="M1137 434q0 -143 -76.5 -249t-214.5 -158t-332 -52q-225 0 -412 76v393q90 -66 199 -106.5t203 -40.5q71 0 110 25.5t39 74.5q0 35 -19.5 61.5t-59 49.5t-146.5 63q-346 133 -346 430q0 208 158 332.5t424 124.5q75 0 138 -6t114.5 -15t144.5 -34v-365q-181 99 -356 99
q-72 0 -116 -27t-44 -74q0 -45 35.5 -74.5t148.5 -76.5q223 -90 315.5 -197t92.5 -254zM638 1567h-301l299 321h358z" />
    <glyph glyph-name="sacute" unicode="&#x15b;" horiz-adv-x="989" 
d="M934 340q0 -174 -132.5 -269.5t-369.5 -95.5q-69 0 -170.5 14t-165.5 34v299q189 -84 316 -84q125 0 125 65q0 27 -29 44.5t-152 58.5q-136 43 -198 114t-62 185q0 159 126.5 251.5t355.5 92.5q134 0 284 -39v-287q-63 27 -138 45t-126 18q-42 0 -67 -14t-25 -39
q0 -29 27 -47t108 -43q157 -46 225 -118t68 -185zM547 1186h-301l299 321h358z" />
    <glyph glyph-name="Tcommaaccent" unicode="&#x162;" horiz-adv-x="1303" 
d="M866 1096v-1096h-157v-66q195 -14 195 -178q0 -111 -90.5 -170t-257.5 -59q-53 0 -115 6v172q37 -8 82 -8q57 0 86 16.5t29 42.5q0 31 -23.5 45.5t-79.5 14.5h-18l-21 -2l1 186h-65v1096h-401v338h1241v-338h-406z" />
    <glyph glyph-name="tcommaaccent" unicode="&#x163;" horiz-adv-x="854" 
d="M823 14q-29 -14 -95 -26.5t-158 -12.5v-41q195 -14 195 -178q0 -111 -90.5 -170t-257.5 -59q-53 0 -115 6v172q37 -8 82 -8q57 0 86 16.5t29 42.5q0 31 -23.5 45.5t-79.5 14.5h-18l-21 -2l1 208q-86 48 -127 134t-41 196v377h-161v295h161v201l420 116v-317h213v-295
h-213v-307q0 -135 107 -135q50 0 106 22v-295z" />
    <glyph glyph-name="Tcaron" unicode="&#x164;" horiz-adv-x="1303" 
d="M866 1096v-1096h-434v1096h-401v338h1241v-338h-406zM1070 1888l-256 -321h-317l-256 321h262l147 -153l148 153h272z" />
    <glyph glyph-name="tcaron" unicode="&#x165;" horiz-adv-x="1111" 
d="M823 14q-29 -14 -95 -26.5t-159 -12.5q-178 0 -278.5 98t-100.5 279v377h-161v295h161v201l420 116v-317h213v-295h-213v-307q0 -135 107 -135q50 0 106 22v-295zM1151 1516l-201 -364h-220l63 364h358z" />
    <glyph glyph-name="Uring" unicode="&#x16e;" horiz-adv-x="1516" 
d="M1391 655q0 -345 -157.5 -512.5t-485.5 -167.5q-306 0 -464.5 167.5t-158.5 504.5v787h434v-803q0 -138 51.5 -212.5t147.5 -74.5q97 0 147.5 70t50.5 207v813h435v-779zM1021 1802q0 -106 -75.5 -170.5t-195.5 -64.5q-115 0 -189.5 65.5t-74.5 169.5q0 72 34.5 124.5
t95.5 81t134 28.5q124 0 197.5 -64.5t73.5 -169.5zM847 1802q0 32 -23.5 56t-73.5 24q-45 0 -67.5 -23t-22.5 -57t25.5 -57t64.5 -23q42 0 69.5 22.5t27.5 57.5z" />
    <glyph glyph-name="uring" unicode="&#x16f;" horiz-adv-x="1282" 
d="M754 0v158h-4q-53 -73 -95.5 -107t-96 -55t-124.5 -21q-168 0 -256 109t-88 322v618h426v-586q0 -151 113 -151q62 0 93.5 41t31.5 116v580h426v-1024h-426zM904 1421q0 -106 -75.5 -170.5t-195.5 -64.5q-115 0 -189.5 65.5t-74.5 169.5q0 72 34.5 124.5t95.5 81
t134 28.5q124 0 197.5 -64.5t73.5 -169.5zM730 1421q0 32 -23.5 56t-73.5 24q-45 0 -67.5 -23t-22.5 -57t25.5 -57t64.5 -23q42 0 69.5 22.5t27.5 57.5z" />
    <glyph glyph-name="Uhungarumlaut" unicode="&#x170;" horiz-adv-x="1516" 
d="M1391 655q0 -345 -157.5 -512.5t-485.5 -167.5q-306 0 -464.5 167.5t-158.5 504.5v787h434v-803q0 -138 51.5 -212.5t147.5 -74.5q97 0 147.5 70t50.5 207v813h435v-779zM1143 1567h-303l217 323h346zM657 1567h-303l217 323h346z" />
    <glyph glyph-name="uhungarumlaut" unicode="&#x171;" horiz-adv-x="1282" 
d="M754 0v158h-4q-53 -73 -95.5 -107t-96 -55t-124.5 -21q-168 0 -256 109t-88 322v618h426v-586q0 -151 113 -151q62 0 93.5 41t31.5 116v580h426v-1024h-426zM1016 1186h-303l217 323h346zM530 1186h-303l217 323h346z" />
    <glyph glyph-name="Zacute" unicode="&#x179;" horiz-adv-x="1313" 
d="M616 338h648v-338h-1203v303l662 793h-621v338h1141v-301zM751 1567h-301l299 321h358z" />
    <glyph glyph-name="zacute" unicode="&#x17a;" horiz-adv-x="1042" 
d="M584 295h422v-295h-981v197l460 532h-417v295h929v-242zM594 1186h-301l299 321h358z" />
    <glyph glyph-name="Zdotaccent" unicode="&#x17b;" horiz-adv-x="1313" 
d="M616 338h648v-338h-1203v303l662 793h-621v338h1141v-301zM869 1731q0 -73 -53 -118.5t-139 -45.5q-84 0 -138.5 47t-54.5 117q0 72 53.5 115.5t139.5 43.5q87 0 139.5 -43.5t52.5 -115.5z" />
    <glyph glyph-name="zdotaccent" unicode="&#x17c;" horiz-adv-x="1042" 
d="M584 295h422v-295h-981v197l460 532h-417v295h929v-242zM727 1350q0 -73 -53 -118.5t-139 -45.5q-84 0 -138.5 47t-54.5 117q0 72 53.5 115.5t139.5 43.5q87 0 139.5 -43.5t52.5 -115.5z" />
    <glyph glyph-name="Gamma" unicode="&#x393;" horiz-adv-x="1108" 
d="M573 1096v-1096h-432v1434h926v-338h-494z" />
    <glyph glyph-name="Theta" unicode="&#x398;" horiz-adv-x="1567" 
d="M1505 721q0 -216 -93 -386.5t-260 -265t-374 -94.5q-202 0 -367.5 91.5t-257.5 257t-92 374.5q0 219 93 394t261 270.5t382 95.5q206 0 368.5 -91.5t251 -261t88.5 -384.5zM1047 709q0 177 -68 279t-186 102q-129 0 -201 -98t-72 -277q0 -175 71.5 -273t194.5 -98
q75 0 135 44t93 126t33 195zM602 569v297h365v-297h-365z" />
    <glyph glyph-name="Phi" unicode="&#x3a6;" horiz-adv-x="1792" 
d="M1731 756q0 -165 -80 -298.5t-222.5 -208.5t-312.5 -75h-16v-199h-408v199h-16q-176 0 -318 74t-219.5 204.5t-77.5 292.5q0 158 81.5 286.5t226.5 201t307 72.5h16v153h408v-155h18q168 0 309.5 -70.5t222.5 -196.5t81 -280zM1309 741q0 110 -53.5 181t-143.5 71h-12
v-510h10q86 0 142.5 73t56.5 185zM696 993h-10q-90 0 -144.5 -73t-54.5 -183q0 -116 56.5 -185t142.5 -69h10v510z" />
    <glyph glyph-name="alpha" unicode="&#x3b1;" horiz-adv-x="1354" 
d="M750 524q-21 122 -52.5 167.5t-85.5 45.5q-58 0 -96.5 -63.5t-38.5 -167.5t29.5 -161.5t81.5 -57.5q46 0 84 49t63 133zM845 176q-128 -201 -366 -201q-196 0 -309 138t-113 368q0 162 61 292.5t171 203t248 72.5q233 0 313 -144h4l35 119h424l-229 -515q17 -100 55 -153
t88 -53q52 0 96 21v-303q-72 -39 -204 -39q-107 0 -173 46.5t-95 147.5h-6z" />
    <glyph glyph-name="delta" unicode="&#x3b4;" horiz-adv-x="1298" 
d="M1241 497q0 -159 -70 -276.5t-205.5 -181.5t-324.5 -64q-168 0 -298 58.5t-208 174t-78 253.5q0 148 81 267t240 196q-177 124 -177 284q0 104 60 178.5t168.5 114t248.5 39.5q106 0 191.5 -15t224.5 -59v-356q-91 58 -189 88.5t-182 30.5q-35 0 -62.5 -15.5t-27.5 -46.5
q0 -28 41.5 -59.5t128.5 -73.5l110 -56q169 -89 248.5 -208t79.5 -273zM809 494q0 76 -48.5 142.5t-129.5 98.5q-59 -20 -100.5 -89t-41.5 -146q0 -99 42.5 -156t117.5 -57q76 0 118 54.5t42 152.5z" />
    <glyph glyph-name="epsilon" unicode="&#x3b5;" horiz-adv-x="993" 
d="M932 23q-165 -48 -402 -48q-236 0 -356.5 73.5t-120.5 217.5q0 102 56 168t159 94v4q-83 24 -130.5 86t-47.5 148q0 138 119.5 210.5t347.5 72.5q171 0 332 -39v-265l-62 19q-91 27 -178 27q-57 0 -92 -19.5t-35 -56.5q0 -86 160 -86q41 0 92 7l25 3v-242q-84 9 -152 9
q-74 0 -118 -20t-44 -62q0 -91 166 -91q78 0 147 18t134 40v-268z" />
    <glyph glyph-name="sigma" unicode="&#x3c3;" horiz-adv-x="1335" 
d="M1116 729q34 -47 57 -118.5t23 -143.5q0 -235 -146.5 -363.5t-410.5 -128.5q-272 0 -427 146.5t-155 396.5q0 235 149 370.5t419 135.5h690v-295h-199zM764 520q0 43 -9 90.5t-36 118.5h-49q-82 0 -131.5 -57.5t-49.5 -171.5q0 -95 39 -154t105 -59q63 0 97 59.5
t34 173.5z" />
    <glyph glyph-name="tau" unicode="&#x3c4;" horiz-adv-x="1237" 
d="M827 729v-295q0 -69 29.5 -102t79.5 -33q29 0 49.5 6t48.5 17v-308q-29 -14 -95 -26.5t-159 -12.5q-178 0 -278.5 98t-100.5 279v377h-49q-178 0 -315 -104v321q136 78 360 78h774v-295h-344z" />
    <glyph glyph-name="phi" unicode="&#x3c6;" horiz-adv-x="1647" 
d="M1589 496q0 -153 -67.5 -272t-194 -184t-293.5 -65h-24v-456h-385v456h-25q-161 0 -284.5 66.5t-191 189t-67.5 279.5q0 127 34.5 259t101.5 255h413q-61 -67 -110.5 -217t-49.5 -268q0 -113 43.5 -183.5t116.5 -70.5h19v299q0 224 119 344.5t339 120.5
q247 0 376.5 -143.5t129.5 -409.5zM1198 522q0 217 -108 217q-80 0 -80 -123v-331h30q74 0 116 64.5t42 172.5z" />
    <glyph glyph-name="underscoredbl" unicode="&#x2017;" horiz-adv-x="850" 
d="M0 -273v105h850v-105h-850zM0 -514v104h850v-104h-850z" />
    <glyph glyph-name="exclamdbl" unicode="&#x203c;" horiz-adv-x="1351" 
d="M543 483h-342l-54 951h449zM612 178q0 -89 -64.5 -146t-172.5 -57q-105 0 -171.5 58t-66.5 145q0 88 64.5 142.5t173.5 54.5q106 0 171.5 -54.5t65.5 -142.5zM1145 483h-342l-54 951h449zM1214 178q0 -89 -64.5 -146t-172.5 -57q-105 0 -171.5 58t-66.5 145
q0 88 64.5 142.5t173.5 54.5q106 0 171.5 -54.5t65.5 -142.5z" />
    <glyph glyph-name="uni207F" unicode="&#x207f;" horiz-adv-x="942" 
d="M574 715v414q0 123 -96 123q-46 0 -75 -31t-29 -78v-428h-268v719h268v-96h3q78 111 228 111q237 0 237 -254v-480h-268z" />
    <glyph glyph-name="peseta" unicode="&#x20a7;" horiz-adv-x="2873" 
d="M1223 961q0 -147 -74.5 -261t-212.5 -176.5t-321 -62.5h-62v-461h-412v1434h498q303 0 443.5 -115t140.5 -358zM786 946q0 88 -51 133t-150 45h-32v-354h47q186 0 186 176zM2011 14q-29 -14 -95 -26.5t-159 -12.5q-174 0 -266.5 95.5t-92.5 281.5v198h-161v275h161v139
l400 116v-255h213v-275h-213v-128q0 -135 107 -135q50 0 106 22v-295zM2838 279q0 -143 -118 -221.5t-336 -78.5q-74 0 -160.5 12.5t-142.5 27.5v245q66 -26 138.5 -47.5t146.5 -21.5q62 0 87.5 11t25.5 34t-34.5 39t-128.5 44q-119 34 -177 96.5t-58 158.5
q0 133 115.5 207.5t319.5 74.5q56 0 131.5 -9.5t125.5 -22.5v-235q-156 52 -239 52t-83 -39q0 -24 28.5 -37.5t93.5 -31.5q129 -35 197 -96t68 -162z" />
    <glyph glyph-name="IJ" unicode="&#x132;" horiz-adv-x="1823" 
d="M141 0v1434h432v-1434h-432zM1698 612q0 -637 -619 -637q-50 0 -120 12t-142 36v399q51 -35 113.5 -56.5t103.5 -21.5q116 0 173.5 71.5t57.5 221.5v797h433v-822z" />
    <glyph glyph-name="ij" unicode="&#x133;" horiz-adv-x="1262" 
d="M553 1300q0 -90 -65.5 -146t-172.5 -56q-104 0 -170.5 58t-66.5 144q0 88 64.5 142.5t172.5 54.5q107 0 172.5 -54.5t65.5 -142.5zM102 0v1024h426v-1024h-426zM1184 1300q0 -90 -65.5 -146t-172.5 -56q-104 0 -170.5 58t-66.5 144q0 88 64.5 142.5t172.5 54.5
q107 0 172.5 -54.5t65.5 -142.5zM1159 -10q0 -135 -53 -246.5t-156 -168t-245 -56.5q-78 0 -170 30v312q56 -31 102 -31q53 0 74.5 35.5t21.5 107.5v1051h426v-1034z" />
    <glyph glyph-name="napostrophe" unicode="&#x149;" horiz-adv-x="1610" 
d="M223 1024h-248l123 444h366zM1094 0v559q0 95 -28.5 136.5t-92.5 41.5q-55 0 -86 -43t-31 -110v-584h-426v1024h426v-160h4q51 88 137 136.5t187 48.5q336 0 336 -424v-625h-426z" />
    <glyph glyph-name="minute" unicode="&#x2032;" horiz-adv-x="653" 
d="M365 912h-248l123 522h296z" />
    <glyph glyph-name="second" unicode="&#x2033;" horiz-adv-x="1189" 
d="M365 912h-248l123 522h296zM901 912h-248l123 522h296z" />
    <glyph glyph-name="afii61248" unicode="&#x2105;" horiz-adv-x="1642" 
d="M1627 416q0 -128 -51 -231t-141.5 -154t-214.5 -51q-158 0 -250 86.5t-92 226.5q0 126 52.5 230t145 154t217.5 50q156 0 245 -82t89 -229zM334 0h-318l1227 1434h316zM1359 410q0 48 -23 75t-59 27q-60 0 -94.5 -57t-34.5 -158q0 -46 22.5 -73t59.5 -27q59 0 94 60
t35 153zM608 1201q-81 46 -161 46q-71 0 -113.5 -60t-42.5 -157q0 -53 26 -82t71 -29q82 0 187 48l-38 -216q-84 -44 -185 -44q-153 0 -241.5 82t-88.5 232q0 122 53.5 221t151 155.5t217.5 56.5q118 0 194 -42z" />
    <glyph glyph-name="afii61289" unicode="&#x2113;" horiz-adv-x="662" 
d="M193 657v455q0 215 57.5 297t175.5 82q100 0 159.5 -67.5t59.5 -172.5q0 -103 -67 -239.5t-218 -345.5v-416q0 -65 4 -83q11 -48 54 -48q24 0 59.5 16t138.5 90v-162q-112 -88 -225 -88q-198 0 -198 242v225l-80 -98l-99 78zM360 899q83 142 95 168q51 105 51 184
q0 53 -20.5 86t-55.5 33q-31 0 -45 -24q-25 -43 -25 -220v-227z" />
    <glyph glyph-name="H22073" unicode="&#x25a1;" horiz-adv-x="1237" 
d="M1090 0h-945v944h945v-944zM1014 76v792h-793v-792h793z" />
    <glyph glyph-name="H18543" unicode="&#x25aa;" horiz-adv-x="725" 
d="M594 444h-463v463h463v-463z" />
    <glyph glyph-name="H18551" unicode="&#x25ab;" horiz-adv-x="725" 
d="M594 444h-463v463h463v-463zM518 520v311h-311v-311h311z" />
    <glyph glyph-name="H18533" unicode="&#x25cf;" horiz-adv-x="1237" 
d="M621 137q-182 0 -312.5 127.5t-130.5 313.5q0 112 58.5 218t163 164t218.5 58q117 0 224.5 -62t162 -167.5t54.5 -210.5q0 -180 -127.5 -310.5t-310.5 -130.5z" />
    <glyph glyph-name="openbullet" unicode="&#x25e6;" horiz-adv-x="725" 
d="M362 426q-104 0 -176.5 73.5t-72.5 178.5q0 102 73 176t176 74q105 0 178.5 -73.5t73.5 -176.5q0 -105 -73.5 -178.5t-178.5 -73.5zM362 852q-73 0 -123.5 -52.5t-50.5 -121.5q0 -74 51.5 -125t125.5 -51q71 0 122.5 51.5t51.5 124.5q0 67 -49.5 120.5t-127.5 53.5z" />
    <glyph glyph-name="Amacron" unicode="&#x100;" horiz-adv-x="1536" 
d="M1040 0l-63 264h-428l-68 -264h-467l494 1434h536l465 -1434h-469zM768 1122h-10q-2 -24 -14 -79t-121 -472h274l-100 390q-21 86 -29 161zM439 1568v223h655v-223h-655z" />
    <glyph glyph-name="amacron" unicode="&#x101;" horiz-adv-x="1149" 
d="M670 0v156h-4q-102 -181 -312 -181q-145 0 -227 86t-82 230q0 302 371 350l254 33q0 50 -45 82t-121 32q-172 0 -363 -98v277q83 36 208 59t214 23q261 0 378.5 -111.5t117.5 -372.5v-565h-389zM418 348q0 -42 26.5 -69t75.5 -27q67 0 108.5 50t41.5 128v39l-144 -20
q-108 -18 -108 -101zM263 1187v223h655v-223h-655z" />
    <glyph glyph-name="Ccircumflex" unicode="&#x108;" horiz-adv-x="1290" 
d="M1208 39q-178 -64 -411 -64q-229 0 -395 87.5t-253.5 249t-87.5 372.5q0 227 98 404t277 273.5t412 96.5q186 0 360 -45v-399q-60 36 -143 56t-168 20q-176 0 -277.5 -101t-101.5 -274q0 -172 101.5 -271.5t271.5 -99.5q157 0 317 80v-385zM877 1567l-148 153l-147 -153
h-262l256 321h317l256 -321h-272z" />
    <glyph glyph-name="ccircumflex" unicode="&#x109;" horiz-adv-x="1014" 
d="M946 29q-41 -24 -129 -39t-203 -15q-162 0 -289.5 65.5t-197.5 183.5t-70 265q0 176 74.5 301.5t212.5 192t320 66.5q100 0 179.5 -13t102.5 -30v-332q-32 25 -92 44t-111 19q-125 0 -189.5 -59.5t-64.5 -167.5q0 -106 63.5 -164.5t174.5 -58.5q119 0 219 57v-315z
M692 1186l-148 153l-147 -153h-262l256 321h317l256 -321h-272z" />
    <glyph glyph-name="Cdotaccent" unicode="&#x10a;" horiz-adv-x="1290" 
d="M1208 39q-178 -64 -411 -64q-229 0 -395 87.5t-253.5 249t-87.5 372.5q0 227 98 404t277 273.5t412 96.5q186 0 360 -45v-399q-60 36 -143 56t-168 20q-176 0 -277.5 -101t-101.5 -274q0 -172 101.5 -271.5t271.5 -99.5q157 0 317 80v-385zM898 1731q0 -73 -53 -118.5
t-139 -45.5q-84 0 -138.5 47t-54.5 117q0 72 53.5 115.5t139.5 43.5q87 0 139.5 -43.5t52.5 -115.5z" />
    <glyph glyph-name="cdotaccent" unicode="&#x10b;" horiz-adv-x="1014" 
d="M946 29q-41 -24 -129 -39t-203 -15q-162 0 -289.5 65.5t-197.5 183.5t-70 265q0 176 74.5 301.5t212.5 192t320 66.5q100 0 179.5 -13t102.5 -30v-332q-32 25 -92 44t-111 19q-125 0 -189.5 -59.5t-64.5 -167.5q0 -106 63.5 -164.5t174.5 -58.5q119 0 219 57v-315z
M733 1350q0 -73 -53 -118.5t-139 -45.5q-84 0 -138.5 47t-54.5 117q0 72 53.5 115.5t139.5 43.5q87 0 139.5 -43.5t52.5 -115.5z" />
    <glyph glyph-name="Emacron" unicode="&#x112;" horiz-adv-x="1130" 
d="M141 0v1434h893v-338h-461v-209h433v-338h-433v-211h494v-338h-926zM261 1568v223h655v-223h-655z" />
    <glyph glyph-name="emacron" unicode="&#x113;" horiz-adv-x="1147" 
d="M469 391q11 -66 76 -103.5t172 -37.5q149 0 282 57v-270q-155 -62 -376 -62q-268 0 -417 137t-149 377q0 165 65.5 291t194 197.5t283.5 71.5q159 0 272 -62t171.5 -174t58.5 -262v-160h-633zM725 614q0 177 -127 177q-53 0 -89 -48.5t-42 -128.5h258zM263 1187v223h655
v-223h-655z" />
    <glyph glyph-name="Ebreve" unicode="&#x114;" horiz-adv-x="1130" 
d="M141 0v1434h893v-338h-461v-209h433v-338h-433v-211h494v-338h-926zM973 1913q-16 -167 -117 -256.5t-276 -89.5q-112 0 -199 44t-136 124t-50 178h240q10 -55 49 -87t102 -32q62 0 100 32t48 87h239z" />
    <glyph glyph-name="ebreve" unicode="&#x115;" horiz-adv-x="1147" 
d="M469 391q11 -66 76 -103.5t172 -37.5q149 0 282 57v-270q-155 -62 -376 -62q-268 0 -417 137t-149 377q0 165 65.5 291t194 197.5t283.5 71.5q159 0 272 -62t171.5 -174t58.5 -262v-160h-633zM725 614q0 177 -127 177q-53 0 -89 -48.5t-42 -128.5h258zM981 1532
q-16 -167 -117 -256.5t-276 -89.5q-112 0 -199 44t-136 124t-50 178h240q10 -55 49 -87t102 -32q62 0 100 32t48 87h239z" />
    <glyph glyph-name="Edotaccent" unicode="&#x116;" horiz-adv-x="1130" 
d="M141 0v1434h893v-338h-461v-209h433v-338h-433v-211h494v-338h-926zM778 1731q0 -73 -53 -118.5t-139 -45.5q-84 0 -138.5 47t-54.5 117q0 72 53.5 115.5t139.5 43.5q87 0 139.5 -43.5t52.5 -115.5z" />
    <glyph glyph-name="edotaccent" unicode="&#x117;" horiz-adv-x="1147" 
d="M469 391q11 -66 76 -103.5t172 -37.5q149 0 282 57v-270q-155 -62 -376 -62q-268 0 -417 137t-149 377q0 165 65.5 291t194 197.5t283.5 71.5q159 0 272 -62t171.5 -174t58.5 -262v-160h-633zM725 614q0 177 -127 177q-53 0 -89 -48.5t-42 -128.5h258zM784 1350
q0 -73 -53 -118.5t-139 -45.5q-84 0 -138.5 47t-54.5 117q0 72 53.5 115.5t139.5 43.5q87 0 139.5 -43.5t52.5 -115.5z" />
    <glyph glyph-name="Gcircumflex" unicode="&#x11c;" horiz-adv-x="1489" 
d="M1397 94q-81 -46 -242 -82.5t-307 -36.5q-377 0 -582 188.5t-205 528.5q0 228 103.5 405t291.5 269t443 92q187 0 399 -53v-377q-99 45 -190 62.5t-199 17.5q-178 0 -283.5 -107t-105.5 -294q0 -179 88.5 -280t247.5 -101q74 0 109 8v205h-275v327h707v-772zM940 1567
l-148 153l-147 -153h-262l256 321h317l256 -321h-272z" />
    <glyph glyph-name="gcircumflex" unicode="&#x11d;" horiz-adv-x="1315" 
d="M1212 143q0 -295 -185.5 -459.5t-541.5 -164.5q-96 0 -186 15t-129 34v334q64 -40 150 -64t153 -24q143 0 229 69t86 183v63h-4q-46 -70 -126.5 -112t-172.5 -42q-198 0 -313 137.5t-115 379.5q0 166 60 293t167 195.5t236 68.5q177 0 264 -131h4v106h424v-881zM795 541
q0 90 -40.5 143t-107.5 53q-72 0 -115 -64t-43 -171q0 -99 36 -157t114 -58q73 0 114.5 59.5t41.5 159.5v35zM798 1186l-148 153l-147 -153h-262l256 321h317l256 -321h-272z" />
    <glyph glyph-name="Gdotaccent" unicode="&#x120;" horiz-adv-x="1489" 
d="M1397 94q-81 -46 -242 -82.5t-307 -36.5q-377 0 -582 188.5t-205 528.5q0 228 103.5 405t291.5 269t443 92q187 0 399 -53v-377q-99 45 -190 62.5t-199 17.5q-178 0 -283.5 -107t-105.5 -294q0 -179 88.5 -280t247.5 -101q74 0 109 8v205h-275v327h707v-772zM1005 1731
q0 -73 -53 -118.5t-139 -45.5q-84 0 -138.5 47t-54.5 117q0 72 53.5 115.5t139.5 43.5q87 0 139.5 -43.5t52.5 -115.5z" />
    <glyph glyph-name="gdotaccent" unicode="&#x121;" horiz-adv-x="1315" 
d="M1212 143q0 -295 -185.5 -459.5t-541.5 -164.5q-96 0 -186 15t-129 34v334q64 -40 150 -64t153 -24q143 0 229 69t86 183v63h-4q-46 -70 -126.5 -112t-172.5 -42q-198 0 -313 137.5t-115 379.5q0 166 60 293t167 195.5t236 68.5q177 0 264 -131h4v106h424v-881zM795 541
q0 90 -40.5 143t-107.5 53q-72 0 -115 -64t-43 -171q0 -99 36 -157t114 -58q73 0 114.5 59.5t41.5 159.5v35zM861 1350q0 -73 -53 -118.5t-139 -45.5q-84 0 -138.5 47t-54.5 117q0 72 53.5 115.5t139.5 43.5q87 0 139.5 -43.5t52.5 -115.5z" />
    <glyph glyph-name="Gcommaaccent" unicode="&#x122;" horiz-adv-x="1489" 
d="M1397 94q-81 -46 -242 -82.5t-307 -36.5q-377 0 -582 188.5t-205 528.5q0 228 103.5 405t291.5 269t443 92q187 0 399 -53v-377q-99 45 -190 62.5t-199 17.5q-178 0 -283.5 -107t-105.5 -294q0 -179 88.5 -280t247.5 -101q74 0 109 8v205h-275v327h707v-772zM1031 -107
l-201 -364h-220l63 364h358z" />
    <glyph glyph-name="gcommaaccent" unicode="&#x123;" horiz-adv-x="1315" 
d="M651 1541h219l-84 -322h-358zM1212 143q0 -295 -185.5 -459.5t-541.5 -164.5q-96 0 -186 15t-129 34v334q64 -40 150 -64t153 -24q143 0 229 69t86 183v63h-4q-46 -70 -126.5 -112t-172.5 -42q-198 0 -313 137.5t-115 379.5q0 166 60 293t167 195.5t236 68.5
q177 0 264 -131h4v106h424v-881zM795 541q0 90 -40.5 143t-107.5 53q-72 0 -115 -64t-43 -171q0 -99 36 -157t114 -58q73 0 114.5 59.5t41.5 159.5v35z" />
    <glyph glyph-name="Hcircumflex" unicode="&#x124;" horiz-adv-x="1645" 
d="M1069 0v535h-496v-535h-432v1434h432v-531h496v531h432v-1434h-432zM969 1567l-148 153l-147 -153h-262l256 321h317l256 -321h-272z" />
    <glyph glyph-name="hcircumflex" unicode="&#x125;" horiz-adv-x="1264" 
d="M762 0v584q0 153 -117 153q-57 0 -87 -43.5t-30 -111.5v-582h-426v1516h426v-631h4q55 79 133.5 121.5t168.5 42.5q166 0 253 -106.5t87 -313.5v-629h-412zM783 1567l-148 153l-147 -153h-262l256 321h317l256 -321h-272z" />
    <glyph glyph-name="Hbar" unicode="&#x126;" horiz-adv-x="1645" 
d="M1069 0v535h-496v-535h-432v1058h-110v195h110v181h432v-181h496v181h432v-181h113v-195h-113v-1058h-432zM1069 903v155h-496v-155h496z" />
    <glyph glyph-name="hbar" unicode="&#x127;" horiz-adv-x="1264" 
d="M528 1155v-300h4q55 79 133.5 121.5t168.5 42.5q166 0 253 -106.5t87 -313.5v-599h-412v554q0 153 -117 153q-57 0 -87 -43.5t-30 -111.5v-552h-426v1155h-102v195h102v166h426v-166h276v-195h-276z" />
    <glyph glyph-name="Itilde" unicode="&#x128;" horiz-adv-x="772" 
d="M141 0v1434h432v-1434h-432zM781 1903q0 -165 -60 -252.5t-173 -87.5q-88 0 -170 49l-62.5 38t-60.5 18q-38 0 -60 -31t-22 -88h-174q0 170 61.5 255t167.5 85q102 0 189 -58q29 -18 55 -32.5t57 -14.5q34 0 55 29.5t21 89.5h176z" />
    <glyph glyph-name="itilde" unicode="&#x129;" horiz-adv-x="631" 
d="M102 0v1024h426v-1024h-426zM708 1540q0 -165 -60 -252.5t-173 -87.5q-88 0 -170 49l-62.5 38t-60.5 18q-38 0 -60 -31t-22 -88h-174q0 170 61.5 255t167.5 85q102 0 189 -58q29 -18 55 -32.5t57 -14.5q34 0 55 29.5t21 89.5h176z" />
    <glyph glyph-name="Imacron" unicode="&#x12a;" horiz-adv-x="714" 
d="M141 0v1434h432v-1434h-432zM31 1568v223h655v-223h-655z" />
    <glyph glyph-name="imacron" unicode="&#x12b;" horiz-adv-x="631" 
d="M102 0v1024h426v-1024h-426zM-13 1187v223h655v-223h-655z" />
    <glyph glyph-name="Ibreve" unicode="&#x12c;" horiz-adv-x="772" 
d="M141 0v1434h432v-1434h-432zM777 1913q-16 -167 -117 -256.5t-276 -89.5q-112 0 -199 44t-136 124t-50 178h240q10 -55 49 -87t102 -32q62 0 100 32t48 87h239z" />
    <glyph glyph-name="ibreve" unicode="&#x12d;" horiz-adv-x="631" 
d="M102 0v1024h426v-1024h-426zM705 1532q-16 -167 -117 -256.5t-276 -89.5q-112 0 -199 44t-136 124t-50 178h240q10 -55 49 -87t102 -32q62 0 100 32t48 87h239z" />
    <glyph glyph-name="Iogonek" unicode="&#x12e;" horiz-adv-x="714" 
d="M141 0v1434h432v-1434h-432zM425 0q-24 -38 -42 -85.5t-18 -85.5q0 -37 20 -56t53 -19q56 0 118 28v-154q-34 -19 -86.5 -31.5t-93.5 -12.5q-116 0 -174 54.5t-58 148.5q0 58 27.5 113.5t76.5 99.5h177z" />
    <glyph glyph-name="iogonek" unicode="&#x12f;" horiz-adv-x="631" 
d="M390 0q-24 -38 -42 -85.5t-18 -85.5q0 -37 20 -56t53 -19q56 0 118 28v-154q-34 -19 -86.5 -31.5t-93.5 -12.5q-116 0 -174 54.5t-58 148.5q0 58 27.5 113.5t76.5 99.5h-111v1024h426v-1024h-138zM553 1300q0 -90 -65.5 -146t-172.5 -56q-104 0 -170.5 58t-66.5 144
q0 88 64.5 142.5t172.5 54.5q107 0 172.5 -54.5t65.5 -142.5z" />
    <glyph glyph-name="Jcircumflex" unicode="&#x134;" horiz-adv-x="1047" 
d="M922 612q0 -637 -619 -637q-50 0 -120 12t-142 36v399q51 -35 113.5 -56.5t103.5 -21.5q116 0 173.5 71.5t57.5 221.5v797h433v-822zM845 1567l-148 153l-147 -153h-262l256 321h317l256 -321h-272z" />
    <glyph glyph-name="jcircumflex" unicode="&#x135;" horiz-adv-x="631" 
d="M528 -10q0 -135 -53 -246.5t-156 -168t-245 -56.5q-78 0 -170 30v312q56 -31 102 -31q53 0 74.5 35.5t21.5 107.5v1051h426v-1034zM459 1186l-148 153l-147 -153h-262l256 321h317l256 -321h-272z" />
    <glyph glyph-name="Kcommaaccent" unicode="&#x136;" horiz-adv-x="1413" 
d="M934 0l-318 606q-32 72 -38 99h-5v-705h-432v1434h432v-682h5q19 54 43 100l286 582h512l-407 -684l446 -750h-524zM945 -107l-201 -364h-220l63 364h358z" />
    <glyph glyph-name="kcommaaccent" unicode="&#x137;" horiz-adv-x="1214" 
d="M760 0l-228 526h-4v-526h-426v1516h426v-973h4l207 481h480l-277 -469l293 -555h-475zM828 -107l-201 -364h-220l63 364h358z" />
    <glyph glyph-name="kgreenlandic" unicode="&#x138;" horiz-adv-x="1214" 
d="M760 0l-228 526h-4v-526h-426v1023h426v-480h4l207 481h480l-277 -469l293 -555h-475z" />
    <glyph glyph-name="Lcommaaccent" unicode="&#x13b;" horiz-adv-x="1108" 
d="M679 0v-66q195 -14 195 -178q0 -111 -90.5 -170t-257.5 -59q-53 0 -115 6v172q37 -8 82 -8q57 0 86 16.5t29 42.5q0 31 -23.5 45.5t-79.5 14.5h-18l-21 -2v186h-325v1434h432v-1096h494v-338h-388z" />
    <glyph glyph-name="lcommaaccent" unicode="&#x13c;" horiz-adv-x="631" 
d="M379 0v-66q195 -14 195 -178q0 -111 -90.5 -170t-257.5 -59q-53 0 -115 6v172q37 -8 82 -8q57 0 86 16.5t29 42.5q0 31 -23.5 45.5t-79.5 14.5h-18l-21 -2v186h-64v1516h426v-1516h-149z" />
    <glyph glyph-name="Ncommaaccent" unicode="&#x145;" horiz-adv-x="1663" 
d="M1143 0l-506 692q-60 82 -98 148h-4q6 -106 6 -238v-602h-400v1434h408l485 -658l22 -31l26 -37l24.5 -37t17.5 -32h4q-6 44 -6 152v643h400v-1434h-379zM1040 -107l-201 -364h-220l63 364h358z" />
    <glyph glyph-name="ncommaaccent" unicode="&#x146;" horiz-adv-x="1282" 
d="M766 0v559q0 95 -28.5 136.5t-92.5 41.5q-55 0 -86 -43t-31 -110v-584h-426v1024h426v-160h4q51 88 137 136.5t187 48.5q336 0 336 -424v-625h-426zM835 -107l-201 -364h-220l63 364h358z" />
    <glyph glyph-name="Eng" unicode="&#x14a;" horiz-adv-x="1663" 
d="M1522 108q0 -300 -135.5 -444.5t-403.5 -144.5q-46 0 -115 13t-117 32v378q33 -19 91 -36.5t96 -17.5q77 0 117 41.5t55 115.5l-473 647q-60 82 -98 148h-4q6 -106 6 -238v-602h-400v1434h408l485 -658l22 -31l26 -37l24.5 -37t17.5 -32h4q-6 44 -6 152v643h400v-1326z
" />
    <glyph glyph-name="eng" unicode="&#x14b;" horiz-adv-x="1282" 
d="M766 559q0 95 -28.5 136.5t-92.5 41.5q-55 0 -86 -43t-31 -110v-584h-426v1024h426v-160h4q51 88 137 136.5t187 48.5q336 0 336 -424v-625q-5 -135 -60.5 -240t-156 -158t-237.5 -53q-78 0 -170 30v312q56 -31 102 -31q53 0 74.5 35.5t21.5 107.5v556z" />
    <glyph glyph-name="Omacron" unicode="&#x14c;" horiz-adv-x="1567" 
d="M1505 721q0 -216 -93 -386.5t-260 -265t-374 -94.5q-202 0 -367.5 91.5t-257.5 257t-92 374.5q0 219 93 394t261 270.5t382 95.5q206 0 368.5 -91.5t251 -261t88.5 -384.5zM1047 709q0 177 -68 279t-186 102q-129 0 -201 -98t-72 -277q0 -175 71.5 -273t194.5 -98
q75 0 135 44t93 126t33 195zM454 1568v223h655v-223h-655z" />
    <glyph glyph-name="omacron" unicode="&#x14d;" horiz-adv-x="1298" 
d="M1241 530q0 -259 -156.5 -407t-437.5 -148q-279 0 -434.5 144.5t-155.5 398.5q0 163 73 283t208 184t311 64q182 0 315.5 -67t205 -186t71.5 -266zM809 528q0 209 -160 209t-160 -219q0 -231 162 -231q158 0 158 241zM320 1187v223h655v-223h-655z" />
    <glyph glyph-name="Obreve" unicode="&#x14e;" horiz-adv-x="1567" 
d="M1505 721q0 -216 -93 -386.5t-260 -265t-374 -94.5q-202 0 -367.5 91.5t-257.5 257t-92 374.5q0 219 93 394t261 270.5t382 95.5q206 0 368.5 -91.5t251 -261t88.5 -384.5zM1047 709q0 177 -68 279t-186 102q-129 0 -201 -98t-72 -277q0 -175 71.5 -273t194.5 -98
q75 0 135 44t93 126t33 195zM1172 1913q-16 -167 -117 -256.5t-276 -89.5q-112 0 -199 44t-136 124t-50 178h240q10 -55 49 -87t102 -32q62 0 100 32t48 87h239z" />
    <glyph glyph-name="obreve" unicode="&#x14f;" horiz-adv-x="1298" 
d="M1241 530q0 -259 -156.5 -407t-437.5 -148q-279 0 -434.5 144.5t-155.5 398.5q0 163 73 283t208 184t311 64q182 0 315.5 -67t205 -186t71.5 -266zM809 528q0 209 -160 209t-160 -219q0 -231 162 -231q158 0 158 241zM1037 1532q-16 -167 -117 -256.5t-276 -89.5
q-112 0 -199 44t-136 124t-50 178h240q10 -55 49 -87t102 -32q62 0 100 32t48 87h239z" />
    <glyph glyph-name="Rcommaaccent" unicode="&#x156;" horiz-adv-x="1397" 
d="M885 0l-107 309q-31 91 -80.5 143t-107.5 52h-17v-504h-432v1434h574q301 0 444.5 -98.5t143.5 -295.5q0 -148 -83.5 -248t-248.5 -145v-4q91 -28 151.5 -91t108.5 -187l141 -365h-487zM844 979q0 72 -44 114t-138 42h-89v-328h78q87 0 140 49t53 123zM916 -107
l-201 -364h-220l63 364h358z" />
    <glyph glyph-name="rcommaaccent" unicode="&#x157;" horiz-adv-x="893" 
d="M872 659q-24 11 -65 20t-68 9q-211 0 -211 -244v-444h-426v1024h426v-180h4q39 97 111 147.5t168 50.5q35 0 61 -12v-371zM529 -107l-201 -364h-220l63 364h358z" />
    <glyph glyph-name="Scircumflex" unicode="&#x15c;" horiz-adv-x="1171" 
d="M1137 434q0 -143 -76.5 -249t-214.5 -158t-332 -52q-225 0 -412 76v393q90 -66 199 -106.5t203 -40.5q71 0 110 25.5t39 74.5q0 35 -19.5 61.5t-59 49.5t-146.5 63q-346 133 -346 430q0 208 158 332.5t424 124.5q75 0 138 -6t114.5 -15t144.5 -34v-365q-181 99 -356 99
q-72 0 -116 -27t-44 -74q0 -45 35.5 -74.5t148.5 -76.5q223 -90 315.5 -197t92.5 -254zM732 1567l-148 153l-147 -153h-262l256 321h317l256 -321h-272z" />
    <glyph glyph-name="scircumflex" unicode="&#x15d;" horiz-adv-x="989" 
d="M934 340q0 -174 -132.5 -269.5t-369.5 -95.5q-69 0 -170.5 14t-165.5 34v299q189 -84 316 -84q125 0 125 65q0 27 -29 44.5t-152 58.5q-136 43 -198 114t-62 185q0 159 126.5 251.5t355.5 92.5q134 0 284 -39v-287q-63 27 -138 45t-126 18q-42 0 -67 -14t-25 -39
q0 -29 27 -47t108 -43q157 -46 225 -118t68 -185zM639 1186l-148 153l-147 -153h-262l256 321h317l256 -321h-272z" />
    <glyph glyph-name="Tbar" unicode="&#x166;" horiz-adv-x="1303" 
d="M866 1096v-300h286v-194h-286v-602h-434v602h-291v194h291v300h-401v338h1241v-338h-406z" />
    <glyph glyph-name="tbar" unicode="&#x167;" horiz-adv-x="854" 
d="M823 14q-29 -14 -95 -26.5t-159 -12.5q-178 0 -278.5 98t-100.5 279v74h-129v195h129v108h-161v295h161v201l420 116v-317h213v-295h-213v-108h167v-195h-167v-4q0 -135 107 -135q50 0 106 22v-295z" />
    <glyph glyph-name="Utilde" unicode="&#x168;" horiz-adv-x="1516" 
d="M1391 655q0 -345 -157.5 -512.5t-485.5 -167.5q-306 0 -464.5 167.5t-158.5 504.5v787h434v-803q0 -138 51.5 -212.5t147.5 -74.5q97 0 147.5 70t50.5 207v813h435v-779zM1149 1872q0 -165 -60 -252.5t-173 -87.5q-88 0 -170 49l-62.5 38t-60.5 18q-38 0 -60 -31t-22 -88
h-174q0 170 61.5 255t167.5 85q102 0 189 -58q29 -18 55 -32.5t57 -14.5q34 0 55 29.5t21 89.5h176z" />
    <glyph glyph-name="utilde" unicode="&#x169;" horiz-adv-x="1282" 
d="M754 0v158h-4q-53 -73 -95.5 -107t-96 -55t-124.5 -21q-168 0 -256 109t-88 322v618h426v-586q0 -151 113 -151q62 0 93.5 41t31.5 116v580h426v-1024h-426zM1032 1540q0 -165 -60 -252.5t-173 -87.5q-88 0 -170 49l-62.5 38t-60.5 18q-38 0 -60 -31t-22 -88h-174
q0 170 61.5 255t167.5 85q102 0 189 -58q29 -18 55 -32.5t57 -14.5q34 0 55 29.5t21 89.5h176z" />
    <glyph glyph-name="Umacron" unicode="&#x16a;" horiz-adv-x="1516" 
d="M1391 655q0 -345 -157.5 -512.5t-485.5 -167.5q-306 0 -464.5 167.5t-158.5 504.5v787h434v-803q0 -138 51.5 -212.5t147.5 -74.5q97 0 147.5 70t50.5 207v813h435v-779zM429 1568v223h655v-223h-655z" />
    <glyph glyph-name="umacron" unicode="&#x16b;" horiz-adv-x="1282" 
d="M754 0v158h-4q-53 -73 -95.5 -107t-96 -55t-124.5 -21q-168 0 -256 109t-88 322v618h426v-586q0 -151 113 -151q62 0 93.5 41t31.5 116v580h426v-1024h-426zM312 1187v223h655v-223h-655z" />
    <glyph glyph-name="Ubreve" unicode="&#x16c;" horiz-adv-x="1516" 
d="M1391 655q0 -345 -157.5 -512.5t-485.5 -167.5q-306 0 -464.5 167.5t-158.5 504.5v787h434v-803q0 -138 51.5 -212.5t147.5 -74.5q97 0 147.5 70t50.5 207v813h435v-779zM1146 1913q-16 -167 -117 -256.5t-276 -89.5q-112 0 -199 44t-136 124t-50 178h240q10 -55 49 -87
t102 -32q62 0 100 32t48 87h239z" />
    <glyph glyph-name="ubreve" unicode="&#x16d;" horiz-adv-x="1282" 
d="M754 0v158h-4q-53 -73 -95.5 -107t-96 -55t-124.5 -21q-168 0 -256 109t-88 322v618h426v-586q0 -151 113 -151q62 0 93.5 41t31.5 116v580h426v-1024h-426zM1029 1532q-16 -167 -117 -256.5t-276 -89.5q-112 0 -199 44t-136 124t-50 178h240q10 -55 49 -87t102 -32
q62 0 100 32t48 87h239z" />
    <glyph glyph-name="Uogonek" unicode="&#x172;" horiz-adv-x="1516" 
d="M1391 655q0 -321 -135.5 -487.5t-412.5 -188.5q-47 -82 -47 -150q0 -37 20 -56t53 -19q56 0 118 28v-154q-34 -19 -86.5 -31.5t-93.5 -12.5q-116 0 -174 54.5t-58 148.5q0 103 82 192q-262 23 -397 190t-135 478v787h434v-803q0 -138 51.5 -212.5t147.5 -74.5
q97 0 147.5 70t50.5 207v813h435v-779z" />
    <glyph glyph-name="uogonek" unicode="&#x173;" horiz-adv-x="1282" 
d="M754 0v158h-4q-53 -73 -95.5 -107t-96 -55t-124.5 -21q-168 0 -256 109t-88 322v618h426v-586q0 -151 113 -151q62 0 93.5 41t31.5 116v580h426v-1024h-426zM963 0q-24 -38 -42 -85.5t-18 -85.5q0 -37 20 -56t53 -19q56 0 118 28v-154q-34 -19 -86.5 -31.5t-93.5 -12.5
q-116 0 -174 54.5t-58 148.5q0 58 27.5 113.5t76.5 99.5h177z" />
    <glyph glyph-name="Wcircumflex" unicode="&#x174;" horiz-adv-x="2157" 
d="M1774 0h-459l-199 817q-9 35 -20 174h-4q-15 -123 -29 -174l-215 -817h-486l-342 1434h474l120 -844q3 -16 9 -93l6 -83h6q2 26 12 88.5t19 93.5l221 838h471l184 -850l13 -85l10 -83h4l3 35l13 139l125 844h426zM1225 1567l-148 153l-147 -153h-262l256 321h317
l256 -321h-272z" />
    <glyph glyph-name="wcircumflex" unicode="&#x175;" horiz-adv-x="1731" 
d="M1430 0h-443l-102 498q-19 90 -19 159h-6q-11 -106 -22 -153l-111 -504h-442l-271 1024h428l88 -596l15 -133h6q13 117 18 137l131 592h406l113 -592l9 -71l5 -64h6l3 29l91 698h383zM1012 1186l-148 153l-147 -153h-262l256 321h317l256 -321h-272z" />
    <glyph glyph-name="Ycircumflex" unicode="&#x176;" horiz-adv-x="1331" 
d="M874 498v-498h-432v492l-442 942h496l155 -451q16 -46 22.5 -80t14.5 -69h4q13 91 29 141l153 459h457zM812 1567l-148 153l-147 -153h-262l256 321h317l256 -321h-272z" />
    <glyph glyph-name="ycircumflex" unicode="&#x177;" horiz-adv-x="1176" 
d="M301 -481q-60 0 -129 10.5t-123 30.5v321q25 -19 74.5 -35t93.5 -16q119 0 158 94l33 80l-428 1020h471l124 -494q36 -138 39 -186h4q3 22 8.5 49t155.5 631h414l-377 -1053q-85 -242 -210.5 -347t-307.5 -105zM734 1186l-148 153l-147 -153h-262l256 321h317l256 -321
h-272z" />
    <glyph glyph-name="longs" unicode="&#x17f;" horiz-adv-x="782" 
d="M782 1206q-66 23 -123 23q-71 0 -105 -36.5t-34 -98.5v-1094h-426v1118q0 125 58 220.5t168.5 148.5t268.5 53q114 0 193 -22v-312z" />
    <glyph glyph-name="Aringacute" unicode="&#x1fa;" horiz-adv-x="1536" 
d="M1040 0l-63 264h-428l-68 -264h-467l494 1434q-27 54 -27 114q0 116 81.5 186t209.5 70q136 0 216.5 -71t80.5 -185q0 -67 -25 -114l465 -1434h-469zM879 1548q0 35 -26.5 61.5t-80.5 26.5q-49 0 -73.5 -25.5t-24.5 -62.5t27 -62.5t71 -25.5q48 0 77.5 25t29.5 63z
M768 1106h-10q-9 -57 -13 -74t-114 -430h258l-94 359q-14 55 -19 90zM821 1858h-301l299 321h358z" />
    <glyph glyph-name="aringacute" unicode="&#x1fb;" horiz-adv-x="1149" 
d="M670 0v156h-4q-102 -181 -312 -181q-145 0 -227 86t-82 230q0 302 371 350l254 33q0 50 -45 82t-121 32q-172 0 -363 -98v277q83 36 208 59t214 23q261 0 378.5 -111.5t117.5 -372.5v-565h-389zM418 348q0 -42 26.5 -69t75.5 -27q67 0 108.5 50t41.5 128v39l-144 -20
q-108 -18 -108 -101zM846 1354q0 -106 -75.5 -170.5t-195.5 -64.5q-115 0 -189.5 65.5t-74.5 169.5q0 72 34.5 124.5t95.5 81t134 28.5q124 0 197.5 -64.5t73.5 -169.5zM672 1354q0 32 -23.5 56t-73.5 24q-45 0 -67.5 -23t-22.5 -57t25.5 -57t64.5 -23q42 0 69.5 22.5
t27.5 57.5zM607 1659h-301l299 321h358z" />
    <glyph glyph-name="AEacute" unicode="&#x1fc;" horiz-adv-x="2030" 
d="M1040 0v264h-432l-119 -264h-501l747 1434h1198v-338h-460v-209h432v-338h-432v-211h493v-338h-926zM1040 1096h-55l-240 -525h295v525zM1320 1567h-301l299 321h358z" />
    <glyph glyph-name="aeacute" unicode="&#x1fd;" horiz-adv-x="1716" 
d="M1038 391q31 -141 250 -141q149 0 285 59v-270q-163 -64 -395 -64q-133 0 -242.5 41t-171.5 111h-4q-143 -152 -344 -152q-181 0 -276 84.5t-95 237.5q0 146 96 235.5t271 106.5l258 25q0 59 -45 91.5t-123 32.5q-81 0 -177 -25.5t-184 -72.5v277q95 36 207 59t187 23
q206 0 342 -93h4q149 93 307 93q220 0 351.5 -136.5t131.5 -367.5v-154h-633zM1294 614q0 177 -127 177q-53 0 -91 -52t-38 -125h256zM668 459l-138 -10q-55 -5 -84.5 -33.5t-29.5 -69.5q0 -40 30 -67t76 -27q65 0 105.5 49t40.5 123v35zM930 1186h-301l299 321h358z" />
    <glyph glyph-name="Oslashacute" unicode="&#x1fe;" horiz-adv-x="1567" 
d="M1505 721q0 -216 -93 -386.5t-260 -265t-374 -94.5q-228 0 -409 117l-146 -164l-160 133l150 172q-152 193 -152 465q0 219 93 394t261 270.5t382 95.5q230 0 401 -112l127 143l162 -133l-133 -152q151 -195 151 -483zM1094 707q0 86 -11 194l-481 -547q82 -61 186 -61
q84 0 155 51.5t111 144t40 218.5zM969 1083q-79 58 -174 58q-150 0 -236 -119.5t-86 -319.5q0 -97 10 -165zM830 1567h-301l299 321h358z" />
    <glyph glyph-name="oslashacute" unicode="&#x1ff;" horiz-adv-x="1298" 
d="M1116 862q125 -148 125 -338q0 -256 -153.5 -401.5t-440.5 -145.5q-198 0 -338 78l-133 -135l-143 125l133 135q-109 144 -109 340q0 163 73 283t208 184t311 64q182 0 318 -70l125 125l143 -125zM750 762q-48 20 -99 20q-105 0 -152.5 -66.5t-47.5 -193.5v-29l2 -26z
M850 528v33l-2 33l-318 -320q49 -28 121 -28q97 0 148 71.5t51 210.5zM702 1186h-301l299 321h358z" />
    <glyph glyph-name="anoteleia" unicode="&#x387;" horiz-adv-x="655" 
d="M565 713q0 -91 -64 -147t-177 -56q-102 0 -168 58t-66 145q0 89 65.5 142.5t172.5 53.5q105 0 171 -53.5t66 -142.5z" />
    <glyph glyph-name="Wgrave" unicode="&#x1e80;" horiz-adv-x="2157" 
d="M1774 0h-459l-199 817q-9 35 -20 174h-4q-15 -123 -29 -174l-215 -817h-486l-342 1434h474l120 -844q3 -16 9 -93l6 -83h6q2 26 12 88.5t19 93.5l221 838h471l184 -850l13 -85l10 -83h4l3 35l13 139l125 844h426zM1104 1608l-356 321h358l299 -321h-301z" />
    <glyph glyph-name="wgrave" unicode="&#x1e81;" horiz-adv-x="1731" 
d="M1430 0h-443l-102 498q-19 90 -19 159h-6q-11 -106 -22 -153l-111 -504h-442l-271 1024h428l88 -596l15 -133h6q13 117 18 137l131 592h406l113 -592l9 -71l5 -64h6l3 29l91 698h383zM854 1186l-356 321h358l299 -321h-301z" />
    <glyph glyph-name="Wacute" unicode="&#x1e82;" horiz-adv-x="2157" 
d="M1774 0h-459l-199 817q-9 35 -20 174h-4q-15 -123 -29 -174l-215 -817h-486l-342 1434h474l120 -844q3 -16 9 -93l6 -83h6q2 26 12 88.5t19 93.5l221 838h471l184 -850l13 -85l10 -83h4l3 35l13 139l125 844h426zM1129 1608h-301l299 321h358z" />
    <glyph glyph-name="wacute" unicode="&#x1e83;" horiz-adv-x="1731" 
d="M1430 0h-443l-102 498q-19 90 -19 159h-6q-11 -106 -22 -153l-111 -504h-442l-271 1024h428l88 -596l15 -133h6q13 117 18 137l131 592h406l113 -592l9 -71l5 -64h6l3 29l91 698h383zM863 1186h-301l299 321h358z" />
    <glyph glyph-name="Wdieresis" unicode="&#x1e84;" horiz-adv-x="2157" 
d="M1774 0h-459l-199 817q-9 35 -20 174h-4q-15 -123 -29 -174l-215 -817h-486l-342 1434h474l120 -844q3 -16 9 -93l6 -83h6q2 26 12 88.5t19 93.5l221 838h471l184 -850l13 -85l10 -83h4l3 35l13 139l125 844h426zM1538 1761q0 -73 -52 -118.5t-140 -45.5
q-84 0 -138.5 46.5t-54.5 117.5t53 115t140 44t139.5 -44.5t52.5 -114.5zM1037 1761q0 -71 -51.5 -117.5t-141.5 -46.5q-85 0 -138.5 47.5t-53.5 116.5q0 71 53 115t139 44q87 0 140 -43.5t53 -115.5z" />
    <glyph glyph-name="wdieresis" unicode="&#x1e85;" horiz-adv-x="1731" 
d="M1430 0h-443l-102 498q-19 90 -19 159h-6q-11 -106 -22 -153l-111 -504h-442l-271 1024h428l88 -596l15 -133h6q13 117 18 137l131 592h406l113 -592l9 -71l5 -64h6l3 29l91 698h383zM1328 1339q0 -73 -52 -118.5t-140 -45.5q-84 0 -138.5 46.5t-54.5 117.5t53 115
t140 44t139.5 -44.5t52.5 -114.5zM827 1339q0 -71 -51.5 -117.5t-141.5 -46.5q-85 0 -138.5 47.5t-53.5 116.5q0 71 53 115t139 44q87 0 140 -43.5t53 -115.5z" />
    <glyph glyph-name="Ygrave" unicode="&#x1ef2;" horiz-adv-x="1331" 
d="M874 498v-498h-432v492l-442 942h496l155 -451q16 -46 22.5 -80t14.5 -69h4q13 91 29 141l153 459h457zM661 1608l-356 321h358l299 -321h-301z" />
    <glyph glyph-name="ygrave" unicode="&#x1ef3;" horiz-adv-x="1176" 
d="M301 -481q-60 0 -129 10.5t-123 30.5v321q25 -19 74.5 -35t93.5 -16q119 0 158 94l33 80l-428 1020h471l124 -494q36 -138 39 -186h4q3 22 8.5 49t155.5 631h414l-377 -1053q-85 -242 -210.5 -347t-307.5 -105zM576 1186l-356 321h358l299 -321h-301z" />
    <glyph glyph-name="quotereversed" unicode="&#x201b;" horiz-adv-x="694" 
d="M117 1468h366l123 -444h-248z" />
    <glyph glyph-name="uni203E" unicode="&#x203e;" horiz-adv-x="850" 
d="M850 1397h-850v119h850v-119z" />
    <glyph glyph-name="lira" unicode="&#x20a4;" horiz-adv-x="1227" 
d="M714 472q-30 -95 -108 -161h584v-311h-1024v291q84 21 125.5 66.5t53.5 114.5h-159v173h164v143h-164v169h164v53q0 209 130.5 328.5t363.5 119.5q117 0 241 -55v-324q-31 26 -92.5 47t-105.5 21q-82 0 -120 -48t-38 -126v-16h246v-169h-246v-143h246v-173h-261z" />
    <glyph glyph-name="estimated" unicode="&#x212e;" horiz-adv-x="1229" 
d="M1144 530h-828l1 -370q120 -121 296 -121q255 0 396 246l71 -43q-104 -151 -212.5 -214t-253.5 -63q-237 0 -383 161t-146 404q0 251 144.5 408.5t381.5 157.5t379 -154t154 -412zM912 604v297q-130 123 -303 123q-174 0 -293 -123v-297h596z" />
    <glyph glyph-name="oneeighth" unicode="&#x215b;" horiz-adv-x="2011" 
d="M106 584v215h179v405l-199 -33v215l459 68v-655h164v-215h-603zM698 0h-315l922 1434h315zM1997 236q0 -117 -99.5 -185.5t-275.5 -68.5q-165 0 -259.5 65.5t-94.5 175.5q0 148 172 219v2q-71 25 -111.5 74.5t-40.5 114.5q0 104 95.5 171.5t244.5 67.5q166 0 260 -63
t94 -166q0 -142 -182 -197v-2q89 -21 143 -78.5t54 -129.5zM1718 621q0 34 -22 52.5t-60 18.5q-34 0 -59 -18t-25 -56q0 -54 84 -86q45 15 63.5 36.5t18.5 52.5zM1735 248q0 71 -109 104q-54 -20 -74 -46t-20 -60q0 -37 29 -59.5t71 -22.5q103 0 103 84z" />
    <glyph glyph-name="threeeighths" unicode="&#x215c;" horiz-adv-x="2011" 
d="M698 0h-315l922 1434h315zM1997 236q0 -117 -99.5 -185.5t-275.5 -68.5q-165 0 -259.5 65.5t-94.5 175.5q0 148 172 219v2q-71 25 -111.5 74.5t-40.5 114.5q0 104 95.5 171.5t244.5 67.5q166 0 260 -63t94 -166q0 -142 -182 -197v-2q89 -21 143 -78.5t54 -129.5z
M1718 621q0 34 -22 52.5t-60 18.5q-34 0 -59 -18t-25 -56q0 -54 84 -86q45 15 63.5 36.5t18.5 52.5zM1735 248q0 71 -109 104q-54 -20 -74 -46t-20 -60q0 -37 29 -59.5t71 -22.5q103 0 103 84zM690 836q0 -125 -106.5 -199t-276.5 -74q-80 0 -136 16.5t-99 34.5v197
q106 -53 217 -53q135 0 135 80q0 37 -34.5 58.5t-100.5 21.5h-139v194h131q56 0 87 20t31 56q0 32 -27 52t-75 20q-113 0 -203 -56v193q124 57 256 57q147 0 230.5 -59t83.5 -164q0 -74 -38 -123.5t-104 -67.5v-4q77 -16 122.5 -70t45.5 -130z" />
    <glyph glyph-name="fiveeighths" unicode="&#x215d;" horiz-adv-x="2011" 
d="M698 0h-315l922 1434h315zM1997 236q0 -117 -99.5 -185.5t-275.5 -68.5q-165 0 -259.5 65.5t-94.5 175.5q0 148 172 219v2q-71 25 -111.5 74.5t-40.5 114.5q0 104 95.5 171.5t244.5 67.5q166 0 260 -63t94 -166q0 -142 -182 -197v-2q89 -21 143 -78.5t54 -129.5z
M1718 621q0 34 -22 52.5t-60 18.5q-34 0 -59 -18t-25 -56q0 -54 84 -86q45 15 63.5 36.5t18.5 52.5zM1735 248q0 71 -109 104q-54 -20 -74 -46t-20 -60q0 -37 29 -59.5t71 -22.5q103 0 103 84zM682 868q0 -138 -99.5 -221.5t-265.5 -83.5q-134 0 -241 45v197
q31 -16 89 -31.5t111 -15.5q140 0 140 84q0 46 -42 71t-122 25q-58 0 -154 -16v512h545v-195h-328v-121q34 4 84 4q134 0 208.5 -67.5t74.5 -186.5z" />
    <glyph glyph-name="seveneighths" unicode="&#x215e;" horiz-adv-x="1888" 
d="M575 0h-315l922 1434h315zM1874 236q0 -117 -99.5 -185.5t-275.5 -68.5q-165 0 -259.5 65.5t-94.5 175.5q0 148 172 219v2q-71 25 -111.5 74.5t-40.5 114.5q0 104 95.5 171.5t244.5 67.5q165 0 260 -63t95 -166q0 -141 -183 -197v-2q89 -21 143 -78.5t54 -129.5z
M1595 621q0 34 -22 52.5t-60 18.5q-34 0 -58.5 -18t-24.5 -56q0 -54 83 -86q36 13 59 31.5t23 57.5zM1612 248q0 71 -109 104q-54 -20 -74 -46t-20 -60q0 -37 29 -59.5t71 -22.5q103 0 103 84zM135 584l309 655h-395v195h658v-134l-287 -716h-285z" />
    <glyph glyph-name="glyph412" horiz-adv-x="1024" 
d="M743 -107l-201 -364h-220l63 364h358z" />
    <glyph glyph-name="glyph413" horiz-adv-x="1024" 
d="M743 -107l-201 -364h-220l63 364h358z" />
    <glyph glyph-name="uni037E" unicode="&#x37e;" horiz-adv-x="655" 
d="M575 827q0 -91 -64.5 -146.5t-176.5 -55.5q-102 0 -168 58t-66 144q0 88 64.5 142.5t173.5 54.5q106 0 171.5 -54.5t65.5 -142.5zM387 -238h-344l102 510h385z" />
    <glyph glyph-name="tonos" unicode="&#x384;" horiz-adv-x="729" 
d="M424 1153h-219l84 322h358z" />
    <glyph glyph-name="dieresistonos" unicode="&#x385;" horiz-adv-x="1081" 
d="M1065 1305q0 -68 -48.5 -108t-125.5 -40q-76 0 -124 41.5t-48 106.5q0 64 47.5 103.5t124.5 39.5t125.5 -40t48.5 -103zM596 1229h-188l63 383h338zM362 1305q0 -68 -47.5 -108t-124.5 -40q-75 0 -124.5 41.5t-49.5 106.5t48.5 104t125.5 39t124.5 -39t47.5 -104z" />
    <glyph glyph-name="Alphatonos" unicode="&#x386;" horiz-adv-x="1573" 
d="M1077 0l-63 264h-428l-68 -264h-467l494 1434h536l465 -1434h-469zM805 1122h-10q-2 -24 -14 -79t-121 -472h274l-100 390q-21 86 -29 161zM187 1112h-219l84 322h358z" />
    <glyph glyph-name="Epsilontonos" unicode="&#x388;" horiz-adv-x="1479" 
d="M490 0v1434h893v-338h-461v-209h433v-338h-433v-211h494v-338h-926zM185 1112h-219l84 322h358z" />
    <glyph glyph-name="Etatonos" unicode="&#x389;" horiz-adv-x="1993" 
d="M1418 0v535h-496v-535h-432v1434h432v-531h496v531h432v-1434h-432zM186 1112h-219l84 322h358z" />
    <glyph glyph-name="Iotatonos" unicode="&#x38a;" horiz-adv-x="1203" 
d="M629 0v1434h432v-1434h-432zM325 1112h-219l84 322h358z" />
    <glyph glyph-name="Omicrontonos" unicode="&#x38c;" horiz-adv-x="1787" 
d="M1726 721q0 -216 -93 -386.5t-260 -265t-374 -94.5q-202 0 -367.5 91.5t-257.5 257t-92 374.5q0 219 93 394t261 270.5t382 95.5q206 0 368.5 -91.5t251 -261t88.5 -384.5zM1268 709q0 177 -68 279t-186 102q-129 0 -201 -98t-72 -277q0 -175 71.5 -273t194.5 -98
q75 0 135 44t93 126t33 195zM186 1112h-219l84 322h358z" />
    <glyph glyph-name="Upsilontonos" unicode="&#x38e;" horiz-adv-x="1782" 
d="M1325 498v-498h-432v492l-442 942h496l155 -451q16 -46 22.5 -80t14.5 -69h4q13 91 29 141l153 459h457zM186 1112h-219l84 322h358z" />
    <glyph glyph-name="Omegatonos" unicode="&#x38f;" horiz-adv-x="1821" 
d="M1092 0v338q113 113 157 217t44 233q0 132 -72 217t-182 85q-77 0 -139 -38t-98 -110.5t-36 -173.5q0 -79 21.5 -148.5t58.5 -132.5t115 -149v-338h-657v338h336q-166 89 -249 223.5t-83 304.5t93.5 306t260.5 211t367 75q210 0 371.5 -73.5t256.5 -211.5t95 -299
q0 -184 -89 -315.5t-262 -220.5h349v-338h-658zM186 1112h-219l84 322h358z" />
    <glyph glyph-name="iotadieresistonos" unicode="&#x390;" horiz-adv-x="772" 
d="M748 14q-78 -39 -228 -39q-178 0 -278.5 98t-100.5 279v672h426v-590q0 -135 88 -135q41 0 93 25v-310zM873 1305q0 -68 -48.5 -108t-125.5 -40q-76 0 -124 41.5t-48 106.5q0 64 47.5 103.5t124.5 39.5t125.5 -40t48.5 -103zM404 1229h-188l63 383h338zM170 1305
q0 -68 -47.5 -108t-124.5 -40q-75 0 -124.5 41.5t-49.5 106.5t48.5 104t125.5 39t124.5 -39t47.5 -104z" />
    <glyph glyph-name="Alpha" unicode="&#x391;" horiz-adv-x="1536" 
d="M1040 0l-63 264h-428l-68 -264h-467l494 1434h536l465 -1434h-469zM768 1122h-10q-2 -24 -14 -79t-121 -472h274l-100 390q-21 86 -29 161z" />
    <glyph glyph-name="Beta" unicode="&#x392;" horiz-adv-x="1415" 
d="M1366 440q0 -211 -148 -325.5t-423 -114.5h-654v1434h609q571 0 571 -347q0 -75 -36 -137.5t-109.5 -109.5t-161.5 -64v-4q102 -12 183 -60.5t125 -121t44 -150.5zM862 1012q0 133 -209 133h-80v-271h125q72 0 118 38.5t46 99.5zM907 442q0 62 -45 102t-119 40h-170v-293
h144q88 0 139 40.5t51 110.5z" />
    <glyph glyph-name="Epsilon" unicode="&#x395;" horiz-adv-x="1130" 
d="M141 0v1434h893v-338h-461v-209h433v-338h-433v-211h494v-338h-926z" />
    <glyph glyph-name="Zeta" unicode="&#x396;" horiz-adv-x="1313" 
d="M616 338h648v-338h-1203v303l662 793h-621v338h1141v-301z" />
    <glyph glyph-name="Eta" unicode="&#x397;" horiz-adv-x="1645" 
d="M1069 0v535h-496v-535h-432v1434h432v-531h496v531h432v-1434h-432z" />
    <glyph glyph-name="Iota" unicode="&#x399;" horiz-adv-x="714" 
d="M141 0v1434h432v-1434h-432z" />
    <glyph glyph-name="Kappa" unicode="&#x39a;" horiz-adv-x="1413" 
d="M934 0l-318 606q-32 72 -38 99h-5v-705h-432v1434h432v-682h5q19 54 43 100l286 582h512l-407 -684l446 -750h-524z" />
    <glyph glyph-name="Lambda" unicode="&#x39b;" horiz-adv-x="1536" 
d="M1040 0l-245 961q-14 55 -19 90l-8 55h-10q-6 -34 -16.5 -81.5t-260.5 -1024.5h-467l494 1434h536l465 -1434h-469z" />
    <glyph glyph-name="Mu" unicode="&#x39c;" horiz-adv-x="2021" 
d="M1454 0v786q0 111 7 244l3 66h-12q-32 -169 -49 -234l-211 -862h-406l-221 852q-9 32 -47 244h-12q14 -336 14 -420v-676h-379v1434h647l197 -779q7 -24 18.5 -97.5t14.5 -113.5h6q11 91 35 215l184 775h637v-1434h-426z" />
    <glyph glyph-name="Nu" unicode="&#x39d;" horiz-adv-x="1663" 
d="M1143 0l-506 692q-60 82 -98 148h-4q6 -106 6 -238v-602h-400v1434h408l485 -658l22 -31l26 -37l24.5 -37t17.5 -32h4q-6 44 -6 152v643h400v-1434h-379z" />
    <glyph glyph-name="Xi" unicode="&#x39e;" horiz-adv-x="1212" 
d="M86 1096v338h1040v-338h-1040zM240 549v338h733v-338h-733zM66 0v338h1081v-338h-1081z" />
    <glyph glyph-name="Omicron" unicode="&#x39f;" horiz-adv-x="1567" 
d="M1505 721q0 -216 -93 -386.5t-260 -265t-374 -94.5q-202 0 -367.5 91.5t-257.5 257t-92 374.5q0 219 93 394t261 270.5t382 95.5q206 0 368.5 -91.5t251 -261t88.5 -384.5zM1047 709q0 177 -68 279t-186 102q-129 0 -201 -98t-72 -277q0 -175 71.5 -273t194.5 -98
q75 0 135 44t93 126t33 195z" />
    <glyph glyph-name="Pi" unicode="&#x3a0;" horiz-adv-x="1645" 
d="M1069 0v1065h-496v-1065h-432v1434h1360v-1434h-432z" />
    <glyph glyph-name="Rho" unicode="&#x3a1;" horiz-adv-x="1343" 
d="M1313 961q0 -147 -74.5 -261t-212.5 -176.5t-321 -62.5h-132v-461h-432v1434h588q303 0 443.5 -115t140.5 -358zM856 946q0 88 -51 133t-150 45h-82v-354h97q186 0 186 176z" />
    <glyph glyph-name="Sigma" unicode="&#x3a3;" horiz-adv-x="1260" 
d="M29 0v240l487 477l-465 465v252h1118v-338h-510l351 -359l-383 -399h598v-338h-1196z" />
    <glyph glyph-name="Tau" unicode="&#x3a4;" horiz-adv-x="1303" 
d="M866 1096v-1096h-434v1096h-401v338h1241v-338h-406z" />
    <glyph glyph-name="Upsilon" unicode="&#x3a5;" horiz-adv-x="1331" 
d="M874 498v-498h-432v492l-442 942h496l155 -451q16 -46 22.5 -80t14.5 -69h4q13 91 29 141l153 459h457z" />
    <glyph glyph-name="Chi" unicode="&#x3a7;" horiz-adv-x="1438" 
d="M930 0l-178 393q-17 37 -22.5 72.5t-8.5 58.5h-4q-6 -24 -14 -63t-23 -76l-166 -385h-514l430 715l-391 719h522l139 -379q19 -53 35 -140h4q16 98 37 142l162 377h481l-403 -711l422 -723h-508z" />
    <glyph glyph-name="Psi" unicode="&#x3a8;" horiz-adv-x="1782" 
d="M1075 684h10q96 2 145.5 62t49.5 188v500h369v-543q0 -165 -70.5 -288.5t-199 -193.5t-296.5 -79h-8v-330h-368v330h-9q-168 8 -300 82t-198.5 196.5t-66.5 280.5v545h369v-500q0 -246 194 -250h11v750h368v-750z" />
    <glyph glyph-name="Omega" unicode="&#x3a9;" horiz-adv-x="1587" 
d="M858 0v338q113 113 157 217t44 233q0 132 -72 217t-182 85q-77 0 -139 -38t-98 -110.5t-36 -173.5q0 -79 21.5 -148.5t58.5 -132.5t115 -149v-338h-657v338h336q-166 89 -249 223.5t-83 304.5t93.5 306t260.5 211t367 75q210 0 371.5 -73.5t256.5 -211.5t95 -299
q0 -184 -89 -315.5t-262 -220.5h349v-338h-658z" />
    <glyph glyph-name="Iotadieresis" unicode="&#x3aa;" horiz-adv-x="772" 
d="M141 0v1434h432v-1434h-432zM832 1720q0 -73 -52 -118.5t-140 -45.5q-84 0 -138.5 46.5t-54.5 117.5t53 115t140 44t139.5 -44.5t52.5 -114.5zM331 1720q0 -71 -51.5 -117.5t-141.5 -46.5q-85 0 -138.5 47.5t-53.5 116.5q0 71 53 115t139 44q87 0 140 -43.5t53 -115.5z
" />
    <glyph glyph-name="Upsilondieresis" unicode="&#x3ab;" horiz-adv-x="1331" 
d="M874 498v-498h-432v492l-442 942h496l155 -451q16 -46 22.5 -80t14.5 -69h4q13 91 29 141l153 459h457zM1124 1731q0 -73 -52 -118.5t-140 -45.5q-84 0 -138.5 46.5t-54.5 117.5t53 115t140 44t139.5 -44.5t52.5 -114.5zM623 1731q0 -71 -51.5 -117.5t-141.5 -46.5
q-85 0 -138.5 47.5t-53.5 116.5q0 71 53 115t139 44q87 0 140 -43.5t53 -115.5z" />
    <glyph glyph-name="alphatonos" unicode="&#x3ac;" horiz-adv-x="1354" 
d="M750 524q-21 122 -52.5 167.5t-85.5 45.5q-58 0 -96.5 -63.5t-38.5 -167.5t29.5 -161.5t81.5 -57.5q46 0 84 49t63 133zM845 176q-128 -201 -366 -201q-196 0 -309 138t-113 368q0 162 61 292.5t171 203t248 72.5q233 0 313 -144h4l35 119h424l-229 -515q17 -100 55 -153
t88 -53q52 0 96 21v-303q-72 -39 -204 -39q-107 0 -173 46.5t-95 147.5h-6zM737 1153h-219l84 322h358z" />
    <glyph glyph-name="epsilontonos" unicode="&#x3ad;" horiz-adv-x="993" 
d="M932 23q-165 -48 -402 -48q-236 0 -356.5 73.5t-120.5 217.5q0 102 56 168t159 94v4q-83 24 -130.5 86t-47.5 148q0 138 119.5 210.5t347.5 72.5q171 0 332 -39v-265l-62 19q-91 27 -178 27q-57 0 -92 -19.5t-35 -56.5q0 -86 160 -86q41 0 92 7l25 3v-242q-84 9 -152 9
q-74 0 -118 -20t-44 -62q0 -91 166 -91q78 0 147 18t134 40v-268zM646 1153h-219l84 322h358z" />
    <glyph glyph-name="etatonos" unicode="&#x3ae;" horiz-adv-x="1294" 
d="M766 -395v913q0 95 -28.5 136.5t-92.5 41.5q-55 0 -86 -43t-31 -110v-543h-426v668q0 116 -11 216t-30 140h433q14 -25 23 -71t9 -93h4q52 89 137.5 139t188.5 50q336 0 336 -424v-1020h-426zM748 1153h-219l84 322h358z" />
    <glyph glyph-name="iotatonos" unicode="&#x3af;" horiz-adv-x="772" 
d="M748 14q-78 -39 -228 -39q-178 0 -278.5 98t-100.5 279v672h426v-590q0 -135 88 -135q41 0 93 25v-310zM395 1153h-219l84 322h358z" />
    <glyph glyph-name="upsilondieresistonos" unicode="&#x3b0;" horiz-adv-x="1360" 
d="M141 590q0 60 -15.5 89t-58.5 29q-33 0 -65 -13v298q72 39 225 39q178 0 259 -76.5t81 -255.5v-228q0 -78 38.5 -125.5t105.5 -47.5q65 0 100 47.5t35 138.5q0 139 -28 268.5t-86 270.5h438q102 -260 102 -512q0 -257 -150.5 -397t-427.5 -140q-180 0 -303.5 57.5
t-186.5 164.5t-63 260v133zM1192 1305q0 -68 -48.5 -108t-125.5 -40q-76 0 -124 41.5t-48 106.5q0 64 47.5 103.5t124.5 39.5t125.5 -40t48.5 -103zM723 1229h-188l63 383h338zM489 1305q0 -68 -47.5 -108t-124.5 -40q-75 0 -124.5 41.5t-49.5 106.5t48.5 104t125.5 39
t124.5 -39t47.5 -104z" />
    <glyph glyph-name="beta" unicode="&#x3b2;" horiz-adv-x="1386" 
d="M1319 408q0 -194 -143.5 -313.5t-382.5 -119.5q-127 0 -265 39v-407h-426v1382q0 253 154 402t416 149q179 0 309 -53.5t198 -150.5t68 -224q0 -109 -61 -191t-180 -124v-4q144 -43 228.5 -147.5t84.5 -237.5zM887 436q0 82 -76.5 132t-202.5 50v283q207 0 207 174
q0 69 -38 111.5t-99 42.5q-74 0 -112 -55.5t-38 -149.5v-682q93 -55 185 -55q82 0 128 40.5t46 108.5z" />
    <glyph glyph-name="gamma" unicode="&#x3b3;" horiz-adv-x="1247" 
d="M1186 907q0 -524 -398 -981v-110q0 -231 -4 -297h-424q8 79 13.5 232t5.5 269q-28 157 -146.5 432.5t-279.5 571.5h493q78 -172 148 -360.5t92 -292.5h4q96 206 96 508q0 61 -12 145h404q8 -77 8 -117z" />
    <glyph glyph-name="zeta" unicode="&#x3b6;" horiz-adv-x="995" 
d="M997 -68q0 -128 -100 -241h-448q55 38 85.5 83.5t30.5 88.5q0 29 -18 52t-53.5 45.5t-171.5 84.5q-265 124 -265 412q0 153 108.5 331t369.5 429v4h-359v295h766v-295q-188 -188 -277 -302t-132.5 -212.5t-43.5 -178.5q0 -87 46 -146.5t170 -113.5q162 -72 227 -151.5
t65 -184.5z" />
    <glyph glyph-name="eta" unicode="&#x3b7;" horiz-adv-x="1294" 
d="M766 -395v913q0 95 -28.5 136.5t-92.5 41.5q-55 0 -86 -43t-31 -110v-543h-426v668q0 116 -11 216t-30 140h433q14 -25 23 -71t9 -93h4q52 89 137.5 139t188.5 50q336 0 336 -424v-1020h-426z" />
    <glyph glyph-name="theta" unicode="&#x3b8;" horiz-adv-x="1298" 
d="M1241 786q0 -377 -156.5 -594t-437.5 -217q-279 0 -434.5 210t-155.5 583q0 237 72.5 412.5t207.5 268.5t312 93q175 0 307.5 -91t208.5 -269.5t76 -395.5zM805 907q-9 153 -48 235.5t-108 82.5q-133 0 -155 -318h311zM494 612q12 -160 50 -241.5t107 -81.5
q127 0 152 323h-309z" />
    <glyph glyph-name="iota" unicode="&#x3b9;" horiz-adv-x="772" 
d="M748 14q-78 -39 -228 -39q-178 0 -278.5 98t-100.5 279v672h426v-590q0 -135 88 -135q41 0 93 25v-310z" />
    <glyph glyph-name="kappa" unicode="&#x3ba;" horiz-adv-x="1268" 
d="M813 0l-201 369l-84 -72v-297h-426v1024h426v-374q211 224 255 267t82 69t79.5 40t92.5 14q39 0 86.5 -6t62.5 -12v-332q-39 15 -89 15q-75 0 -130 -48l-52 -44l361 -613h-463z" />
    <glyph glyph-name="lambda" unicode="&#x3bb;" horiz-adv-x="1217" 
d="M756 0l-148 639l-133 -639h-448l426 1020l-13 31q-21 56 -65 88t-105 32q-79 0 -147 -51v344q109 41 246 41q174 0 293.5 -98t187.5 -309l346 -1098h-440z" />
    <glyph glyph-name="mu" unicode="&#x3bc;" horiz-adv-x="1341" 
d="M784 133q-50 -156 -188 -156q-43 0 -66 13h-2v-385h-426v1419h426v-537q0 -70 14 -110.5t36 -59t63 -18.5q125 0 125 229v496h426v-587q0 -135 88 -135q26 0 60 10v-295q-108 -40 -256 -40q-116 0 -188.5 37.5t-107.5 118.5h-4z" />
    <glyph glyph-name="nu" unicode="&#x3bd;" horiz-adv-x="1184" 
d="M1110 741q0 -92 -22.5 -179t-61 -168.5t-99 -167.5t-190.5 -226h-370l-414 1024h442l217 -707q55 70 85 169.5t30 209.5q0 92 -25.5 197.5t-52.5 130.5h410q21 -28 36 -108t15 -175z" />
    <glyph glyph-name="xi" unicode="&#x3be;" horiz-adv-x="1036" 
d="M1028 -41q0 -146 -100 -268h-449q48 29 82.5 69.5t34.5 87.5q0 54 -42 84.5t-138 59.5q-199 58 -279 149t-80 236q0 142 92.5 256.5t251.5 171.5q-78 23 -127 75.5t-49 116.5q0 142 205 217v7h-291v295h791v-279q-167 -38 -255 -99t-88 -134q0 -38 32 -70t88 -41
q76 0 184 10v-319q-30 4 -117 4h-41q-114 0 -179 -42.5t-65 -115.5q0 -62 45 -100.5t138 -61.5q195 -50 275.5 -122.5t80.5 -186.5z" />
    <glyph glyph-name="omicron" unicode="&#x3bf;" horiz-adv-x="1298" 
d="M1241 530q0 -259 -156.5 -407t-437.5 -148q-279 0 -434.5 144.5t-155.5 398.5q0 163 73 283t208 184t311 64q182 0 315.5 -67t205 -186t71.5 -266zM809 528q0 209 -160 209t-160 -219q0 -231 162 -231q158 0 158 241z" />
    <glyph glyph-name="rho" unicode="&#x3c1;" horiz-adv-x="1315" 
d="M1257 516q0 -154 -58.5 -279t-164.5 -193.5t-239 -68.5q-68 0 -138.5 18.5t-124.5 55.5h-4v-444h-426v891q0 266 152 409.5t434 143.5q271 0 420 -138.5t149 -394.5zM825 514q0 102 -42 162.5t-113 60.5q-67 0 -104.5 -47t-37.5 -129v-223q29 -19 58.5 -35t75.5 -16
q81 0 122 62t41 165z" />
    <glyph glyph-name="sigma1" unicode="&#x3c2;" horiz-adv-x="1049" 
d="M999 -66q0 -65 -27 -130.5t-73 -112.5h-434q54 38 85.5 83t31.5 89q0 97 -166 149q-170 54 -264.5 168.5t-94.5 265.5q0 171 76 305.5t222.5 216t312.5 81.5q196 0 284 -48v-331q-80 67 -194 67q-117 0 -193 -74t-76 -184q0 -76 47 -124.5t179 -90.5q146 -46 215 -126.5
t69 -203.5z" />
    <glyph glyph-name="upsilon" unicode="&#x3c5;" horiz-adv-x="1360" 
d="M141 590q0 60 -15.5 89t-58.5 29q-33 0 -65 -13v298q72 39 225 39q178 0 259 -76.5t81 -255.5v-228q0 -78 38.5 -125.5t105.5 -47.5q65 0 100 47.5t35 138.5q0 139 -28 268.5t-86 270.5h438q102 -260 102 -512q0 -257 -150.5 -397t-427.5 -140q-180 0 -303.5 57.5
t-186.5 164.5t-63 260v133z" />
    <glyph glyph-name="chi" unicode="&#x3c7;" horiz-adv-x="1163" 
d="M1167 -449q-49 -30 -180 -30q-134 0 -226 80t-163 254l-53 131l-156 -445h-440l428 778l-96 228q-54 123 -86 156.5t-74 33.5q-45 0 -94 -32v317q49 27 174 27t209 -59.5t135 -184.5l57 -146l111 365h444l-377 -698l113 -260l45.5 -101t40 -71.5t45 -43t59.5 -14.5
q32 0 49 7t35 20v-312z" />
    <glyph glyph-name="psi" unicode="&#x3c8;" horiz-adv-x="1694" 
d="M1599 559q0 -178 -65 -311t-183.5 -203t-271.5 -70h-41v-456h-385v456h-39q-153 0 -272 71t-183.5 203t-64.5 310v465h383v-465q0 -135 38 -204.5t120 -69.5h18v1046h385v-1046h21q155 0 155 274v465h385v-465z" />
    <glyph glyph-name="omega" unicode="&#x3c9;" horiz-adv-x="1745" 
d="M1677 508q0 -247 -128 -390t-349 -143q-111 0 -199 48t-131 131h-4q-40 -81 -125.5 -130t-199.5 -49q-144 0 -251.5 66t-164.5 188.5t-57 280.5q0 248 133 514h411q-72 -127 -114.5 -265t-42.5 -247q0 -97 32.5 -155t83.5 -58q60 0 84.5 45t24.5 129v277h385v-277
q0 -88 26 -131t83 -43q51 0 83.5 59.5t32.5 153.5q0 110 -43 248.5t-114 263.5h411q133 -266 133 -516z" />
    <glyph glyph-name="iotadieresis" unicode="&#x3ca;" horiz-adv-x="772" 
d="M748 14q-78 -39 -228 -39q-178 0 -278.5 98t-100.5 279v672h426v-590q0 -135 88 -135q41 0 93 25v-310zM794 1305q0 -73 -52 -118.5t-140 -45.5q-84 0 -138.5 46.5t-54.5 117.5t53 115t140 44t139.5 -44.5t52.5 -114.5zM293 1305q0 -71 -51.5 -117.5t-141.5 -46.5
q-85 0 -138.5 47.5t-53.5 116.5q0 71 53 115t139 44q87 0 140 -43.5t53 -115.5z" />
    <glyph glyph-name="upsilondieresis" unicode="&#x3cb;" horiz-adv-x="1360" 
d="M141 590q0 60 -15.5 89t-58.5 29q-33 0 -65 -13v298q72 39 225 39q178 0 259 -76.5t81 -255.5v-228q0 -78 38.5 -125.5t105.5 -47.5q65 0 100 47.5t35 138.5q0 139 -28 268.5t-86 270.5h438q102 -260 102 -512q0 -257 -150.5 -397t-427.5 -140q-180 0 -303.5 57.5
t-186.5 164.5t-63 260v133zM1094 1305q0 -73 -52 -118.5t-140 -45.5q-84 0 -138.5 46.5t-54.5 117.5t53 115t140 44t139.5 -44.5t52.5 -114.5zM593 1305q0 -71 -51.5 -117.5t-141.5 -46.5q-85 0 -138.5 47.5t-53.5 116.5q0 71 53 115t139 44q87 0 140 -43.5t53 -115.5z" />
    <glyph glyph-name="omicrontonos" unicode="&#x3cc;" horiz-adv-x="1298" 
d="M1241 530q0 -259 -156.5 -407t-437.5 -148q-279 0 -434.5 144.5t-155.5 398.5q0 163 73 283t208 184t311 64q182 0 315.5 -67t205 -186t71.5 -266zM809 528q0 209 -160 209t-160 -219q0 -231 162 -231q158 0 158 241zM719 1153h-219l84 322h358z" />
    <glyph glyph-name="upsilontonos" unicode="&#x3cd;" horiz-adv-x="1360" 
d="M141 590q0 60 -15.5 89t-58.5 29q-33 0 -65 -13v298q72 39 225 39q178 0 259 -76.5t81 -255.5v-228q0 -78 38.5 -125.5t105.5 -47.5q65 0 100 47.5t35 138.5q0 139 -28 268.5t-86 270.5h438q102 -260 102 -512q0 -257 -150.5 -397t-427.5 -140q-180 0 -303.5 57.5
t-186.5 164.5t-63 260v133zM700 1153h-219l84 322h358z" />
    <glyph glyph-name="omegatonos" unicode="&#x3ce;" horiz-adv-x="1745" 
d="M1677 508q0 -247 -128 -390t-349 -143q-111 0 -199 48t-131 131h-4q-40 -81 -125.5 -130t-199.5 -49q-144 0 -251.5 66t-164.5 188.5t-57 280.5q0 248 133 514h411q-72 -127 -114.5 -265t-42.5 -247q0 -97 32.5 -155t83.5 -58q60 0 84.5 45t24.5 129v277h385v-277
q0 -88 26 -131t83 -43q51 0 83.5 59.5t32.5 153.5q0 110 -43 248.5t-114 263.5h411q133 -266 133 -516zM964 1153h-219l84 322h358z" />
    <glyph glyph-name="afii10023" unicode="&#x401;" horiz-adv-x="1130" 
d="M141 0v1434h893v-338h-461v-209h433v-338h-433v-211h494v-338h-926zM1040 1731q0 -73 -52 -118.5t-140 -45.5q-84 0 -138.5 46.5t-54.5 117.5t53 115t140 44t139.5 -44.5t52.5 -114.5zM539 1731q0 -71 -51.5 -117.5t-141.5 -46.5q-85 0 -138.5 47.5t-53.5 116.5
q0 71 53 115t139 44q87 0 140 -43.5t53 -115.5z" />
    <glyph glyph-name="afii10051" unicode="&#x402;" horiz-adv-x="1634" 
d="M1604 432q0 -133 -50.5 -234t-146.5 -156.5t-231 -55.5q-55 0 -118 8t-100 21v292q55 -24 111 -24q54 0 88.5 39.5t34.5 107.5q0 164 -201 164h-125v-594h-434v1096h-401v338h1241v-338h-406v-207h228q245 0 377.5 -120t132.5 -337z" />
    <glyph glyph-name="afii10052" unicode="&#x403;" horiz-adv-x="1108" 
d="M573 1096v-1096h-432v1434h926v-338h-494zM707 1566h-301l299 321h358z" />
    <glyph glyph-name="afii10053" unicode="&#x404;" horiz-adv-x="1290" 
d="M1208 39q-178 -64 -411 -64q-229 0 -393.5 82t-253.5 243.5t-89 383.5q0 365 208 569.5t579 204.5q186 0 360 -45v-375q-61 36 -148 57t-171 21q-148 0 -237 -62t-113 -182h521v-327h-517q23 -113 110 -170.5t232 -57.5q159 0 323 82v-360z" />
    <glyph glyph-name="afii10054" unicode="&#x405;" horiz-adv-x="1171" 
d="M1137 434q0 -143 -76.5 -249t-214.5 -158t-332 -52q-225 0 -412 76v393q90 -66 199 -106.5t203 -40.5q71 0 110 25.5t39 74.5q0 35 -19.5 61.5t-59 49.5t-146.5 63q-346 133 -346 430q0 208 158 332.5t424 124.5q75 0 138 -6t114.5 -15t144.5 -34v-365q-181 99 -356 99
q-72 0 -116 -27t-44 -74q0 -45 35.5 -74.5t148.5 -76.5q223 -90 315.5 -197t92.5 -254z" />
    <glyph glyph-name="afii10056" unicode="&#x407;" horiz-adv-x="772" 
d="M141 0v1434h432v-1434h-432zM832 1720q0 -73 -52 -118.5t-140 -45.5q-84 0 -138.5 46.5t-54.5 117.5t53 115t140 44t139.5 -44.5t52.5 -114.5zM331 1720q0 -71 -51.5 -117.5t-141.5 -46.5q-85 0 -138.5 47.5t-53.5 116.5q0 71 53 115t139 44q87 0 140 -43.5t53 -115.5z
" />
    <glyph glyph-name="afii10058" unicode="&#x409;" horiz-adv-x="2208" 
d="M2177 510q0 -242 -152 -376t-432 -134h-587v1083h-226q-50 -426 -92.5 -613.5t-100.5 -288t-145.5 -150t-205.5 -49.5q-117 0 -201 22v340q34 -12 80 -12q56 0 101.5 54.5t79.5 183t71.5 359t66.5 505.5h1004v-482h180q194 0 317.5 -47.5t182.5 -141.5t59 -253zM1720 477
q0 84 -46 125t-142 41h-94v-334h84q102 0 150 41.5t48 126.5z" />
    <glyph glyph-name="afii10059" unicode="&#x40a;" horiz-adv-x="2271" 
d="M2241 504q0 -242 -152 -373t-432 -131h-588v561h-496v-561h-432v1434h432v-510h496v510h432v-488h180q289 0 424.5 -105.5t135.5 -336.5zM1784 471q0 77 -42 114.5t-147 37.5h-94v-310h84q110 0 154.5 39t44.5 119z" />
    <glyph glyph-name="afii10060" unicode="&#x40b;" horiz-adv-x="1753" 
d="M1253 0v332q0 190 -219 190h-168v-522h-432l-2 1096h-401v338h1241v-338h-406v-215h277q267 0 405 -128t138 -374v-379h-433z" />
    <glyph glyph-name="afii10061" unicode="&#x40c;" horiz-adv-x="1413" 
d="M934 0l-318 606q-32 72 -38 99h-5v-705h-432v1434h432v-682h5q19 54 43 100l286 582h512l-407 -684l446 -750h-524zM838 1566h-301l299 321h358z" />
    <glyph glyph-name="afii10062" unicode="&#x40e;" horiz-adv-x="1331" 
d="M289 -25q-114 0 -178 33v383q32 -22 76 -36.5t87 -14.5q61 0 99 29.5t80 105.5l-453 959h496l151 -420q24 -61 33 -152h4q13 94 33 144l157 428h457l-457 -988q-86 -184 -165 -284t-173 -143.5t-247 -43.5zM1140 1942q-17 -180 -137.5 -278t-325.5 -98q-134 0 -236 48
t-159 134t-60 194h279q14 -79 60.5 -124t121.5 -45q71 0 118 45.5t59 123.5h280z" />
    <glyph glyph-name="afii10145" unicode="&#x40f;" horiz-adv-x="1642" 
d="M1013 0v-403h-388v403h-484v1434h432v-1067h496v1067h432v-1434h-488z" />
    <glyph glyph-name="afii10017" unicode="&#x410;" horiz-adv-x="1536" 
d="M1040 0l-63 264h-428l-68 -264h-467l494 1434h536l465 -1434h-469zM768 1122h-10q-2 -24 -14 -79t-121 -472h274l-100 390q-21 86 -29 161z" />
    <glyph glyph-name="afii10018" unicode="&#x411;" horiz-adv-x="1415" 
d="M1366 473q0 -227 -139 -350t-402 -123h-684v1434h1039v-338h-607v-222h304q159 0 268.5 -50t165 -140t55.5 -211zM907 442q0 65 -40 103.5t-111 38.5h-183v-293h164q81 0 125.5 38.5t44.5 112.5z" />
    <glyph glyph-name="afii10019" unicode="&#x412;" horiz-adv-x="1415" 
d="M1366 440q0 -211 -148 -325.5t-423 -114.5h-654v1434h609q571 0 571 -347q0 -75 -36 -137.5t-109.5 -109.5t-161.5 -64v-4q102 -12 183 -60.5t125 -121t44 -150.5zM862 1012q0 133 -209 133h-80v-271h125q72 0 118 38.5t46 99.5zM907 442q0 62 -45 102t-119 40h-170v-293
h144q88 0 139 40.5t51 110.5z" />
    <glyph glyph-name="afii10020" unicode="&#x413;" horiz-adv-x="1108" 
d="M573 1096v-1096h-432v1434h926v-338h-494z" />
    <glyph glyph-name="afii10021" unicode="&#x414;" horiz-adv-x="1651" 
d="M1212 -402v402h-817v-402h-380v746h142q258 457 284 1090h938v-1090h222v-746h-389zM947 1083h-161q-30 -366 -197 -739h358v739z" />
    <glyph glyph-name="afii10022" unicode="&#x415;" horiz-adv-x="1130" 
d="M141 0v1434h893v-338h-461v-209h433v-338h-433v-211h494v-338h-926z" />
    <glyph glyph-name="afii10024" unicode="&#x416;" horiz-adv-x="2052" 
d="M1593 0l-322 598q-26 51 -35 82h-4v-680h-412v680h-4q-11 -39 -35 -82l-321 -598h-505l461 750l-422 684h492l313 -623l17 -41h4v664h412v-664h4l18 41l312 623h492l-422 -684l461 -750h-504z" />
    <glyph glyph-name="afii10025" unicode="&#x417;" horiz-adv-x="1176" 
d="M1126 410q0 -213 -161 -324t-463 -111q-134 0 -249.5 20.5t-193.5 57.5v342q84 -51 188 -79.5t208 -28.5q233 0 233 141q0 70 -67.5 108.5t-190.5 38.5h-207v314h197q114 0 172.5 32.5t58.5 102.5q0 63 -48 93t-148 30q-153 0 -328 -90v321q207 80 436 80
q252 0 387 -95.5t135 -270.5q0 -133 -78 -224.5t-221 -119.5v-5q157 -19 248.5 -109.5t91.5 -223.5z" />
    <glyph glyph-name="afii10026" unicode="&#x418;" horiz-adv-x="1663" 
d="M1122 0v602q0 132 6 238h-4q-20 -34 -46 -73t-558 -767h-379v1434h400v-625q0 -116 -6 -170h4q4 9 10.5 20t79.5 117l485 658h408v-1434h-400z" />
    <glyph glyph-name="afii10027" unicode="&#x419;" horiz-adv-x="1663" 
d="M1122 0v602q0 132 6 238h-4q-20 -34 -46 -73t-558 -767h-379v1434h400v-643q0 -108 -6 -152h4q4 9 10.5 20t79.5 117l485 658h408v-1434h-400zM1306 1942q-17 -180 -137.5 -278t-325.5 -98q-134 0 -236 48t-159 134t-60 194h279q14 -79 60.5 -124t121.5 -45
q71 0 118 45.5t59 123.5h280z" />
    <glyph glyph-name="afii10028" unicode="&#x41a;" horiz-adv-x="1413" 
d="M934 0l-318 606q-32 72 -38 99h-5v-705h-432v1434h432v-682h5q19 54 43 100l286 582h512l-407 -684l446 -750h-524z" />
    <glyph glyph-name="afii10029" unicode="&#x41b;" horiz-adv-x="1579" 
d="M780 1083q-50 -426 -92.5 -613.5t-100.5 -288t-145.5 -150t-205.5 -49.5q-117 0 -201 22v340q34 -12 80 -12q56 0 101.5 54.5t79.5 183t71.5 359t66.5 505.5h1004v-1434h-432v1083h-226z" />
    <glyph glyph-name="afii10030" unicode="&#x41c;" horiz-adv-x="2021" 
d="M1454 0v786q0 111 7 244l3 66h-12q-32 -169 -49 -234l-211 -862h-406l-221 852q-9 32 -47 244h-12q14 -336 14 -420v-676h-379v1434h647l197 -779q7 -24 18.5 -97.5t14.5 -113.5h6q11 91 35 215l184 775h637v-1434h-426z" />
    <glyph glyph-name="afii10031" unicode="&#x41d;" horiz-adv-x="1645" 
d="M1069 0v535h-496v-535h-432v1434h432v-531h496v531h432v-1434h-432z" />
    <glyph glyph-name="afii10032" unicode="&#x41e;" horiz-adv-x="1567" 
d="M1505 721q0 -216 -93 -386.5t-260 -265t-374 -94.5q-202 0 -367.5 91.5t-257.5 257t-92 374.5q0 219 93 394t261 270.5t382 95.5q206 0 368.5 -91.5t251 -261t88.5 -384.5zM1047 709q0 177 -68 279t-186 102q-129 0 -201 -98t-72 -277q0 -175 71.5 -273t194.5 -98
q75 0 135 44t93 126t33 195z" />
    <glyph glyph-name="afii10033" unicode="&#x41f;" horiz-adv-x="1642" 
d="M1069 0v1067h-496v-1067h-432v1434h1360v-1434h-432z" />
    <glyph glyph-name="afii10034" unicode="&#x420;" horiz-adv-x="1343" 
d="M1313 961q0 -147 -74.5 -261t-212.5 -176.5t-321 -62.5h-132v-461h-432v1434h588q303 0 443.5 -115t140.5 -358zM856 946q0 88 -51 133t-150 45h-82v-354h97q186 0 186 176z" />
    <glyph glyph-name="afii10035" unicode="&#x421;" horiz-adv-x="1290" 
d="M1208 39q-178 -64 -411 -64q-229 0 -395 87.5t-253.5 249t-87.5 372.5q0 227 98 404t277 273.5t412 96.5q186 0 360 -45v-399q-60 36 -143 56t-168 20q-176 0 -277.5 -101t-101.5 -274q0 -172 101.5 -271.5t271.5 -99.5q157 0 317 80v-385z" />
    <glyph glyph-name="afii10036" unicode="&#x422;" horiz-adv-x="1303" 
d="M866 1096v-1096h-434v1096h-401v338h1241v-338h-406z" />
    <glyph glyph-name="afii10037" unicode="&#x423;" horiz-adv-x="1331" 
d="M289 -25q-114 0 -178 33v383q32 -22 76 -36.5t87 -14.5q61 0 99 29.5t80 105.5l-453 959h496l151 -420q24 -61 33 -152h4q13 94 33 144l157 428h457l-457 -988q-86 -184 -165 -284t-173 -143.5t-247 -43.5z" />
    <glyph glyph-name="afii10038" unicode="&#x424;" horiz-adv-x="1905" 
d="M1855 725q0 -182 -75.5 -316t-220.5 -206t-347 -72h-45v-177h-432v177h-45q-199 0 -343.5 72.5t-221 206.5t-76.5 315q0 274 164.5 424.5t466.5 150.5h55v180h432v-180h56q300 0 466 -150.5t166 -424.5zM1399 713q0 129 -57.5 203.5t-157.5 74.5h-17v-551h11
q104 0 162.5 72t58.5 201zM735 991h-16q-100 0 -156.5 -73.5t-56.5 -204.5t58 -202t161 -71h10v551z" />
    <glyph glyph-name="afii10039" unicode="&#x425;" horiz-adv-x="1438" 
d="M930 0l-178 393q-17 37 -22.5 72.5t-8.5 58.5h-4q-6 -24 -14 -63t-23 -76l-166 -385h-514l430 715l-391 719h522l139 -379q19 -53 35 -140h4q16 98 37 142l162 377h481l-403 -711l422 -723h-508z" />
    <glyph glyph-name="afii10040" unicode="&#x426;" horiz-adv-x="1794" 
d="M1334 -373v373h-1193v1434h432v-1067h496v1067h432v-1067h221v-740h-388z" />
    <glyph glyph-name="afii10041" unicode="&#x427;" horiz-adv-x="1567" 
d="M993 0v466q-79 -25 -188.5 -42.5t-212.5 -17.5q-479 0 -479 473v555h432v-508q0 -162 178 -162q107 0 270 42v628h432v-1434h-432z" />
    <glyph glyph-name="afii10042" unicode="&#x428;" horiz-adv-x="2120" 
d="M141 0v1434h432v-1067h271v1067h432v-1067h270v1067h432v-1434h-1837z" />
    <glyph glyph-name="afii10043" unicode="&#x429;" horiz-adv-x="2271" 
d="M1811 -402v402h-1670v1434h432v-1067h271v1067h432v-1067h270v1067h432v-1067h222v-769h-389z" />
    <glyph glyph-name="afii10044" unicode="&#x42a;" horiz-adv-x="1636" 
d="M1606 510q0 -242 -152 -376t-432 -134h-590v1096h-401v338h835v-482h181q194 0 317.5 -47.5t182.5 -141.5t59 -253zM1149 477q0 84 -46 125t-142 41h-95v-334h84q103 0 151 42t48 126z" />
    <glyph glyph-name="afii10045" unicode="&#x42b;" horiz-adv-x="2025" 
d="M1452 0v1434h432v-1434h-432zM1313 510q0 -242 -152 -376t-432 -134h-588v1434h432v-482h181q194 0 317.5 -47.5t182.5 -141.5t59 -253zM856 477q0 84 -46 125t-142 41h-95v-334h84q103 0 151 42t48 126z" />
    <glyph glyph-name="afii10046" unicode="&#x42c;" horiz-adv-x="1343" 
d="M1313 510q0 -242 -152 -376t-432 -134h-588v1434h432v-482h181q194 0 317.5 -47.5t182.5 -141.5t59 -253zM856 477q0 84 -46 125t-142 41h-95v-334h84q103 0 151 42t48 126z" />
    <glyph glyph-name="afii10047" unicode="&#x42d;" horiz-adv-x="1290" 
d="M1229 731q0 -227 -91.5 -400.5t-260.5 -264.5t-398 -91q-101 0 -197 14t-200 50v358q160 -80 321 -80q151 0 235.5 55t111.5 173h-520v327h526q-34 126 -117.5 185t-228.5 59q-189 0 -328 -72v359q212 55 391 55q372 0 564 -185.5t192 -541.5z" />
    <glyph glyph-name="afii10048" unicode="&#x42e;" horiz-adv-x="2224" 
d="M2163 721q0 -217 -88.5 -387t-248 -264.5t-360.5 -94.5q-165 0 -306.5 68.5t-237 196.5t-127.5 297h-222v-537h-432v1434h432v-543h228q56 261 240.5 414t443.5 153q197 0 353 -92.5t240.5 -260.5t84.5 -384zM1704 709q0 177 -59 279t-164 102q-113 0 -177.5 -100
t-64.5 -275q0 -177 62.5 -274t173.5 -97q105 0 167 97t62 268z" />
    <glyph glyph-name="afii10049" unicode="&#x42f;" horiz-adv-x="1411" 
d="M838 0v518h-34q-168 0 -220 -199l-84 -319h-488l122 373q35 109 102.5 177t182.5 105v4q-306 75 -306 365q0 197 153.5 303.5t454.5 106.5h549v-1434h-432zM838 1126h-73q-94 0 -143.5 -37.5t-49.5 -109.5q0 -71 53.5 -116.5t141.5 -45.5h71v309z" />
    <glyph glyph-name="afii10065" unicode="&#x430;" horiz-adv-x="1149" 
d="M670 0v156h-4q-102 -181 -312 -181q-145 0 -227 86t-82 230q0 302 371 350l254 33q0 50 -45 82t-121 32q-172 0 -363 -98v277q83 36 208 59t214 23q261 0 378.5 -111.5t117.5 -372.5v-565h-389zM418 348q0 -42 26.5 -69t75.5 -27q67 0 108.5 50t41.5 128v39l-144 -20
q-108 -18 -108 -101z" />
    <glyph glyph-name="afii10066" unicode="&#x431;" horiz-adv-x="1298" 
d="M1241 520q0 -162 -73.5 -286t-211 -191.5t-321.5 -67.5q-283 0 -430.5 168.5t-147.5 501.5q0 271 82.5 457.5t247.5 275.5q51 28 136 48.5t283 43.5q137 16 173 25t74.5 24.5t62.5 32.5v-313q-30 -29 -72 -45t-160 -31q-206 -25 -263.5 -45.5t-86 -75.5t-38.5 -159h4
q117 110 286 110q224 0 339.5 -119t115.5 -354zM811 510q0 197 -160 197q-47 0 -93.5 -25.5t-63.5 -54.5q-5 -37 -5 -70v-29q0 -109 42 -175t116 -66q72 0 118 59t46 164z" />
    <glyph glyph-name="afii10067" unicode="&#x432;" horiz-adv-x="1247" 
d="M1186 315q0 -156 -98.5 -235.5t-290.5 -79.5h-695v1024h662q201 0 295 -61t94 -187q0 -60 -29 -106t-78 -77.5t-104 -41.5q108 -12 176 -78t68 -158zM715 715q0 45 -26.5 63.5t-82.5 18.5h-78v-168h80q53 0 80 24.5t27 61.5zM745 328q0 40 -27.5 63t-78.5 23h-111v-181
h99q118 0 118 95z" />
    <glyph glyph-name="afii10068" unicode="&#x433;" horiz-adv-x="854" 
d="M528 709v-709h-426v1024h732v-315h-306z" />
    <glyph glyph-name="afii10069" unicode="&#x434;" horiz-adv-x="1378" 
d="M1007 -373v373h-641v-373h-335v660h88q98 171 145.5 349t57.5 388h858v-737h168v-660h-341zM756 748h-117q-18 -249 -125 -461h242v461z" />
    <glyph glyph-name="afii10070" unicode="&#x435;" horiz-adv-x="1147" 
d="M469 391q11 -66 76 -103.5t172 -37.5q149 0 282 57v-270q-155 -62 -376 -62q-268 0 -417 137t-149 377q0 165 65.5 291t194 197.5t283.5 71.5q159 0 272 -62t171.5 -174t58.5 -262v-160h-633zM725 614q0 177 -127 177q-53 0 -89 -48.5t-42 -128.5h258z" />
    <glyph glyph-name="afii10072" unicode="&#x436;" horiz-adv-x="1745" 
d="M1301 0l-221 514h-4v-514h-406v514h-4l-219 -514h-456l295 543l-292 481h444l228 -494h4v494h406v-494h4l227 494h444l-292 -481l297 -543h-455z" />
    <glyph glyph-name="afii10073" unicode="&#x437;" horiz-adv-x="1055" 
d="M993 299q0 -117 -64 -184.5t-191 -100t-316 -32.5q-173 0 -340 47v264q148 -57 280 -57q102 0 145.5 18.5t43.5 62.5q0 52 -38.5 72.5t-145.5 20.5h-197v227h201q87 0 122 20t35 68q0 40 -37 57t-122 17q-119 0 -248 -45v247q180 48 348 48q265 0 383.5 -63.5
t118.5 -209.5q0 -93 -67 -156.5t-195 -84.5v-3q136 -10 210 -71.5t74 -161.5z" />
    <glyph glyph-name="afii10074" unicode="&#x438;" horiz-adv-x="1343" 
d="M852 0v555q-39 -75 -82 -139l-291 -416h-377v1024h392v-524q27 58 75 127l271 397h401v-1024h-389z" />
    <glyph glyph-name="afii10075" unicode="&#x439;" horiz-adv-x="1343" 
d="M852 0v555q-39 -75 -82 -139l-291 -416h-377v1024h392v-524q27 58 75 127l271 397h401v-1024h-389zM1146 1501q-17 -180 -137.5 -278t-325.5 -98q-134 0 -236 48t-159 134t-60 194h279q14 -79 60.5 -124t121.5 -45q71 0 118 45.5t59 123.5h280z" />
    <glyph glyph-name="afii10076" unicode="&#x43a;" horiz-adv-x="1214" 
d="M760 0l-228 526h-4v-526h-426v1024h426v-481h4l207 481h480l-277 -469l293 -555h-475z" />
    <glyph glyph-name="afii10077" unicode="&#x43b;" horiz-adv-x="1354" 
d="M825 0v737h-163q-30 -230 -68 -374t-89 -224t-127 -115.5t-214 -35.5q-92 0 -144 18v264q28 -10 64 -10q70 0 112 74.5t77 241t70 448.5h908v-1024h-426z" />
    <glyph glyph-name="afii10078" unicode="&#x43c;" horiz-adv-x="1673" 
d="M1186 0v772q-13 -69 -24 -118.5t-175 -653.5h-366l-154 582q-2 10 -7.5 32l-12 49t-12 54.5t-7.5 48.5v-766h-326v1024h564l141 -526q20 -85 29 -160q3 22 7.5 49.5t16 83.5t146.5 553h565v-1024h-385z" />
    <glyph glyph-name="afii10079" unicode="&#x43d;" horiz-adv-x="1294" 
d="M766 0v399h-238v-399h-426v1024h426v-348h238v348h426v-1024h-426z" />
    <glyph glyph-name="afii10080" unicode="&#x43e;" horiz-adv-x="1298" 
d="M1241 530q0 -259 -156.5 -407t-437.5 -148q-279 0 -434.5 144.5t-155.5 398.5q0 163 73 283t208 184t311 64q182 0 315.5 -67t205 -186t71.5 -266zM809 528q0 209 -160 209t-160 -219q0 -231 162 -231q158 0 158 241z" />
    <glyph glyph-name="afii10081" unicode="&#x43f;" horiz-adv-x="1294" 
d="M766 0v737h-238v-737h-426v1024h1090v-1024h-426z" />
    <glyph glyph-name="afii10082" unicode="&#x440;" horiz-adv-x="1315" 
d="M1257 543q0 -168 -57 -297t-161 -200t-234 -71q-180 0 -273 131h-4v-577h-426v1495h426v-139h4q51 77 132 120.5t184 43.5q198 0 303.5 -132t105.5 -374zM825 530q0 97 -37.5 152t-115.5 55q-68 0 -110 -58t-42 -159v-20q0 -97 36 -155t108 -58q77 0 119 63.5t42 179.5z
" />
    <glyph glyph-name="afii10083" unicode="&#x441;" horiz-adv-x="1014" 
d="M946 29q-41 -24 -129 -39t-203 -15q-162 0 -289.5 65.5t-197.5 183.5t-70 265q0 176 74.5 301.5t212.5 192t320 66.5q100 0 179.5 -13t102.5 -30v-332q-32 25 -92 44t-111 19q-125 0 -189.5 -59.5t-64.5 -167.5q0 -106 63.5 -164.5t174.5 -58.5q119 0 219 57v-315z" />
    <glyph glyph-name="afii10084" unicode="&#x442;" horiz-adv-x="983" 
d="M705 709v-709h-426v709h-248v315h921v-315h-247z" />
    <glyph glyph-name="afii10085" unicode="&#x443;" horiz-adv-x="1176" 
d="M301 -481q-60 0 -129 10.5t-123 30.5v321q25 -19 74.5 -35t93.5 -16q119 0 158 94l33 80l-428 1020h471l124 -494q36 -138 39 -186h4q3 22 8.5 49t155.5 631h414l-377 -1053q-85 -242 -210.5 -347t-307.5 -105z" />
    <glyph glyph-name="afii10086" unicode="&#x444;" horiz-adv-x="1776" 
d="M1724 518q0 -156 -67 -273t-196 -181t-306 -64h-65v-471h-404v471h-65q-176 0 -304.5 64t-197 181t-68.5 273q0 154 65.5 268t191.5 176t304 62h74v451h404v-451h73q265 0 413 -133.5t148 -372.5zM1294 508q0 109 -50 172t-140 63h-14v-462h8q94 0 145 60.5t51 166.5z
M686 743h-14q-89 0 -140 -62t-51 -173q0 -109 51 -168t144 -59h10v462z" />
    <glyph glyph-name="afii10087" unicode="&#x445;" horiz-adv-x="1272" 
d="M944 545l330 -545h-490l-110 233q-19 39 -43 107h-4q-21 -68 -27 -83.5t-117 -256.5h-487l340 516l-320 508h492l110 -238q22 -41 44 -112h4q29 87 41 114l104 236h465z" />
    <glyph glyph-name="afii10088" unicode="&#x446;" horiz-adv-x="1397" 
d="M1025 -373v373h-923v1024h426v-737h238v737h426v-737h174v-660h-341z" />
    <glyph glyph-name="afii10089" unicode="&#x447;" horiz-adv-x="1262" 
d="M733 0v315q-149 -84 -303 -84q-163 0 -251.5 88.5t-88.5 245.5v459h402v-375q0 -53 27 -82.5t77 -29.5q68 0 137 45v442h426v-1024h-426z" />
    <glyph glyph-name="afii10090" unicode="&#x448;" horiz-adv-x="1841" 
d="M102 0v1024h416v-737h194v737h416v-737h195v737h416v-1024h-1637z" />
    <glyph glyph-name="afii10091" unicode="&#x449;" horiz-adv-x="1944" 
d="M1572 -373v373h-1470v1024h416v-737h194v737h416v-737h195v737h416v-737h174v-660h-341z" />
    <glyph glyph-name="afii10092" unicode="&#x44a;" horiz-adv-x="1413" 
d="M1376 362q0 -174 -101.5 -268t-287.5 -94h-694v709h-273v315h699v-330h274q186 0 284.5 -88t98.5 -244zM936 352q0 101 -123 101h-94v-209h84q70 0 101.5 25.5t31.5 82.5z" />
    <glyph glyph-name="afii10093" unicode="&#x44b;" horiz-adv-x="1819" 
d="M1290 0v1024h426v-1024h-426zM1186 362q0 -174 -101.5 -268t-287.5 -94h-695v1024h426v-330h275q183 0 283 -87.5t100 -244.5zM745 352q0 101 -122 101h-95v-209h84q70 0 101.5 25.5t31.5 82.5z" />
    <glyph glyph-name="afii10094" unicode="&#x44c;" horiz-adv-x="1223" 
d="M1186 362q0 -174 -101.5 -268t-287.5 -94h-695v1024h426v-330h275q183 0 283 -87.5t100 -244.5zM745 352q0 101 -122 101h-95v-209h84q70 0 101.5 25.5t31.5 82.5z" />
    <glyph glyph-name="afii10095" unicode="&#x44d;" horiz-adv-x="1010" 
d="M952 510q0 -149 -69 -272.5t-196.5 -193t-295.5 -69.5q-84 0 -152 12t-165 52v262q42 -25 104.5 -41t124.5 -16q180 0 225 147h-354v225h361q-37 166 -244 166q-53 0 -115.5 -15.5t-101.5 -39.5v266q58 24 141 40t166 16q280 0 425.5 -136.5t145.5 -402.5z" />
    <glyph glyph-name="afii10096" unicode="&#x44e;" horiz-adv-x="1921" 
d="M1864 530q0 -259 -156.5 -407t-437.5 -148q-238 0 -388.5 107.5t-189.5 302.5h-164v-385h-426v1024h426v-348h172q48 178 199 275.5t373 97.5q182 0 315.5 -67t205 -186t71.5 -266zM1432 528q0 209 -160 209t-160 -219q0 -231 162 -231q158 0 158 241z" />
    <glyph glyph-name="afii10097" unicode="&#x44f;" horiz-adv-x="1280" 
d="M752 0v350h-25q-48 0 -83 -31t-62 -108l-78 -211h-465l113 256q38 87 94 134t143 69q-131 25 -196.5 87.5t-65.5 178.5q0 153 120 226t361 73h570v-1024h-426zM752 782h-58q-81 0 -112 -26.5t-31 -77.5q0 -107 147 -107h54v211z" />
    <glyph glyph-name="afii10071" unicode="&#x451;" horiz-adv-x="1147" 
d="M469 391q11 -66 76 -103.5t172 -37.5q149 0 282 57v-270q-155 -62 -376 -62q-268 0 -417 137t-149 377q0 165 65.5 291t194 197.5t283.5 71.5q159 0 272 -62t171.5 -174t58.5 -262v-160h-633zM725 614q0 177 -127 177q-53 0 -89 -48.5t-42 -128.5h258zM1046 1309
q0 -73 -52 -118.5t-140 -45.5q-84 0 -138.5 46.5t-54.5 117.5t53 115t140 44t139.5 -44.5t52.5 -114.5zM545 1309q0 -71 -51.5 -117.5t-141.5 -46.5q-85 0 -138.5 47.5t-53.5 116.5q0 71 53 115t139 44q87 0 140 -43.5t53 -115.5z" />
    <glyph glyph-name="afii10099" unicode="&#x452;" horiz-adv-x="1264" 
d="M532 854q56 81 133.5 122.5t167.5 41.5q195 0 285 -167t90 -509q0 -323 -54 -491.5t-172.5 -250t-320.5 -81.5q-75 0 -131 28v297q43 -30 90 -30q65 0 99.5 48.5t49.5 158t15 305.5q0 208 -32.5 294.5t-106.5 86.5q-54 0 -85.5 -41.5t-31.5 -114.5v-551h-426v1155h-102
v195h102v166h426v-166h276v-195h-276v-301h4z" />
    <glyph glyph-name="afii10100" unicode="&#x453;" horiz-adv-x="854" 
d="M528 709v-709h-426v1024h732v-315h-306zM530 1145h-301l299 321h358z" />
    <glyph glyph-name="afii10101" unicode="&#x454;" horiz-adv-x="1014" 
d="M936 39q-86 -37 -162.5 -50.5t-163.5 -13.5q-161 0 -287.5 65t-196 183.5t-69.5 265.5q0 176 73.5 302t210.5 192t318 66q147 0 277 -48v-276q-32 22 -94 39.5t-121 17.5q-103 0 -162.5 -41t-81.5 -125h359v-225h-355q45 -147 226 -147q52 0 114 15.5t115 45.5v-266z" />
    <glyph glyph-name="afii10102" unicode="&#x455;" horiz-adv-x="989" 
d="M934 340q0 -174 -132.5 -269.5t-369.5 -95.5q-69 0 -170.5 14t-165.5 34v299q189 -84 316 -84q125 0 125 65q0 27 -29 44.5t-152 58.5q-136 43 -198 114t-62 185q0 159 126.5 251.5t355.5 92.5q134 0 284 -39v-287q-63 27 -138 45t-126 18q-42 0 -67 -14t-25 -39
q0 -29 27 -47t108 -43q157 -46 225 -118t68 -185z" />
    <glyph glyph-name="afii10104" unicode="&#x457;" horiz-adv-x="623" 
d="M98 0v1024h426v-1024h-426zM750 1309q0 -71 -51.5 -117.5t-141.5 -46.5q-85 0 -138.5 47t-53.5 117q0 73 53 116t139 43t139.5 -44t53.5 -115zM248 1309q0 -71 -51.5 -117.5t-141.5 -46.5q-82 0 -137 47t-55 117q0 71 53 115t139 44q87 0 140 -43.5t53 -115.5z" />
    <glyph glyph-name="afii10106" unicode="&#x459;" horiz-adv-x="1946" 
d="M825 737h-163q-30 -230 -68 -374t-89 -224t-127 -115.5t-214 -35.5q-92 0 -144 18v264q28 -10 64 -10q70 0 112 74.5t77 241t70 448.5h908v-330h275q183 0 283 -87.5t100 -244.5q0 -174 -101.5 -268t-287.5 -94h-695v737zM1468 352q0 101 -122 101h-95v-209h84
q70 0 101.5 25.5t31.5 82.5z" />
    <glyph glyph-name="afii10107" unicode="&#x45a;" horiz-adv-x="1886" 
d="M1849 358q0 -174 -101.5 -266t-287.5 -92h-694v408h-238v-408h-426v1024h426v-340h238v340h426v-338h274q185 0 284 -85.5t99 -242.5zM1409 348q0 92 -123 92h-94v-192h84q74 0 103.5 24t29.5 76z" />
    <glyph glyph-name="afii10108" unicode="&#x45b;" horiz-adv-x="1264" 
d="M528 1155v-300h4q55 79 133.5 121.5t168.5 42.5q166 0 253 -106.5t87 -313.5v-599h-412v554q0 153 -117 153q-57 0 -87 -43.5t-30 -111.5v-552h-426v1155h-102v195h102v166h426v-166h276v-195h-276z" />
    <glyph glyph-name="afii10109" unicode="&#x45c;" horiz-adv-x="1214" 
d="M760 0l-228 526h-4v-526h-426v1024h426v-481h4l207 481h480l-277 -469l293 -555h-475zM685 1145h-301l299 321h358z" />
    <glyph glyph-name="afii10110" unicode="&#x45e;" horiz-adv-x="1176" 
d="M301 -481q-60 0 -129 10.5t-123 30.5v321q25 -19 74.5 -35t93.5 -16q119 0 158 94l33 80l-428 1020h471l124 -494q36 -138 39 -186h4q3 22 8.5 49t155.5 631h414l-377 -1053q-85 -242 -210.5 -347t-307.5 -105zM1069 1501q-17 -180 -137.5 -278t-325.5 -98
q-134 0 -236 48t-159 134t-60 194h279q14 -79 60.5 -124t121.5 -45q71 0 118 45.5t59 123.5h280z" />
    <glyph glyph-name="afii10193" unicode="&#x45f;" horiz-adv-x="1294" 
d="M821 0v-373h-341v373h-378v1024h426v-737h238v737h426v-1024h-371z" />
    <glyph glyph-name="afii10050" unicode="&#x490;" horiz-adv-x="1161" 
d="M573 1096v-1096h-432v1434h572v301h389v-639h-529z" />
    <glyph glyph-name="afii10098" unicode="&#x491;" horiz-adv-x="978" 
d="M528 715v-715h-426v1024h483v271h342v-580h-399z" />
    <glyph glyph-name="afii00208" unicode="&#x2015;" horiz-adv-x="850" 
d="M850 1397h-850v119h850v-119z" />
    <glyph glyph-name="afii61352" unicode="&#x2116;" horiz-adv-x="2619" 
d="M2507 1039q0 -206 -123.5 -323.5t-345.5 -117.5q-218 0 -342.5 113.5t-124.5 316.5q0 195 126 307.5t343 112.5q145 0 250 -52.5t161 -147t56 -209.5zM1589 176v285h887v-285h-887zM1061 0l-434 668l-49 84l-39 69h-4q6 -104 6 -237v-584h-400v1434h408l414 -631
q54 -88 79 -146h5q-7 53 -7 152v625h400v-1434h-379zM2161 1037q0 157 -121 157q-123 0 -123 -166q0 -174 123 -174q121 0 121 183z" />
    <glyph glyph-name="pi" unicode="&#x3c0;" horiz-adv-x="1541" 
d="M1255 729v-268q0 -94 21.5 -128t66.5 -34q41 0 91 25v-310q-101 -39 -213 -39q-193 0 -292.5 98.5t-99.5 293.5v362h-155v-399q0 -104 -9 -179.5t-38 -150.5h-432q53 159 53 360v369q-42 0 -110 -22t-130 -60v330q46 20 112.5 33.5t133.5 13.5h1221v-295h-220z" />
    <glyph glyph-name="glyph568" horiz-adv-x="828" 
d="M792 740h-110v-156h-241v156h-405v178l343 516h303v-499h110v-195zM445 1207h-8q-14 -36 -39 -76l-124 -196h167v188q0 47 4 84z" />
    <glyph glyph-name="glyph569" horiz-adv-x="828" 
d="M105 614v197q102 -53 202 -53q149 0 149 86q0 84 -170 84q-58 0 -153 -12v520h550v-215h-314v-102l58 3q142 0 219 -68.5t77 -195.5q0 -145 -95 -220t-271 -75q-160 0 -252 51z" />
    <glyph glyph-name="glyph570" horiz-adv-x="828" 
d="M731 1291l-289 -707h-273l300 655h-369v195h631v-143z" />
    <glyph glyph-name="glyph571" horiz-adv-x="828" 
d="M202 1036q-70 32 -102 78t-32 111q0 107 92.5 168t258.5 61q167 0 257 -57.5t90 -158.5q0 -78 -33.5 -124.5t-113.5 -75.5q87 -20 130 -74.5t43 -127.5q0 -131 -102.5 -202t-289.5 -71q-169 0 -266 70t-97 193q0 148 165 210zM501 1192q0 67 -82 67q-38 0 -62 -18.5
t-24 -49.5q0 -54 90 -78q78 23 78 79zM403 941q-99 -35 -99 -105q0 -34 30 -55.5t79 -21.5q54 0 83 22t29 60q0 66 -122 100z" />
    <glyph glyph-name="glyph572" horiz-adv-x="631" 
d="M102 0v1024h426v-1024h-426z" />
    <glyph glyph-name="Scommaaccent" unicode="&#x218;" horiz-adv-x="1171" 
d="M1137 434q0 -143 -76.5 -249t-214.5 -158t-332 -52q-225 0 -412 76v393q90 -66 199 -106.5t203 -40.5q71 0 110 25.5t39 74.5q0 35 -19.5 61.5t-59 49.5t-146.5 63q-346 133 -346 430q0 208 158 332.5t424 124.5q75 0 138 -6t114.5 -15t144.5 -34v-365q-181 99 -356 99
q-72 0 -116 -27t-44 -74q0 -45 35.5 -74.5t148.5 -76.5q223 -90 315.5 -197t92.5 -254zM788 -107l-201 -364h-220l63 364h358z" />
    <glyph glyph-name="scommaaccent" unicode="&#x219;" horiz-adv-x="989" 
d="M934 340q0 -174 -132.5 -269.5t-369.5 -95.5q-69 0 -170.5 14t-165.5 34v299q189 -84 316 -84q125 0 125 65q0 27 -29 44.5t-152 58.5q-136 43 -198 114t-62 185q0 159 126.5 251.5t355.5 92.5q134 0 284 -39v-287q-63 27 -138 45t-126 18q-42 0 -67 -14t-25 -39
q0 -29 27 -47t108 -43q157 -46 225 -118t68 -185zM687 -107l-201 -364h-220l63 364h358z" />
    <glyph glyph-name="currency" unicode="&#xa4;" horiz-adv-x="1139" 
d="M946 188l-145 142q-110 -60 -232 -60q-121 0 -231 60l-145 -142l-173 174l146 138q-62 113 -62 225q0 116 62 225l-146 140l173 174l145 -142q110 60 231 60q122 0 232 -60l145 142l172 -174l-145 -140q61 -108 61 -225q0 -114 -61 -225l145 -138zM788 727q0 87 -66 150
t-153 63q-92 0 -155.5 -63t-63.5 -150q0 -88 64 -151.5t155 -63.5q89 0 154 62t65 153z" />
    <glyph glyph-name="Ohorn" unicode="&#x1a0;" horiz-adv-x="1618" 
d="M1505 721q0 -216 -93 -386.5t-260 -265t-374 -94.5q-202 0 -367.5 91.5t-257.5 257t-92 374.5q0 219 93 394t261 270.5t382 95.5q83 0 163.5 -17.5t180.5 -61.5q47 -20 93 -20q65 0 97 36.5t32 99.5q0 49 -16 104h258q23 -71 23 -148q0 -115 -67 -185t-196 -78
q140 -192 140 -467zM1047 709q0 177 -68 279t-186 102q-129 0 -201 -98t-72 -277q0 -175 71.5 -273t194.5 -98q75 0 135 44t93 126t33 195z" />
    <glyph glyph-name="ohorn" unicode="&#x1a1;" horiz-adv-x="1298" 
d="M1241 530q0 -259 -156.5 -407t-437.5 -148q-279 0 -434.5 144.5t-155.5 398.5q0 163 73 283t208 184t311 64q61 0 129 -7t116 -7q71 0 105 37t34 100q0 49 -16 104h258q23 -71 23 -148q0 -99 -50.5 -165.5t-147.5 -88.5q141 -135 141 -344zM809 528q0 209 -160 209
t-160 -219q0 -231 162 -231q158 0 158 241z" />
    <glyph glyph-name="Uhorn" unicode="&#x1af;" horiz-adv-x="1689" 
d="M1391 655q0 -345 -157.5 -512.5t-485.5 -167.5q-306 0 -464.5 167.5t-158.5 504.5v787h434v-803q0 -138 51.5 -212.5t147.5 -74.5q97 0 147.5 70t50.5 207v813h321q157 0 157 148q0 49 -16 104h258q23 -71 23 -148q0 -127 -81 -198t-227 -77v-608z" />
    <glyph glyph-name="uhorn" unicode="&#x1b0;" horiz-adv-x="1458" 
d="M754 0v158h-4q-53 -73 -95.5 -107t-96 -55t-124.5 -21q-168 0 -256 109t-88 322v618h426v-586q0 -151 113 -151q125 0 125 157v580h280q78 0 118.5 38.5t40.5 109.5q0 49 -16 104h258q23 -71 23 -148q0 -114 -69 -187t-209 -86v-855h-426z" />
    <glyph glyph-name="hookabovecomb" unicode="&#x309;" horiz-adv-x="623" 
d="M548 1461q0 -76 -54.5 -128t-140.5 -64v-66h-213v177q142 9 142 67q0 59 -107 59q-44 0 -90 -10v170q70 10 125 10q165 0 251.5 -52.5t86.5 -162.5z" />
    <glyph glyph-name="dotbelowcomb" unicode="&#x323;" horiz-adv-x="682" 
d="M534 -267q0 -73 -53 -118.5t-139 -45.5t-139.5 47.5t-53.5 116.5q0 72 53.5 115.5t139.5 43.5q87 0 139.5 -43.5t52.5 -115.5z" />
    <glyph glyph-name="gravecomb" unicode="&#x300;" horiz-adv-x="711" 
d="M385 1186l-356 321h358l299 -321h-301z" />
    <glyph glyph-name="acutecomb" unicode="&#x301;" horiz-adv-x="633" 
d="M285 1186h-301l299 321h358z" />
    <glyph glyph-name="glyph584" horiz-adv-x="1290" 
d="M1006 1363h-242l208 292h358zM632 1186l-148 153l-147 -153h-262l256 321h317l256 -321h-272z" />
    <glyph glyph-name="glyph585" horiz-adv-x="1290" 
d="M-40 1655h358l208 -292h-242zM943 1186l-148 153l-147 -153h-262l256 321h317l256 -321h-272z" />
    <glyph glyph-name="glyph586" horiz-adv-x="1122" 
d="M1102 1576q0 -61 -44 -104t-118 -54v-55h-176v147q118 9 118 56q0 48 -89 48q-35 0 -75 -8v141q58 8 104 8q280 0 280 -179zM632 1186l-148 153l-147 -153h-262l256 321h317l256 -321h-272z" />
    <glyph glyph-name="glyph587" horiz-adv-x="979" 
d="M632 1186l-148 153l-147 -153h-262l256 321h317l256 -321h-272zM886 1874q0 -165 -60 -252.5t-173 -87.5q-88 0 -170 49l-62.5 38t-60.5 18q-38 0 -60 -31t-22 -88h-174q0 170 61.5 255t167.5 85q102 0 189 -58q29 -18 55 -32.5t57 -14.5q34 0 55 29.5t21 89.5h176z" />
    <glyph glyph-name="glyph588" horiz-adv-x="981" 
d="M605 1532h-230l177 292h327zM881 1532q-16 -167 -117 -256.5t-276 -89.5q-169 0 -274.5 95.5t-110.5 250.5h240q10 -55 49 -87t102 -32q62 0 100 32t48 87h239z" />
    <glyph glyph-name="glyph589" horiz-adv-x="981" 
d="M104 1824h327l177 -292h-230zM881 1532q-16 -167 -117 -256.5t-276 -89.5q-169 0 -274.5 95.5t-110.5 250.5h240q10 -55 49 -87t102 -32q62 0 100 32t48 87h239z" />
    <glyph glyph-name="glyph590" horiz-adv-x="981" 
d="M881 1532q-16 -167 -117 -256.5t-276 -89.5q-169 0 -274.5 95.5t-110.5 250.5h240q10 -55 49 -87t102 -32q62 0 100 32t48 87h239zM733 1745q0 -61 -44 -104t-118 -54v-55h-176v147q118 9 118 56q0 48 -89 48q-35 0 -75 -8v141q58 8 104 8q280 0 280 -179z" />
    <glyph glyph-name="glyph591" horiz-adv-x="981" 
d="M900 1917q0 -165 -60 -252.5t-173 -87.5q-93 0 -175 49l-65 38t-63 18q-38 0 -60 -31t-22 -88h-174q0 170 61.5 255t167.5 85q107 0 194 -58q29 -18 57.5 -32.5t59.5 -14.5q34 0 55 29.5t21 89.5h176zM881 1532q-16 -167 -117 -256.5t-276 -89.5q-169 0 -274.5 95.5
t-110.5 250.5h240q10 -55 49 -87t102 -32q62 0 100 32t48 87h239z" />
    <glyph glyph-name="glyph592" horiz-adv-x="623" 
d="M548 1461q0 -76 -54.5 -128t-140.5 -64v-66h-213v177q142 9 142 67q0 59 -107 59q-44 0 -90 -10v170q70 10 125 10q165 0 251.5 -52.5t86.5 -162.5z" />
    <glyph glyph-name="glyph593" horiz-adv-x="979" 
d="M632 1536l-148 153l-147 -153h-262l256 321h317l256 -321h-272zM886 2210q0 -326 -233 -326q-88 0 -170 49l-62.5 38t-60.5 18q-38 0 -60 -31t-22 -88h-174q0 159 58.5 242.5t170.5 83.5q102 0 189 -58q29 -18 55 -32.5t57 -14.5q34 0 55 29.5t21 89.5h176z" />
    <glyph glyph-name="glyph594" horiz-adv-x="981" 
d="M605 1532h-230l177 292h327zM881 1532q-16 -167 -117 -256.5t-276 -89.5q-169 0 -274.5 95.5t-110.5 250.5h240q10 -55 49 -87t102 -32q62 0 100 32t48 87h239z" />
    <glyph glyph-name="glyph595" horiz-adv-x="981" 
d="M104 1824h327l177 -292h-230zM881 1532q-16 -167 -117 -256.5t-276 -89.5q-169 0 -274.5 95.5t-110.5 250.5h240q10 -55 49 -87t102 -32q62 0 100 32t48 87h239z" />
    <glyph glyph-name="glyph596" horiz-adv-x="981" 
d="M733 2035q0 -60 -43 -98.5t-119 -49.5v-55h-176v137q118 9 118 56q0 48 -89 48q-35 0 -75 -8v131q58 8 104 8q142 0 211 -40.5t69 -128.5zM881 1832q-15 -146 -115 -221t-278 -75q-173 0 -277 80t-108 216h240q10 -57 49.5 -88t101.5 -31t101 32t47 87h239z" />
    <glyph glyph-name="glyph597" horiz-adv-x="981" 
d="M900 2207q0 -300 -233 -300q-93 0 -175 49l-65 38t-63 18q-38 0 -60 -31t-22 -88h-174q0 154 61.5 227t167.5 73q107 0 194 -58q29 -18 57.5 -32.5t59.5 -14.5q34 0 55 29.5t21 89.5h176zM881 1862q-16 -159 -118 -242.5t-275 -83.5q-169 0 -275 89.5t-110 236.5h240
q10 -57 49.5 -88t101.5 -31t101 32t47 87h239z" />
    <glyph glyph-name="glyph598" horiz-adv-x="1122" 
d="M1102 1576q0 -61 -44 -104t-118 -54v-55h-176v147q118 9 118 56q0 48 -89 48q-35 0 -75 -8v141q58 8 104 8q280 0 280 -179zM632 1186l-148 153l-147 -153h-262l256 321h317l256 -321h-272z" />
    <glyph glyph-name="uni1EA0" unicode="&#x1ea0;" horiz-adv-x="1536" 
d="M1040 0l-63 264h-428l-68 -264h-467l494 1434h536l465 -1434h-469zM768 1122h-10q-2 -24 -14 -79t-121 -472h274l-100 390q-21 86 -29 161zM961 -267q0 -73 -53 -118.5t-139 -45.5t-139.5 47.5t-53.5 116.5q0 72 53.5 115.5t139.5 43.5q87 0 139.5 -43.5t52.5 -115.5z
" />
    <glyph glyph-name="uni1EA1" unicode="&#x1ea1;" horiz-adv-x="1149" 
d="M670 0v156h-4q-102 -181 -312 -181q-145 0 -227 86t-82 230q0 302 371 350l254 33q0 50 -45 82t-121 32q-172 0 -363 -98v277q83 36 208 59t214 23q261 0 378.5 -111.5t117.5 -372.5v-565h-389zM418 348q0 -42 26.5 -69t75.5 -27q67 0 108.5 50t41.5 128v39l-144 -20
q-108 -18 -108 -101zM767 -267q0 -73 -53 -118.5t-139 -45.5t-139.5 47.5t-53.5 116.5q0 72 53.5 115.5t139.5 43.5q87 0 139.5 -43.5t52.5 -115.5z" />
    <glyph glyph-name="uni1EA2" unicode="&#x1ea2;" horiz-adv-x="1536" 
d="M1040 0l-63 264h-428l-68 -264h-467l494 1434h536l465 -1434h-469zM768 1122h-10q-2 -24 -14 -79t-121 -472h274l-100 390q-21 86 -29 161zM1040 1811q0 -76 -54.5 -128t-140.5 -64v-66h-213v177q142 9 142 67q0 59 -107 59q-44 0 -90 -10v170q70 10 125 10
q165 0 251.5 -52.5t86.5 -162.5z" />
    <glyph glyph-name="uni1EA3" unicode="&#x1ea3;" horiz-adv-x="1149" 
d="M670 0v156h-4q-102 -181 -312 -181q-145 0 -227 86t-82 230q0 302 371 350l254 33q0 50 -45 82t-121 32q-172 0 -363 -98v277q83 36 208 59t214 23q261 0 378.5 -111.5t117.5 -372.5v-565h-389zM418 348q0 -42 26.5 -69t75.5 -27q67 0 108.5 50t41.5 128v39l-144 -20
q-108 -18 -108 -101zM847 1461q0 -76 -54.5 -128t-140.5 -64v-66h-213v177q142 9 142 67q0 59 -107 59q-44 0 -90 -10v170q70 10 125 10q165 0 251.5 -52.5t86.5 -162.5z" />
    <glyph glyph-name="uni1EA4" unicode="&#x1ea4;" horiz-adv-x="1536" 
d="M1040 0l-63 264h-428l-68 -264h-467l494 1434h536l465 -1434h-469zM768 1122h-10q-2 -24 -14 -79t-121 -472h274l-100 390q-21 86 -29 161zM1290 1713h-242l208 292h358zM916 1536l-148 153l-147 -153h-262l256 321h317l256 -321h-272z" />
    <glyph glyph-name="uni1EA5" unicode="&#x1ea5;" horiz-adv-x="1149" 
d="M670 0v156h-4q-102 -181 -312 -181q-145 0 -227 86t-82 230q0 302 371 350l254 33q0 50 -45 82t-121 32q-172 0 -363 -98v277q83 36 208 59t214 23q261 0 378.5 -111.5t117.5 -372.5v-565h-389zM418 348q0 -42 26.5 -69t75.5 -27q67 0 108.5 50t41.5 128v39l-144 -20
q-108 -18 -108 -101zM1112 1363h-242l208 292h358zM738 1186l-148 153l-147 -153h-262l256 321h317l256 -321h-272z" />
    <glyph glyph-name="uni1EA6" unicode="&#x1ea6;" horiz-adv-x="1536" 
d="M1040 0l-63 264h-428l-68 -264h-467l494 1434h536l465 -1434h-469zM768 1122h-10q-2 -24 -14 -79t-121 -472h274l-100 390q-21 86 -29 161zM-66 2005h358l208 -292h-242zM917 1536l-148 153l-147 -153h-262l256 321h317l256 -321h-272z" />
    <glyph glyph-name="uni1EA7" unicode="&#x1ea7;" horiz-adv-x="1149" 
d="M670 0v156h-4q-102 -181 -312 -181q-145 0 -227 86t-82 230q0 302 371 350l254 33q0 50 -45 82t-121 32q-172 0 -363 -98v277q83 36 208 59t214 23q261 0 378.5 -111.5t117.5 -372.5v-565h-389zM418 348q0 -42 26.5 -69t75.5 -27q67 0 108.5 50t41.5 128v39l-144 -20
q-108 -18 -108 -101zM-245 1655h358l208 -292h-242zM738 1186l-148 153l-147 -153h-262l256 321h317l256 -321h-272z" />
    <glyph glyph-name="uni1EA8" unicode="&#x1ea8;" horiz-adv-x="1536" 
d="M1040 0l-63 264h-428l-68 -264h-467l494 1434h536l465 -1434h-469zM768 1122h-10q-2 -24 -14 -79t-121 -472h274l-100 390q-21 86 -29 161zM1386 1926q0 -61 -44 -104t-118 -54v-55h-176v147q118 9 118 56q0 48 -89 48q-35 0 -75 -8v141q58 8 104 8q280 0 280 -179z
M916 1536l-148 153l-147 -153h-262l256 321h317l256 -321h-272z" />
    <glyph glyph-name="uni1EA9" unicode="&#x1ea9;" horiz-adv-x="1149" 
d="M670 0v156h-4q-102 -181 -312 -181q-145 0 -227 86t-82 230q0 302 371 350l254 33q0 50 -45 82t-121 32q-172 0 -363 -98v277q83 36 208 59t214 23q261 0 378.5 -111.5t117.5 -372.5v-565h-389zM418 348q0 -42 26.5 -69t75.5 -27q67 0 108.5 50t41.5 128v39l-144 -20
q-108 -18 -108 -101zM1206 1576q0 -61 -44 -104t-118 -54v-55h-176v147q118 9 118 56q0 48 -89 48q-35 0 -75 -8v141q58 8 104 8q280 0 280 -179zM736 1186l-148 153l-147 -153h-262l256 321h317l256 -321h-272z" />
    <glyph glyph-name="uni1EAA" unicode="&#x1eaa;" horiz-adv-x="1536" 
d="M1040 0l-63 264h-428l-68 -264h-467l494 1434h536l465 -1434h-469zM768 1122h-10q-2 -24 -14 -79t-121 -472h274l-100 390q-21 86 -29 161zM916 1536l-148 153l-147 -153h-262l256 321h317l256 -321h-272zM1170 2210q0 -326 -233 -326q-88 0 -170 49l-62.5 38t-60.5 18
q-38 0 -60 -31t-22 -88h-174q0 159 58.5 242.5t170.5 83.5q102 0 189 -58q29 -18 55 -32.5t57 -14.5q34 0 55 29.5t21 89.5h176z" />
    <glyph glyph-name="uni1EAB" unicode="&#x1eab;" horiz-adv-x="1149" 
d="M670 0v156h-4q-102 -181 -312 -181q-145 0 -227 86t-82 230q0 302 371 350l254 33q0 50 -45 82t-121 32q-172 0 -363 -98v277q83 36 208 59t214 23q261 0 378.5 -111.5t117.5 -372.5v-565h-389zM418 348q0 -42 26.5 -69t75.5 -27q67 0 108.5 50t41.5 128v39l-144 -20
q-108 -18 -108 -101zM738 1186l-148 153l-147 -153h-262l256 321h317l256 -321h-272zM992 1874q0 -165 -60 -252.5t-173 -87.5q-88 0 -170 49l-62.5 38t-60.5 18q-38 0 -60 -31t-22 -88h-174q0 170 61.5 255t167.5 85q102 0 189 -58q29 -18 55 -32.5t57 -14.5q34 0 55 29.5
t21 89.5h176z" />
    <glyph glyph-name="uni1EAC" unicode="&#x1eac;" horiz-adv-x="1536" 
d="M1040 0l-63 264h-428l-68 -264h-467l494 1434h536l465 -1434h-469zM768 1122h-10q-2 -24 -14 -79t-121 -472h274l-100 390q-21 86 -29 161zM960 -267q0 -73 -53 -118.5t-139 -45.5t-139.5 47.5t-53.5 116.5q0 72 53.5 115.5t139.5 43.5q87 0 139.5 -43.5t52.5 -115.5z
M914 1567l-148 153l-147 -153h-262l256 321h317l256 -321h-272z" />
    <glyph glyph-name="uni1EAD" unicode="&#x1ead;" horiz-adv-x="1149" 
d="M670 0v156h-4q-102 -181 -312 -181q-145 0 -227 86t-82 230q0 302 371 350l254 33q0 50 -45 82t-121 32q-172 0 -363 -98v277q83 36 208 59t214 23q261 0 378.5 -111.5t117.5 -372.5v-565h-389zM418 348q0 -42 26.5 -69t75.5 -27q67 0 108.5 50t41.5 128v39l-144 -20
q-108 -18 -108 -101zM725 1186l-148 153l-147 -153h-262l256 321h317l256 -321h-272zM767 -267q0 -73 -53 -118.5t-139 -45.5t-139.5 47.5t-53.5 116.5q0 72 53.5 115.5t139.5 43.5q87 0 139.5 -43.5t52.5 -115.5z" />
    <glyph glyph-name="uni1EAE" unicode="&#x1eae;" horiz-adv-x="1536" 
d="M1040 0l-63 264h-428l-68 -264h-467l494 1434h536l465 -1434h-469zM768 1122h-10q-2 -24 -14 -79t-121 -472h274l-100 390q-21 86 -29 161zM881 1882h-230l177 292h327zM1157 1882q-16 -167 -117 -256.5t-276 -89.5q-169 0 -274.5 95.5t-110.5 250.5h240q10 -55 49 -87
t102 -32q62 0 100 32t48 87h239z" />
    <glyph glyph-name="uni1EAF" unicode="&#x1eaf;" horiz-adv-x="1149" 
d="M670 0v156h-4q-102 -181 -312 -181q-145 0 -227 86t-82 230q0 302 371 350l254 33q0 50 -45 82t-121 32q-172 0 -363 -98v277q83 36 208 59t214 23q261 0 378.5 -111.5t117.5 -372.5v-565h-389zM418 348q0 -42 26.5 -69t75.5 -27q67 0 108.5 50t41.5 128v39l-144 -20
q-108 -18 -108 -101zM702 1532h-230l177 292h327zM978 1532q-16 -167 -117 -256.5t-276 -89.5q-169 0 -274.5 95.5t-110.5 250.5h240q10 -55 49 -87t102 -32q62 0 100 32t48 87h239z" />
    <glyph glyph-name="uni1EB0" unicode="&#x1eb0;" horiz-adv-x="1536" 
d="M1040 0l-63 264h-428l-68 -264h-467l494 1434h536l465 -1434h-469zM768 1122h-10q-2 -24 -14 -79t-121 -472h274l-100 390q-21 86 -29 161zM380 2174h327l177 -292h-230zM1157 1882q-16 -167 -117 -256.5t-276 -89.5q-169 0 -274.5 95.5t-110.5 250.5h240q10 -55 49 -87
t102 -32q62 0 100 32t48 87h239z" />
    <glyph glyph-name="uni1EB1" unicode="&#x1eb1;" horiz-adv-x="1149" 
d="M670 0v156h-4q-102 -181 -312 -181q-145 0 -227 86t-82 230q0 302 371 350l254 33q0 50 -45 82t-121 32q-172 0 -363 -98v277q83 36 208 59t214 23q261 0 378.5 -111.5t117.5 -372.5v-565h-389zM418 348q0 -42 26.5 -69t75.5 -27q67 0 108.5 50t41.5 128v39l-144 -20
q-108 -18 -108 -101zM202 1824h327l177 -292h-230zM979 1532q-16 -167 -117 -256.5t-276 -89.5q-169 0 -274.5 95.5t-110.5 250.5h240q10 -55 49 -87t102 -32q62 0 100 32t48 87h239z" />
    <glyph glyph-name="uni1EB2" unicode="&#x1eb2;" horiz-adv-x="1536" 
d="M1040 0l-63 264h-428l-68 -264h-467l494 1434h536l465 -1434h-469zM768 1122h-10q-2 -24 -14 -79t-121 -472h274l-100 390q-21 86 -29 161zM1009 2035q0 -60 -43 -98.5t-119 -49.5v-55h-176v137q118 9 118 56q0 48 -89 48q-35 0 -75 -8v131q58 8 104 8q142 0 211 -40.5
t69 -128.5zM1157 1832q-15 -146 -115 -221t-278 -75q-173 0 -277 80t-108 216h240q10 -57 49.5 -88t101.5 -31t101 32t47 87h239z" />
    <glyph glyph-name="uni1EB3" unicode="&#x1eb3;" horiz-adv-x="1149" 
d="M670 0v156h-4q-102 -181 -312 -181q-145 0 -227 86t-82 230q0 302 371 350l254 33q0 50 -45 82t-121 32q-172 0 -363 -98v277q83 36 208 59t214 23q261 0 378.5 -111.5t117.5 -372.5v-565h-389zM418 348q0 -42 26.5 -69t75.5 -27q67 0 108.5 50t41.5 128v39l-144 -20
q-108 -18 -108 -101zM972 1532q-16 -167 -117 -256.5t-276 -89.5q-169 0 -274.5 95.5t-110.5 250.5h240q10 -55 49 -87t102 -32q62 0 100 32t48 87h239zM824 1745q0 -61 -44 -104t-118 -54v-55h-176v147q118 9 118 56q0 48 -89 48q-35 0 -75 -8v141q58 8 104 8
q280 0 280 -179z" />
    <glyph glyph-name="uni1EB4" unicode="&#x1eb4;" horiz-adv-x="1536" 
d="M1040 0l-63 264h-428l-68 -264h-467l494 1434h536l465 -1434h-469zM768 1122h-10q-2 -24 -14 -79t-121 -472h274l-100 390q-21 86 -29 161zM1176 2207q0 -300 -233 -300q-93 0 -175 49l-65 38t-63 18q-38 0 -60 -31t-22 -88h-174q0 154 61.5 227t167.5 73q107 0 194 -58
q29 -18 57.5 -32.5t59.5 -14.5q34 0 55 29.5t21 89.5h176zM1157 1862q-16 -159 -118 -242.5t-275 -83.5q-169 0 -275 89.5t-110 236.5h240q10 -57 49.5 -88t101.5 -31t101 32t47 87h239z" />
    <glyph glyph-name="uni1EB5" unicode="&#x1eb5;" horiz-adv-x="1149" 
d="M670 0v156h-4q-102 -181 -312 -181q-145 0 -227 86t-82 230q0 302 371 350l254 33q0 50 -45 82t-121 32q-172 0 -363 -98v277q83 36 208 59t214 23q261 0 378.5 -111.5t117.5 -372.5v-565h-389zM418 348q0 -42 26.5 -69t75.5 -27q67 0 108.5 50t41.5 128v39l-144 -20
q-108 -18 -108 -101zM999 1917q0 -165 -60 -252.5t-173 -87.5q-93 0 -175 49l-65 38t-63 18q-38 0 -60 -31t-22 -88h-174q0 170 61.5 255t167.5 85q107 0 194 -58q29 -18 57.5 -32.5t59.5 -14.5q34 0 55 29.5t21 89.5h176zM980 1532q-16 -167 -117 -256.5t-276 -89.5
q-169 0 -274.5 95.5t-110.5 250.5h240q10 -55 49 -87t102 -32q62 0 100 32t48 87h239z" />
    <glyph glyph-name="uni1EB6" unicode="&#x1eb6;" horiz-adv-x="1536" 
d="M1040 0l-63 264h-428l-68 -264h-467l494 1434h536l465 -1434h-469zM768 1122h-10q-2 -24 -14 -79t-121 -472h274l-100 390q-21 86 -29 161zM1156 1913q-16 -167 -117 -256.5t-276 -89.5q-112 0 -199 44t-136 124t-50 178h240q10 -55 49 -87t102 -32q62 0 100 32t48 87
h239zM960 -267q0 -73 -53 -118.5t-139 -45.5t-139.5 47.5t-53.5 116.5q0 72 53.5 115.5t139.5 43.5q87 0 139.5 -43.5t52.5 -115.5z" />
    <glyph glyph-name="uni1EB7" unicode="&#x1eb7;" horiz-adv-x="1149" 
d="M670 0v156h-4q-102 -181 -312 -181q-145 0 -227 86t-82 230q0 302 371 350l254 33q0 50 -45 82t-121 32q-172 0 -363 -98v277q83 36 208 59t214 23q261 0 378.5 -111.5t117.5 -372.5v-565h-389zM418 348q0 -42 26.5 -69t75.5 -27q67 0 108.5 50t41.5 128v39l-144 -20
q-108 -18 -108 -101zM979 1532q-16 -167 -117 -256.5t-276 -89.5q-112 0 -199 44t-136 124t-50 178h240q10 -55 49 -87t102 -32q62 0 100 32t48 87h239zM766 -267q0 -73 -53 -118.5t-139 -45.5t-139.5 47.5t-53.5 116.5q0 72 53.5 115.5t139.5 43.5q87 0 139.5 -43.5
t52.5 -115.5z" />
    <glyph glyph-name="uni1EB8" unicode="&#x1eb8;" horiz-adv-x="1130" 
d="M141 0v1434h893v-338h-461v-209h433v-338h-433v-211h494v-338h-926zM758 -267q0 -73 -53 -118.5t-139 -45.5t-139.5 47.5t-53.5 116.5q0 72 53.5 115.5t139.5 43.5q87 0 139.5 -43.5t52.5 -115.5z" />
    <glyph glyph-name="uni1EB9" unicode="&#x1eb9;" horiz-adv-x="1147" 
d="M469 391q11 -66 76 -103.5t172 -37.5q149 0 282 57v-270q-155 -62 -376 -62q-268 0 -417 137t-149 377q0 165 65.5 291t194 197.5t283.5 71.5q159 0 272 -62t171.5 -174t58.5 -262v-160h-633zM725 614q0 177 -127 177q-53 0 -89 -48.5t-42 -128.5h258zM766 -267
q0 -73 -53 -118.5t-139 -45.5t-139.5 47.5t-53.5 116.5q0 72 53.5 115.5t139.5 43.5q87 0 139.5 -43.5t52.5 -115.5z" />
    <glyph glyph-name="uni1EBA" unicode="&#x1eba;" horiz-adv-x="1130" 
d="M141 0v1434h893v-338h-461v-209h433v-338h-433v-211h494v-338h-926zM845 1809q0 -76 -54.5 -128t-140.5 -64v-66h-213v177q142 9 142 67q0 59 -107 59q-44 0 -90 -10v170q70 10 125 10q165 0 251.5 -52.5t86.5 -162.5z" />
    <glyph glyph-name="uni1EBB" unicode="&#x1ebb;" horiz-adv-x="1147" 
d="M469 391q11 -66 76 -103.5t172 -37.5q149 0 282 57v-270q-155 -62 -376 -62q-268 0 -417 137t-149 377q0 165 65.5 291t194 197.5t283.5 71.5q159 0 272 -62t171.5 -174t58.5 -262v-160h-633zM725 614q0 177 -127 177q-53 0 -89 -48.5t-42 -128.5h258zM835 1461
q0 -76 -54.5 -128t-140.5 -64v-66h-213v177q142 9 142 67q0 59 -107 59q-44 0 -90 -10v170q70 10 125 10q165 0 251.5 -52.5t86.5 -162.5z" />
    <glyph glyph-name="uni1EBC" unicode="&#x1ebc;" horiz-adv-x="1130" 
d="M141 0v1434h893v-338h-461v-209h433v-338h-433v-211h494v-338h-926zM991 1888q0 -165 -60 -252.5t-173 -87.5q-88 0 -170 49l-62.5 38t-60.5 18q-38 0 -60 -31t-22 -88h-174q0 170 61.5 255t167.5 85q102 0 189 -58q29 -18 55 -32.5t57 -14.5q34 0 55 29.5t21 89.5h176z
" />
    <glyph glyph-name="uni1EBD" unicode="&#x1ebd;" horiz-adv-x="1147" 
d="M469 391q11 -66 76 -103.5t172 -37.5q149 0 282 57v-270q-155 -62 -376 -62q-268 0 -417 137t-149 377q0 165 65.5 291t194 197.5t283.5 71.5q159 0 272 -62t171.5 -174t58.5 -262v-160h-633zM725 614q0 177 -127 177q-53 0 -89 -48.5t-42 -128.5h258zM986 1540
q0 -165 -60 -252.5t-173 -87.5q-88 0 -170 49l-62.5 38t-60.5 18q-38 0 -60 -31t-22 -88h-174q0 170 61.5 255t167.5 85q102 0 189 -58q29 -18 55 -32.5t57 -14.5q34 0 55 29.5t21 89.5h176z" />
    <glyph glyph-name="uni1EBE" unicode="&#x1ebe;" horiz-adv-x="1130" 
d="M141 0v1434h893v-338h-461v-209h433v-338h-433v-211h494v-338h-926zM1100 1713h-242l208 292h358zM726 1536l-148 153l-147 -153h-262l256 321h317l256 -321h-272z" />
    <glyph glyph-name="uni1EBF" unicode="&#x1ebf;" horiz-adv-x="1147" 
d="M469 391q11 -66 76 -103.5t172 -37.5q149 0 282 57v-270q-155 -62 -376 -62q-268 0 -417 137t-149 377q0 165 65.5 291t194 197.5t283.5 71.5q159 0 272 -62t171.5 -174t58.5 -262v-160h-633zM725 614q0 177 -127 177q-53 0 -89 -48.5t-42 -128.5h258zM1107 1363h-242
l208 292h358zM733 1186l-148 153l-147 -153h-262l256 321h317l256 -321h-272z" />
    <glyph glyph-name="uni1EC0" unicode="&#x1ec0;" horiz-adv-x="1130" 
d="M141 0v1434h893v-338h-461v-209h433v-338h-433v-211h494v-338h-926zM-256 2005h358l208 -292h-242zM727 1536l-148 153l-147 -153h-262l256 321h317l256 -321h-272z" />
    <glyph glyph-name="uni1EC1" unicode="&#x1ec1;" horiz-adv-x="1147" 
d="M469 391q11 -66 76 -103.5t172 -37.5q149 0 282 57v-270q-155 -62 -376 -62q-268 0 -417 137t-149 377q0 165 65.5 291t194 197.5t283.5 71.5q159 0 272 -62t171.5 -174t58.5 -262v-160h-633zM725 614q0 177 -127 177q-53 0 -89 -48.5t-42 -128.5h258zM-249 1655h358
l208 -292h-242zM734 1186l-148 153l-147 -153h-262l256 321h317l256 -321h-272z" />
    <glyph glyph-name="uni1EC2" unicode="&#x1ec2;" horiz-adv-x="1130" 
d="M141 0v1434h893v-338h-461v-209h433v-338h-433v-211h494v-338h-926zM1196 1924q0 -61 -44 -104t-118 -54v-55h-176v147q118 9 118 56q0 48 -89 48q-35 0 -75 -8v141q58 8 104 8q280 0 280 -179zM726 1534l-148 153l-147 -153h-262l256 321h317l256 -321h-272z" />
    <glyph glyph-name="uni1EC3" unicode="&#x1ec3;" horiz-adv-x="1147" 
d="M469 391q11 -66 76 -103.5t172 -37.5q149 0 282 57v-270q-155 -62 -376 -62q-268 0 -417 137t-149 377q0 165 65.5 291t194 197.5t283.5 71.5q159 0 272 -62t171.5 -174t58.5 -262v-160h-633zM725 614q0 177 -127 177q-53 0 -89 -48.5t-42 -128.5h258zM1203 1576
q0 -61 -44 -104t-118 -54v-55h-176v147q118 9 118 56q0 48 -89 48q-35 0 -75 -8v141q58 8 104 8q280 0 280 -179zM733 1186l-148 153l-147 -153h-262l256 321h317l256 -321h-272z" />
    <glyph glyph-name="uni1EC4" unicode="&#x1ec4;" horiz-adv-x="1130" 
d="M141 0v1434h893v-338h-461v-209h433v-338h-433v-211h494v-338h-926zM726 1536l-148 153l-147 -153h-262l256 321h317l256 -321h-272zM980 2210q0 -326 -233 -326q-88 0 -170 49l-62.5 38t-60.5 18q-38 0 -60 -31t-22 -88h-174q0 159 58.5 242.5t170.5 83.5q102 0 189 -58
q29 -18 55 -32.5t57 -14.5q34 0 55 29.5t21 89.5h176z" />
    <glyph glyph-name="uni1EC5" unicode="&#x1ec5;" horiz-adv-x="1147" 
d="M469 391q11 -66 76 -103.5t172 -37.5q149 0 282 57v-270q-155 -62 -376 -62q-268 0 -417 137t-149 377q0 165 65.5 291t194 197.5t283.5 71.5q159 0 272 -62t171.5 -174t58.5 -262v-160h-633zM725 614q0 177 -127 177q-53 0 -89 -48.5t-42 -128.5h258zM733 1186l-148 153
l-147 -153h-262l256 321h317l256 -321h-272zM987 1874q0 -165 -60 -252.5t-173 -87.5q-88 0 -170 49l-62.5 38t-60.5 18q-38 0 -60 -31t-22 -88h-174q0 170 61.5 255t167.5 85q102 0 189 -58q29 -18 55 -32.5t57 -14.5q34 0 55 29.5t21 89.5h176z" />
    <glyph glyph-name="uni1EC6" unicode="&#x1ec6;" horiz-adv-x="1130" 
d="M141 0v1434h893v-338h-461v-209h433v-338h-433v-211h494v-338h-926zM726 1567l-148 153l-147 -153h-262l256 321h317l256 -321h-272zM778 -267q0 -73 -53 -118.5t-139 -45.5t-139.5 47.5t-53.5 116.5q0 72 53.5 115.5t139.5 43.5q87 0 139.5 -43.5t52.5 -115.5z" />
    <glyph glyph-name="uni1EC7" unicode="&#x1ec7;" horiz-adv-x="1147" 
d="M469 391q11 -66 76 -103.5t172 -37.5q149 0 282 57v-270q-155 -62 -376 -62q-268 0 -417 137t-149 377q0 165 65.5 291t194 197.5t283.5 71.5q159 0 272 -62t171.5 -174t58.5 -262v-160h-633zM725 614q0 177 -127 177q-53 0 -89 -48.5t-42 -128.5h258zM733 1186l-148 153
l-147 -153h-262l256 321h317l256 -321h-272zM788 -267q0 -73 -53 -118.5t-139 -45.5t-139.5 47.5t-53.5 116.5q0 72 53.5 115.5t139.5 43.5q87 0 139.5 -43.5t52.5 -115.5z" />
    <glyph glyph-name="uni1EC8" unicode="&#x1ec8;" horiz-adv-x="714" 
d="M141 0v1434h432v-1434h-432zM640 1809q0 -76 -54.5 -128t-140.5 -64v-66h-213v177q142 9 142 67q0 59 -107 59q-44 0 -90 -10v170q70 10 125 10q165 0 251.5 -52.5t86.5 -162.5z" />
    <glyph glyph-name="uni1EC9" unicode="&#x1ec9;" horiz-adv-x="631" 
d="M102 0v1024h426v-1024h-426zM570 1461q0 -76 -54.5 -128t-140.5 -64v-66h-213v177q142 9 142 67q0 59 -107 59q-44 0 -90 -10v170q70 10 125 10q165 0 251.5 -52.5t86.5 -162.5z" />
    <glyph glyph-name="uni1ECA" unicode="&#x1eca;" horiz-adv-x="714" 
d="M141 0v1434h432v-1434h-432zM561 -267q0 -73 -53 -118.5t-139 -45.5t-139.5 47.5t-53.5 116.5q0 72 53.5 115.5t139.5 43.5q87 0 139.5 -43.5t52.5 -115.5z" />
    <glyph glyph-name="uni1ECB" unicode="&#x1ecb;" horiz-adv-x="631" 
d="M553 1300q0 -90 -65.5 -146t-172.5 -56q-104 0 -170.5 58t-66.5 144q0 88 64.5 142.5t172.5 54.5q107 0 172.5 -54.5t65.5 -142.5zM102 0v1024h426v-1024h-426zM509 -267q0 -73 -53 -118.5t-139 -45.5t-139.5 47.5t-53.5 116.5q0 72 53.5 115.5t139.5 43.5
q87 0 139.5 -43.5t52.5 -115.5z" />
    <glyph glyph-name="uni1ECC" unicode="&#x1ecc;" horiz-adv-x="1567" 
d="M1505 721q0 -216 -93 -386.5t-260 -265t-374 -94.5q-202 0 -367.5 91.5t-257.5 257t-92 374.5q0 219 93 394t261 270.5t382 95.5q206 0 368.5 -91.5t251 -261t88.5 -384.5zM1047 709q0 177 -68 279t-186 102q-129 0 -201 -98t-72 -277q0 -175 71.5 -273t194.5 -98
q75 0 135 44t93 126t33 195zM976 -267q0 -73 -53 -118.5t-139 -45.5t-139.5 47.5t-53.5 116.5q0 72 53.5 115.5t139.5 43.5q87 0 139.5 -43.5t52.5 -115.5z" />
    <glyph glyph-name="uni1ECD" unicode="&#x1ecd;" horiz-adv-x="1298" 
d="M1241 530q0 -259 -156.5 -407t-437.5 -148q-279 0 -434.5 144.5t-155.5 398.5q0 163 73 283t208 184t311 64q182 0 315.5 -67t205 -186t71.5 -266zM809 528q0 209 -160 209t-160 -219q0 -231 162 -231q158 0 158 241zM842 -267q0 -73 -53 -118.5t-139 -45.5t-139.5 47.5
t-53.5 116.5q0 72 53.5 115.5t139.5 43.5q87 0 139.5 -43.5t52.5 -115.5z" />
    <glyph glyph-name="uni1ECE" unicode="&#x1ece;" horiz-adv-x="1567" 
d="M1505 721q0 -216 -93 -386.5t-260 -265t-374 -94.5q-202 0 -367.5 91.5t-257.5 257t-92 374.5q0 219 93 394t261 270.5t382 95.5q206 0 368.5 -91.5t251 -261t88.5 -384.5zM1047 709q0 177 -68 279t-186 102q-129 0 -201 -98t-72 -277q0 -175 71.5 -273t194.5 -98
q75 0 135 44t93 126t33 195zM1060 1809q0 -76 -54.5 -128t-140.5 -64v-66h-213v177q142 9 142 67q0 59 -107 59q-44 0 -90 -10v170q70 10 125 10q165 0 251.5 -52.5t86.5 -162.5z" />
    <glyph glyph-name="uni1ECF" unicode="&#x1ecf;" horiz-adv-x="1298" 
d="M1241 530q0 -259 -156.5 -407t-437.5 -148q-279 0 -434.5 144.5t-155.5 398.5q0 163 73 283t208 184t311 64q182 0 315.5 -67t205 -186t71.5 -266zM809 528q0 209 -160 209t-160 -219q0 -231 162 -231q158 0 158 241zM921 1461q0 -76 -54.5 -128t-140.5 -64v-66h-213v177
q142 9 142 67q0 59 -107 59q-44 0 -90 -10v170q70 10 125 10q165 0 251.5 -52.5t86.5 -162.5z" />
    <glyph glyph-name="uni1ED0" unicode="&#x1ed0;" horiz-adv-x="1567" 
d="M1505 721q0 -216 -93 -386.5t-260 -265t-374 -94.5q-202 0 -367.5 91.5t-257.5 257t-92 374.5q0 219 93 394t261 270.5t382 95.5q206 0 368.5 -91.5t251 -261t88.5 -384.5zM1047 709q0 177 -68 279t-186 102q-129 0 -201 -98t-72 -277q0 -175 71.5 -273t194.5 -98
q75 0 135 44t93 126t33 195zM1305 1713h-242l208 292h358zM931 1536l-148 153l-147 -153h-262l256 321h317l256 -321h-272z" />
    <glyph glyph-name="uni1ED1" unicode="&#x1ed1;" horiz-adv-x="1298" 
d="M1241 530q0 -259 -156.5 -407t-437.5 -148q-279 0 -434.5 144.5t-155.5 398.5q0 163 73 283t208 184t311 64q182 0 315.5 -67t205 -186t71.5 -266zM809 528q0 209 -160 209t-160 -219q0 -231 162 -231q158 0 158 241zM1170 1363h-242l208 292h358zM796 1186l-148 153
l-147 -153h-262l256 321h317l256 -321h-272z" />
    <glyph glyph-name="uni1ED2" unicode="&#x1ed2;" horiz-adv-x="1567" 
d="M1505 721q0 -216 -93 -386.5t-260 -265t-374 -94.5q-202 0 -367.5 91.5t-257.5 257t-92 374.5q0 219 93 394t261 270.5t382 95.5q206 0 368.5 -91.5t251 -261t88.5 -384.5zM1047 709q0 177 -68 279t-186 102q-129 0 -201 -98t-72 -277q0 -175 71.5 -273t194.5 -98
q75 0 135 44t93 126t33 195zM-51 2005h358l208 -292h-242zM932 1536l-148 153l-147 -153h-262l256 321h317l256 -321h-272z" />
    <glyph glyph-name="uni1ED3" unicode="&#x1ed3;" horiz-adv-x="1298" 
d="M1241 530q0 -259 -156.5 -407t-437.5 -148q-279 0 -434.5 144.5t-155.5 398.5q0 163 73 283t208 184t311 64q182 0 315.5 -67t205 -186t71.5 -266zM809 528q0 209 -160 209t-160 -219q0 -231 162 -231q158 0 158 241zM-185 1655h358l208 -292h-242zM798 1186l-148 153
l-147 -153h-262l256 321h317l256 -321h-272z" />
    <glyph glyph-name="uni1ED4" unicode="&#x1ed4;" horiz-adv-x="1567" 
d="M1505 721q0 -216 -93 -386.5t-260 -265t-374 -94.5q-202 0 -367.5 91.5t-257.5 257t-92 374.5q0 219 93 394t261 270.5t382 95.5q206 0 368.5 -91.5t251 -261t88.5 -384.5zM1047 709q0 177 -68 279t-186 102q-129 0 -201 -98t-72 -277q0 -175 71.5 -273t194.5 -98
q75 0 135 44t93 126t33 195zM1401 1926q0 -61 -44 -104t-118 -54v-55h-176v147q118 9 118 56q0 48 -89 48q-35 0 -75 -8v141q58 8 104 8q280 0 280 -179zM931 1536l-148 153l-147 -153h-262l256 321h317l256 -321h-272z" />
    <glyph glyph-name="uni1ED5" unicode="&#x1ed5;" horiz-adv-x="1298" 
d="M1241 530q0 -259 -156.5 -407t-437.5 -148q-279 0 -434.5 144.5t-155.5 398.5q0 163 73 283t208 184t311 64q182 0 315.5 -67t205 -186t71.5 -266zM809 528q0 209 -160 209t-160 -219q0 -231 162 -231q158 0 158 241zM1266 1576q0 -61 -44 -104t-118 -54v-55h-176v147
q118 9 118 56q0 48 -89 48q-35 0 -75 -8v141q58 8 104 8q280 0 280 -179zM796 1186l-148 153l-147 -153h-262l256 321h317l256 -321h-272z" />
    <glyph glyph-name="uni1ED6" unicode="&#x1ed6;" horiz-adv-x="1567" 
d="M1505 721q0 -216 -93 -386.5t-260 -265t-374 -94.5q-202 0 -367.5 91.5t-257.5 257t-92 374.5q0 219 93 394t261 270.5t382 95.5q206 0 368.5 -91.5t251 -261t88.5 -384.5zM1047 709q0 177 -68 279t-186 102q-129 0 -201 -98t-72 -277q0 -175 71.5 -273t194.5 -98
q75 0 135 44t93 126t33 195zM931 1536l-148 153l-147 -153h-262l256 321h317l256 -321h-272zM1185 2210q0 -326 -233 -326q-88 0 -170 49l-62.5 38t-60.5 18q-38 0 -60 -31t-22 -88h-174q0 159 58.5 242.5t170.5 83.5q102 0 189 -58q29 -18 55 -32.5t57 -14.5q34 0 55 29.5
t21 89.5h176z" />
    <glyph glyph-name="uni1ED7" unicode="&#x1ed7;" horiz-adv-x="1298" 
d="M1241 530q0 -259 -156.5 -407t-437.5 -148q-279 0 -434.5 144.5t-155.5 398.5q0 163 73 283t208 184t311 64q182 0 315.5 -67t205 -186t71.5 -266zM809 528q0 209 -160 209t-160 -219q0 -231 162 -231q158 0 158 241zM797 1186l-148 153l-147 -153h-262l256 321h317
l256 -321h-272zM1051 1874q0 -165 -60 -252.5t-173 -87.5q-88 0 -170 49l-62.5 38t-60.5 18q-38 0 -60 -31t-22 -88h-174q0 170 61.5 255t167.5 85q102 0 189 -58q29 -18 55 -32.5t57 -14.5q34 0 55 29.5t21 89.5h176z" />
    <glyph glyph-name="uni1ED8" unicode="&#x1ed8;" horiz-adv-x="1567" 
d="M1505 721q0 -216 -93 -386.5t-260 -265t-374 -94.5q-202 0 -367.5 91.5t-257.5 257t-92 374.5q0 219 93 394t261 270.5t382 95.5q206 0 368.5 -91.5t251 -261t88.5 -384.5zM1047 709q0 177 -68 279t-186 102q-129 0 -201 -98t-72 -277q0 -175 71.5 -273t194.5 -98
q75 0 135 44t93 126t33 195zM930 1567l-148 153l-147 -153h-262l256 321h317l256 -321h-272zM976 -267q0 -73 -53 -118.5t-139 -45.5t-139.5 47.5t-53.5 116.5q0 72 53.5 115.5t139.5 43.5q87 0 139.5 -43.5t52.5 -115.5z" />
    <glyph glyph-name="uni1ED9" unicode="&#x1ed9;" horiz-adv-x="1298" 
d="M1241 530q0 -259 -156.5 -407t-437.5 -148q-279 0 -434.5 144.5t-155.5 398.5q0 163 73 283t208 184t311 64q182 0 315.5 -67t205 -186t71.5 -266zM809 528q0 209 -160 209t-160 -219q0 -231 162 -231q158 0 158 241zM795 1186l-148 153l-147 -153h-262l256 321h317
l256 -321h-272zM842 -267q0 -73 -53 -118.5t-139 -45.5t-139.5 47.5t-53.5 116.5q0 72 53.5 115.5t139.5 43.5q87 0 139.5 -43.5t52.5 -115.5z" />
    <glyph glyph-name="uni1EDA" unicode="&#x1eda;" horiz-adv-x="1618" 
d="M1505 721q0 -216 -93 -386.5t-260 -265t-374 -94.5q-202 0 -367.5 91.5t-257.5 257t-92 374.5q0 219 93 394t261 270.5t382 95.5q83 0 163.5 -17.5t180.5 -61.5q47 -20 93 -20q65 0 97 36.5t32 99.5q0 49 -16 104h258q23 -71 23 -148q0 -115 -67 -185t-196 -78
q140 -192 140 -467zM1047 709q0 177 -68 279t-186 102q-129 0 -201 -98t-72 -277q0 -175 71.5 -273t194.5 -98q75 0 135 44t93 126t33 195zM830 1567h-301l299 321h358z" />
    <glyph glyph-name="uni1EDB" unicode="&#x1edb;" horiz-adv-x="1298" 
d="M1241 530q0 -259 -156.5 -407t-437.5 -148q-279 0 -434.5 144.5t-155.5 398.5q0 163 73 283t208 184t311 64q61 0 129 -7t116 -7q71 0 105 37t34 100q0 49 -16 104h258q23 -71 23 -148q0 -99 -50.5 -165.5t-147.5 -88.5q141 -135 141 -344zM809 528q0 209 -160 209
t-160 -219q0 -231 162 -231q158 0 158 241zM702 1186h-301l299 321h358z" />
    <glyph glyph-name="uni1EDC" unicode="&#x1edc;" horiz-adv-x="1618" 
d="M1505 721q0 -216 -93 -386.5t-260 -265t-374 -94.5q-202 0 -367.5 91.5t-257.5 257t-92 374.5q0 219 93 394t261 270.5t382 95.5q83 0 163.5 -17.5t180.5 -61.5q47 -20 93 -20q65 0 97 36.5t32 99.5q0 49 -16 104h258q23 -71 23 -148q0 -115 -67 -185t-196 -78
q140 -192 140 -467zM1047 709q0 177 -68 279t-186 102q-129 0 -201 -98t-72 -277q0 -175 71.5 -273t194.5 -98q75 0 135 44t93 126t33 195zM727 1567l-356 321h358l299 -321h-301z" />
    <glyph glyph-name="uni1EDD" unicode="&#x1edd;" horiz-adv-x="1298" 
d="M1241 530q0 -259 -156.5 -407t-437.5 -148q-279 0 -434.5 144.5t-155.5 398.5q0 163 73 283t208 184t311 64q61 0 129 -7t116 -7q71 0 105 37t34 100q0 49 -16 104h258q23 -71 23 -148q0 -99 -50.5 -165.5t-147.5 -88.5q141 -135 141 -344zM809 528q0 209 -160 209
t-160 -219q0 -231 162 -231q158 0 158 241zM597 1186l-356 321h358l299 -321h-301z" />
    <glyph glyph-name="uni1EDE" unicode="&#x1ede;" horiz-adv-x="1618" 
d="M1505 721q0 -216 -93 -386.5t-260 -265t-374 -94.5q-202 0 -367.5 91.5t-257.5 257t-92 374.5q0 219 93 394t261 270.5t382 95.5q83 0 163.5 -17.5t180.5 -61.5q47 -20 93 -20q65 0 97 36.5t32 99.5q0 49 -16 104h258q23 -71 23 -148q0 -115 -67 -185t-196 -78
q140 -192 140 -467zM1047 709q0 177 -68 279t-186 102q-129 0 -201 -98t-72 -277q0 -175 71.5 -273t194.5 -98q75 0 135 44t93 126t33 195zM1060 1809q0 -76 -54.5 -128t-140.5 -64v-66h-213v177q142 9 142 67q0 59 -107 59q-44 0 -90 -10v170q70 10 125 10
q165 0 251.5 -52.5t86.5 -162.5z" />
    <glyph glyph-name="uni1EDF" unicode="&#x1edf;" horiz-adv-x="1298" 
d="M1241 530q0 -259 -156.5 -407t-437.5 -148q-279 0 -434.5 144.5t-155.5 398.5q0 163 73 283t208 184t311 64q61 0 129 -7t116 -7q71 0 105 37t34 100q0 49 -16 104h258q23 -71 23 -148q0 -99 -50.5 -165.5t-147.5 -88.5q141 -135 141 -344zM809 528q0 209 -160 209
t-160 -219q0 -231 162 -231q158 0 158 241zM921 1461q0 -76 -54.5 -128t-140.5 -64v-66h-213v177q142 9 142 67q0 59 -107 59q-44 0 -90 -10v170q70 10 125 10q165 0 251.5 -52.5t86.5 -162.5z" />
    <glyph glyph-name="uni1EE0" unicode="&#x1ee0;" horiz-adv-x="1618" 
d="M1505 721q0 -216 -93 -386.5t-260 -265t-374 -94.5q-202 0 -367.5 91.5t-257.5 257t-92 374.5q0 219 93 394t261 270.5t382 95.5q83 0 163.5 -17.5t180.5 -61.5q47 -20 93 -20q65 0 97 36.5t32 99.5q0 49 -16 104h258q23 -71 23 -148q0 -115 -67 -185t-196 -78
q140 -192 140 -467zM1047 709q0 177 -68 279t-186 102q-129 0 -201 -98t-72 -277q0 -175 71.5 -273t194.5 -98q75 0 135 44t93 126t33 195zM1179 1921q0 -165 -60 -252.5t-173 -87.5q-88 0 -170 49l-62.5 38t-60.5 18q-38 0 -60 -31t-22 -88h-174q0 170 61.5 255t167.5 85
q102 0 189 -58q29 -18 55 -32.5t57 -14.5q34 0 55 29.5t21 89.5h176z" />
    <glyph glyph-name="uni1EE1" unicode="&#x1ee1;" horiz-adv-x="1298" 
d="M1241 530q0 -259 -156.5 -407t-437.5 -148q-279 0 -434.5 144.5t-155.5 398.5q0 163 73 283t208 184t311 64q61 0 129 -7t116 -7q71 0 105 37t34 100q0 49 -16 104h258q23 -71 23 -148q0 -99 -50.5 -165.5t-147.5 -88.5q141 -135 141 -344zM809 528q0 209 -160 209
t-160 -219q0 -231 162 -231q158 0 158 241zM1040 1540q0 -165 -60 -252.5t-173 -87.5q-88 0 -170 49l-62.5 38t-60.5 18q-38 0 -60 -31t-22 -88h-174q0 170 61.5 255t167.5 85q102 0 189 -58q29 -18 55 -32.5t57 -14.5q34 0 55 29.5t21 89.5h176z" />
    <glyph glyph-name="uni1EE2" unicode="&#x1ee2;" horiz-adv-x="1618" 
d="M1505 721q0 -216 -93 -386.5t-260 -265t-374 -94.5q-202 0 -367.5 91.5t-257.5 257t-92 374.5q0 219 93 394t261 270.5t382 95.5q83 0 163.5 -17.5t180.5 -61.5q47 -20 93 -20q65 0 97 36.5t32 99.5q0 49 -16 104h258q23 -71 23 -148q0 -115 -67 -185t-196 -78
q140 -192 140 -467zM1047 709q0 177 -68 279t-186 102q-129 0 -201 -98t-72 -277q0 -175 71.5 -273t194.5 -98q75 0 135 44t93 126t33 195zM976 -267q0 -73 -53 -118.5t-139 -45.5t-139.5 47.5t-53.5 116.5q0 72 53.5 115.5t139.5 43.5q87 0 139.5 -43.5t52.5 -115.5z" />
    </font>
</defs>
</svg>
